<svg width="266" height="34" viewBox="0 0 266 34" fill="none" xmlns="http://www.w3.org/2000/svg">
<path d="M11.6594 32.3491C6.58636 32.3844 3.21529 30.7659 1.5462 27.4937C-0.13183 24.1434 -0.470698 20.277 0.598827 16.6845C0.632844 16.5498 0.666858 16.4236 0.697473 16.3042L0.784221 15.9734C2.15542 11.7596 4.61623 7.98568 7.91586 5.03622C11.414 1.73004 16.0704 -0.0609381 20.8763 0.0512137L25.8376 0L23.6265 8.38062H20.4273C20.1517 8.41473 19.8796 8.43858 19.6092 8.45734C19.3282 8.47492 19.0493 8.51721 18.7757 8.5836C17.4689 8.8061 16.21 9.25261 15.0543 9.9036C13.9534 10.4453 13.0822 11.3643 12.5983 12.4942H22.5431L20.5616 20.0102H10.6151C10.5944 20.213 10.5996 20.4175 10.6304 20.619C10.6563 20.8089 10.699 20.9961 10.758 21.1784C11.0241 21.8721 11.4654 22.4844 12.0387 22.9555C12.7724 23.5341 13.6922 23.8229 14.624 23.7672L19.5853 23.7161L17.3079 32.3491H11.6594Z" fill="#464545"/>
<path d="M30.5203 0.0512695H40.5655L37.3917 12.0867L37.5788 12.1379C37.8679 12.172 38.2155 11.9264 38.6214 11.4011C39.0331 10.8638 39.4 10.2934 39.7184 9.69568C39.8987 9.3904 40.0586 9.10221 40.2287 8.83275C40.37 8.58686 40.4955 8.3322 40.6046 8.07037L45.168 0.0547046H55.2081L50.6158 8.02437C50.5392 8.19491 50.4644 8.34667 50.3947 8.4831C50.3249 8.61954 50.2518 8.77133 50.1735 8.94017C49.4778 10.2299 48.6924 11.4688 47.823 12.6479C47.2404 13.5965 46.3336 14.3002 45.2717 14.6278C45.5359 14.6616 45.7966 14.7187 46.0507 14.7984C46.3104 14.8837 46.5769 14.9769 46.8501 15.0781C47.7138 15.5218 48.4195 16.2222 48.8707 17.0837C49.4096 18.4067 49.4303 19.8851 48.9285 21.2228L45.9946 32.3441H35.9494L38.6163 22.2376C38.9009 21.1541 38.7966 20.4435 38.3033 20.1058C37.4263 19.655 36.4642 19.3952 35.48 19.3434L32.0511 32.3441H22.0059L30.5203 0.0512695Z" fill="#464545"/>
<path d="M52.2977 16.0213C52.4225 15.5472 52.5766 15.0554 52.7603 14.546C52.944 14.0367 53.1538 13.5285 53.3896 13.0214C55.1351 9.49737 57.6888 6.43831 60.8411 4.09499C64.2965 1.39445 68.5725 -0.0331258 72.9527 0.0514006C77.9827 0.0514006 81.5159 1.56015 83.5524 4.57767C85.5889 7.59519 85.9319 11.6638 84.5815 16.7836C83.368 21.5734 80.5777 25.8124 76.6623 28.8139C73.2477 31.7031 68.9555 33.3435 64.4893 33.4665C62.4831 33.5576 60.4847 33.1614 58.6641 32.3115C56.8434 31.4617 55.2546 30.1834 54.0326 28.5853C51.5244 25.3302 50.9416 21.1592 52.2841 16.0724L52.2977 16.0213ZM62.5028 16.758C62.2096 17.5173 62.1113 18.3383 62.2171 19.1456C62.3229 19.9529 62.6294 20.7206 63.1083 21.3782C63.5781 21.9178 64.1633 22.3442 64.8203 22.6256C65.4773 22.907 66.1891 23.0362 66.9028 23.0035C67.0636 23.0042 67.2244 22.9957 67.3842 22.9779C67.5441 22.9608 67.7048 22.9522 67.8656 22.9522C69.3244 22.7036 70.7009 22.1025 71.8761 21.2008C73.2806 20.1057 74.2571 18.5508 74.6349 16.8075C74.9259 16.0566 75.0333 15.2467 74.9484 14.4457C74.8635 13.6446 74.5887 12.8756 74.1468 12.2028C73.755 11.692 73.2619 11.2682 72.6987 10.9579C72.1355 10.6477 71.5144 10.4577 70.8743 10.4001H70.1736C68.5186 10.4867 66.9278 11.0708 65.6085 12.0765C64.0323 13.2203 62.9238 14.899 62.4892 16.8007L62.5028 16.758Z" fill="#464545"/>
<path d="M92.9511 33.4626C89.5562 33.4854 87.3003 32.4166 86.1834 30.2564C85.0615 28.0484 84.8342 25.4911 85.549 23.119L85.6154 22.8683L85.6732 22.65C86.5957 19.8609 88.2424 17.3685 90.444 15.4291C92.7977 13.2411 95.9097 12.0602 99.1183 12.1376L102.438 12.1035L100.96 17.6359H98.819C98.6353 17.6587 98.4527 17.6752 98.2713 17.6854C98.0833 17.6975 97.8967 17.7254 97.7134 17.769C96.84 17.9153 95.9979 18.21 95.2234 18.6404C94.4898 18.9939 93.9064 19.5988 93.5787 20.3459H100.234L98.9075 25.3088H92.252C92.2387 25.4429 92.2421 25.578 92.2622 25.7113C92.28 25.8363 92.3086 25.9595 92.3473 26.0796C92.5244 26.5382 92.8175 26.9427 93.1977 27.2531C93.6904 27.6364 94.305 27.8273 94.9274 27.7903L98.2475 27.7562L96.7167 33.4558L92.9511 33.4626Z" fill="#464545"/>
<path d="M104.032 15.4907C104.295 14.4235 104.943 13.4916 105.85 12.8745C106.669 12.281 107.649 11.9536 108.658 11.9365C108.793 11.9365 108.929 11.9365 109.072 11.9536C109.218 11.9662 109.362 11.9942 109.502 12.0372C110.074 12.176 110.601 12.4589 111.033 12.8592C111.511 13.3091 111.828 13.9041 111.936 14.5527L113.39 21.4939L115.891 12.1395H122.614L117.802 30.1457C117.548 31.312 116.884 32.3476 115.931 33.0637C115.158 33.6477 114.223 33.9756 113.256 34.0017C113.146 34.0017 113.037 33.996 112.928 33.9846C112.82 33.9736 112.712 33.9565 112.606 33.9335C112.012 33.8213 111.455 33.5622 110.985 33.1797C110.489 32.7723 110.139 32.2126 109.99 31.5868L108.213 24.8468L105.91 33.4645H99.2222L104.032 15.4907Z" fill="#464545"/>
<path d="M129.08 33.4626C125.685 33.4854 123.43 32.4166 122.313 30.2564C121.19 28.0486 120.963 25.4911 121.678 23.119C121.702 23.0304 121.724 22.9484 121.745 22.8683L121.804 22.65C122.725 19.8603 124.372 17.3676 126.575 15.4291C128.929 13.2407 132.041 12.0598 135.249 12.1376L138.569 12.1035L137.09 17.6359H134.95C134.766 17.6581 134.583 17.6752 134.401 17.6854C134.213 17.6973 134.026 17.7252 133.843 17.769C132.969 17.9153 132.127 18.21 131.353 18.6404C130.619 18.9933 130.035 19.5984 129.708 20.3459H136.363L135.037 25.3088H128.381C128.368 25.4429 128.372 25.578 128.392 25.7113C128.409 25.8364 128.438 25.9597 128.478 26.0796C128.655 26.5383 128.948 26.9428 129.329 27.2531C129.821 27.6365 130.436 27.8274 131.059 27.7903L134.379 27.7562L132.848 33.4558L129.08 33.4626Z" fill="#464545"/>
<path d="M139.049 19.3123C139.272 18.0943 139.737 16.9335 140.415 15.8986C141.094 14.8637 141.972 13.9757 142.998 13.2869C144.826 12.2336 146.9 11.6862 149.008 11.7009C149.887 11.6023 150.778 11.7077 151.611 12.0087C152.443 12.3097 153.196 12.7983 153.811 13.437C154.688 14.5025 155.131 15.8608 155.052 17.2402C155.037 17.4619 155.011 17.6853 154.974 17.9088C154.937 18.1322 154.889 18.3539 154.83 18.5756C154.594 19.4536 154.198 20.2801 153.661 21.0127C153.165 21.7219 152.512 22.3058 151.753 22.7182C152.08 22.8226 152.377 23.0035 152.621 23.2461C152.864 23.4887 153.046 23.786 153.153 24.1132C153.41 24.9991 153.392 25.9429 153.1 26.8181L151.321 33.4694H144.599L146 28.2268C146.246 27.3092 146.275 26.7209 146.087 26.4617C145.848 26.1729 145.516 25.9769 145.148 25.9074C145.082 25.8844 145.014 25.8679 144.944 25.8579C144.874 25.8489 144.806 25.8316 144.74 25.8067L146.087 20.7654C146.094 20.7753 146.103 20.7835 146.113 20.7891C146.123 20.7948 146.135 20.7978 146.147 20.7979H146.213C146.24 20.7993 146.267 20.805 146.293 20.8148C146.318 20.8253 146.345 20.8311 146.373 20.8319C146.416 20.8318 146.46 20.8376 146.502 20.849C146.534 20.8586 146.566 20.8644 146.599 20.866C147.1 20.8978 147.596 20.7489 147.997 20.4464C148.305 20.2011 148.529 19.8663 148.638 19.4881C148.655 19.4277 148.665 19.366 148.671 19.3038C148.676 19.2416 148.687 19.18 148.703 19.1197C148.709 18.7588 148.598 18.4057 148.387 18.1134C148.28 17.9596 148.135 17.8358 147.967 17.7537C147.799 17.6716 147.612 17.634 147.426 17.6445C147.154 17.6337 146.884 17.6965 146.644 17.8264C146.405 17.9564 146.205 18.1486 146.065 18.3829C145.679 19.0664 145.392 19.8022 145.215 20.5676L141.765 33.4711H135.278L139.049 19.3123Z" fill="#464545"/>
<path d="M164.951 25.3159L166.349 20.0853H178.596C177.245 25.138 175.209 28.6699 172.486 30.6812C170.036 32.5985 167.028 33.6588 163.921 33.6999H163.569C163.443 33.6995 163.317 33.688 163.193 33.6658C161.969 33.6278 160.766 33.339 159.658 32.8172C158.549 32.2954 157.559 31.5517 156.748 30.6318C155.047 28.7421 154.638 26.1436 155.52 22.8362C155.539 22.7674 155.563 22.7002 155.592 22.635C155.62 22.5696 155.643 22.5023 155.662 22.4336L155.675 22.3842C155.675 22.3723 155.675 22.3552 155.689 22.3348C155.725 22.283 155.751 22.2253 155.767 22.1643C155.784 22.096 155.801 22.0414 155.813 21.9936C156.747 18.9864 158.685 16.3933 161.301 14.65C163.568 13.0973 166.187 12.1402 168.918 11.8667C169.088 11.8667 169.275 11.8666 169.459 11.8496C169.642 11.8325 169.819 11.8325 169.998 11.8325H170.6C172.016 11.9037 173.406 12.2392 174.699 12.8217C175.858 13.317 176.819 14.1838 177.434 15.2861L171.774 19.577C171.525 19.2669 171.231 18.9956 170.903 18.7721C170.578 18.5511 170.227 18.3707 169.858 18.2349C169.377 18.0597 168.87 17.9691 168.358 17.9671C167.078 18.0034 165.847 18.468 164.861 19.2871C163.688 20.2034 162.861 21.4921 162.514 22.9419C162.34 23.444 162.284 23.9796 162.35 24.5071C162.416 25.0345 162.602 25.5396 162.894 25.983C163.187 26.4264 163.578 26.7962 164.036 27.0636C164.494 27.3309 165.007 27.4887 165.536 27.5245H165.987C166.053 27.5231 166.119 27.5116 166.181 27.4904C166.843 27.4233 167.481 27.2113 168.052 26.8696C168.73 26.4798 169.317 25.9482 169.772 25.3108L164.951 25.3159Z" fill="#464545"/>
<path d="M186.3 33.4626C182.905 33.4854 180.65 32.4166 179.533 30.2564C178.41 28.0486 178.183 25.491 178.898 23.119C178.92 23.0304 178.944 22.9484 178.965 22.8683L179.024 22.65C179.946 19.8605 181.593 17.3679 183.795 15.4291C186.148 13.2406 189.26 12.0596 192.469 12.1376L195.789 12.1035L194.31 17.6359H192.17C191.985 17.6587 191.802 17.6752 191.621 17.6854C191.433 17.6975 191.247 17.7254 191.064 17.769C190.19 17.9154 189.348 18.2101 188.573 18.6404C187.839 18.9936 187.256 19.5987 186.93 20.3459H193.585L192.258 25.3088H185.594C185.58 25.4429 185.584 25.5781 185.605 25.7113C185.622 25.8364 185.65 25.9597 185.69 26.0796C185.866 26.5384 186.16 26.9429 186.54 27.2531C187.033 27.6365 187.647 27.8274 188.27 27.7903L191.59 27.7562L190.059 33.4558L186.3 33.4626Z" fill="#464545"/>
<path d="M199.239 18.1048H195.667L197.262 12.1357H211.107L209.512 18.1048H205.967L201.863 33.454H195.142L199.239 18.1048Z" fill="#464545"/>
<path d="M213.167 26.3219C212.649 26.2771 212.151 26.1072 211.713 25.8269C211.276 25.5465 210.913 25.164 210.655 24.712C210.341 24.207 210.141 23.6396 210.067 23.0491C209.994 22.4587 210.049 21.8594 210.229 21.2926L212.675 12.1394H219.33L217.206 20.0868C217.149 20.2222 217.127 20.3697 217.14 20.5159C217.154 20.6622 217.203 20.8029 217.283 20.9259C217.351 21.0104 217.437 21.0784 217.534 21.1248C217.632 21.1712 217.739 21.1947 217.848 21.1937H218.017C218.26 21.1332 218.486 21.0163 218.676 20.8526C218.907 20.6648 219.071 20.4059 219.142 20.1158L221.275 12.1343H227.996L225.685 20.7843C225.33 22.2439 224.529 23.5558 223.394 24.5363C222.382 25.4261 221.164 26.0486 219.851 26.3475L217.951 33.4559H211.263L213.167 26.3219Z" fill="#464545"/>
<path d="M229.685 12.1377H236.407L234.283 20.0834L234.409 20.1175C234.601 20.1396 234.834 19.9777 235.106 19.6314C235.382 19.2786 235.627 18.9032 235.84 18.5092C235.963 18.308 236.074 18.1187 236.181 17.9396C236.276 17.7776 236.36 17.6096 236.433 17.4365L239.494 12.1394H246.214L243.135 17.4041C243.084 17.5166 243.034 17.6173 242.989 17.7059C242.945 17.7946 242.893 17.8952 242.842 18.0078C242.376 18.8601 241.85 19.678 241.268 20.4551C241.227 20.229 241.123 20.0193 240.968 19.8504C240.813 19.6814 240.612 19.5604 240.391 19.5014C240.169 19.4425 239.936 19.448 239.717 19.5174C239.499 19.5868 239.304 19.7171 239.157 19.8932C239.01 20.0693 238.916 20.2838 238.886 20.5117C238.856 20.7395 238.891 20.9712 238.988 21.1796C239.084 21.388 239.238 21.5645 239.431 21.6884C239.624 21.8123 239.848 21.8785 240.078 21.8792C240.248 21.9355 240.431 21.997 240.613 22.0635C241.188 22.3548 241.66 22.817 241.964 23.3869C242.324 24.2582 242.337 25.2347 242.001 26.1156L240.04 33.4592H233.318L235.101 26.7859C235.291 26.0707 235.222 25.6011 234.892 25.3772C234.304 25.0793 233.661 24.9079 233.004 24.874L230.709 33.4576H223.987L229.685 12.1377Z" fill="#464545"/>
<path d="M245.665 19.8157C246.296 17.6424 247.547 15.7016 249.264 14.232C251.099 12.5522 253.508 11.6458 255.992 11.7011H256.293C258.106 11.7221 259.838 12.4572 261.115 13.7477C262.407 15.045 262.658 17.1689 261.87 20.1193L258.298 33.4644H251.577L253.235 27.2618H251.329L252.869 21.4939H254.775L255.349 19.3484C255.416 19.1783 255.435 18.9934 255.405 18.8133C255.375 18.6331 255.297 18.4645 255.179 18.3252C255.066 18.2089 254.93 18.1176 254.779 18.0571C254.629 17.9966 254.467 17.9682 254.305 17.9738C253.918 17.9828 253.542 18.105 253.223 18.3252C252.852 18.5694 252.589 18.9473 252.489 19.3808L248.724 33.4644H242.003L245.665 19.8157Z" fill="#464545"/>
<path d="M91.3062 8.84637C91.625 9.03532 91.9686 9.17882 92.3269 9.27273C92.7745 9.39231 93.2363 9.44975 93.6995 9.44334C94.3509 9.46457 94.9963 9.31278 95.5704 9.00334C96.0345 8.76018 96.3876 8.34738 96.5568 7.85041C96.6311 7.67336 96.6569 7.47965 96.6315 7.28924C96.6061 7.09884 96.5304 6.91864 96.4123 6.76743C96.0264 6.39339 95.5532 6.12194 95.0361 5.97778C94.3438 5.79177 93.7086 5.43603 93.1875 4.94257C92.9921 4.72704 92.8625 4.45987 92.814 4.1727C92.7654 3.88554 92.8 3.59052 92.9136 3.32247C93.036 2.94791 93.2347 2.60285 93.497 2.30934C93.7822 1.98715 94.1176 1.7136 94.4903 1.49929C94.9056 1.26027 95.3512 1.079 95.8151 0.960398C96.3238 0.827798 96.8476 0.761889 97.3731 0.764287C97.8549 0.755216 98.336 0.802094 98.807 0.904084C99.1166 0.969386 99.417 1.07247 99.7016 1.21105L98.9787 2.21732C98.7526 2.09115 98.5123 1.99267 98.2628 1.92399C97.852 1.81025 97.4267 1.75794 97.0007 1.76878C96.6559 1.76423 96.3123 1.80903 95.9802 1.90181C95.7127 1.97933 95.4572 2.09417 95.2216 2.24293C95.027 2.36393 94.8545 2.51734 94.7114 2.69656C94.5919 2.84212 94.4991 3.00784 94.4376 3.18601C94.3707 3.36922 94.3531 3.56685 94.3865 3.75904C94.4272 3.93484 94.5183 4.09493 94.6485 4.21955C94.8158 4.38012 95.006 4.51456 95.213 4.61853C95.4984 4.76341 95.7941 4.88717 96.0975 4.98869C96.4759 5.12305 96.8413 5.29141 97.1894 5.49177C97.4596 5.64292 97.6987 5.84439 97.8937 6.08531C98.0609 6.29873 98.1642 6.55537 98.1914 6.82541C98.2155 7.1404 98.1738 7.45705 98.0689 7.75496C97.9449 8.13279 97.7503 8.48345 97.4956 8.78839C97.2121 9.12724 96.8734 9.41555 96.4939 9.64112C96.0538 9.90389 95.5792 10.1037 95.0839 10.2347C94.2308 10.4512 93.3453 10.509 92.4714 10.4052C92.2164 10.3743 91.9631 10.3299 91.7127 10.2721C91.4927 10.221 91.2762 10.1555 91.0647 10.076C90.9002 10.0159 90.7436 9.93568 90.5986 9.83723L91.3062 8.84637Z" fill="#464545"/>
<path d="M110.063 6.19245C110.145 5.86671 110.233 5.52566 110.324 5.16922C110.414 4.81278 110.509 4.46138 110.604 4.10664C110.7 3.75191 110.798 3.40572 110.897 3.06634C110.996 2.72695 111.091 2.41148 111.183 2.12326H111.149C110.773 2.67241 110.376 3.24481 109.958 3.84058C109.54 4.43635 109.082 5.05605 108.585 5.69957L105.134 10.2702H104.032L103.633 5.78316C103.579 5.11235 103.541 4.47396 103.519 3.86796C103.495 3.26252 103.493 2.67406 103.519 2.12149H103.486C103.274 2.70703 103.033 3.37044 102.763 4.11174C102.494 4.85305 102.217 5.57738 101.935 6.28458L100.34 10.3231H98.9536L102.755 0.903809H104.609L105.071 5.45912C105.117 6.04693 105.148 6.60117 105.165 7.1219C105.182 7.64263 105.189 8.15093 105.187 8.64665H105.219C105.528 8.1714 105.864 7.67049 106.226 7.14407C106.589 6.61765 106.995 6.05603 107.442 5.45912L110.905 0.903809H112.759L110.446 10.3231H109.009L110.063 6.19245Z" fill="#464545"/>
<path d="M115.281 7.36576L113.164 10.3299H111.659L118.499 0.910645H120.253L121.08 10.3299H119.527L119.273 7.36576H115.281ZM119.273 6.42954L119.025 3.70929C119.002 3.41313 118.994 3.11605 119.001 2.81908C119.001 2.53427 119.011 2.25626 119.01 1.98509H118.959C118.794 2.25683 118.621 2.53706 118.438 2.82585C118.258 3.11578 118.062 3.40572 117.86 3.69565L115.882 6.42434L119.273 6.42954Z" fill="#464545"/>
<path d="M125.701 1.047C126.089 0.982197 126.537 0.930987 127.045 0.893467C127.555 0.855947 128.055 0.837153 128.557 0.837153C129.193 0.821983 129.829 0.885603 130.45 1.0265C130.872 1.12011 131.262 1.32502 131.579 1.62004C131.793 1.82559 131.935 2.09462 131.984 2.38741C132.039 2.73096 132.007 3.08299 131.89 3.41074C131.794 3.71479 131.647 4.00022 131.455 4.25494C131.259 4.51145 131.03 4.74078 130.775 4.93706C130.51 5.13742 130.225 5.30902 129.924 5.44878C129.626 5.59148 129.315 5.7056 128.996 5.78979L128.982 5.83247C129.157 5.88576 129.319 5.97357 129.46 6.09072C129.6 6.20787 129.716 6.35205 129.8 6.51469C129.976 6.89751 130.054 7.31842 130.026 7.73913C130.004 8.40199 129.989 8.95231 129.982 9.39005C129.965 9.70434 129.988 10.0196 130.05 10.328H128.546C128.491 10.0687 128.47 9.80332 128.484 9.53848C128.484 9.15191 128.5 8.66526 128.533 8.07858C128.574 7.83722 128.568 7.58996 128.513 7.35128C128.458 7.11261 128.356 6.88731 128.213 6.68863C127.834 6.3691 127.346 6.21114 126.852 6.24863H125.492L124.186 10.3298H122.714L125.701 1.047ZM125.805 5.31065H127.286C127.985 5.32981 128.676 5.16071 129.288 4.8211C129.806 4.54439 130.199 4.07944 130.385 3.5216C130.499 3.30046 130.533 3.04635 130.48 2.80295C130.428 2.55954 130.293 2.34199 130.098 2.18786C129.576 1.878 128.973 1.73419 128.368 1.77524C128.013 1.77524 127.712 1.78654 127.465 1.80928C127.275 1.82465 127.087 1.85035 126.9 1.8861L125.805 5.31065Z" fill="#464545"/>
<path d="M136.693 1.94243H133.27L133.6 0.907227H141.934L141.602 1.94243H138.161L135.476 10.3282H134.006L136.693 1.94243Z" fill="#464545"/>
<path d="M150.227 5.91086H145.868L144.779 9.30814H149.662L149.336 10.3314H142.988L146.005 0.912109H152.101L151.775 1.93545H147.148L146.196 4.91146H150.555L150.227 5.91086Z" fill="#464545"/>
<path d="M151.217 10.3265L154.233 0.907227H155.836L157.901 5.67229C158.134 6.23168 158.337 6.76035 158.512 7.25835C158.681 7.74067 158.819 8.23342 158.925 8.73355L158.979 8.71992C159.114 8.08549 159.269 7.46636 159.44 6.86092C159.612 6.25548 159.815 5.58866 160.046 4.86213L161.311 0.907227H162.68L159.665 10.3265H158.194L156.153 5.55112C155.934 5.02016 155.727 4.49148 155.533 3.96506C155.346 3.45627 155.192 2.93553 155.073 2.40627L155.018 2.4199C154.871 3.01568 154.706 3.61721 154.523 4.22435C154.341 4.8315 154.124 5.52563 153.874 6.30673L152.584 10.3316L151.217 10.3265Z" fill="#464545"/>
<path d="M169.435 5.91086H165.076L163.989 9.30814H168.867L168.539 10.3314H162.191L165.207 0.912109H171.302L170.978 1.93545H166.35L165.395 4.91146H169.755L169.435 5.91086Z" fill="#464545"/>
<path d="M173.401 1.04697C173.789 0.982165 174.236 0.930956 174.743 0.893436C175.253 0.855916 175.763 0.837121 176.257 0.837121C176.893 0.822072 177.529 0.885692 178.15 1.02647C178.572 1.11992 178.962 1.32485 179.279 1.62C179.492 1.82599 179.634 2.09482 179.684 2.38738C179.739 2.73079 179.708 3.08276 179.592 3.41071C179.494 3.71495 179.346 4.00038 179.153 4.25491C178.958 4.51203 178.729 4.74144 178.473 4.93703C178.211 5.13705 177.929 5.30864 177.631 5.44875C177.333 5.59127 177.023 5.70538 176.704 5.78976L176.689 5.83243C176.864 5.8852 177.026 5.97286 177.167 6.09006C177.308 6.20727 177.423 6.35167 177.507 6.51466C177.683 6.89737 177.761 7.31837 177.733 7.7391C177.711 8.40196 177.697 8.95228 177.689 9.39002C177.672 9.70431 177.694 10.0195 177.757 10.328H176.253C176.198 10.0686 176.177 9.80328 176.19 9.53845C176.19 9.15188 176.207 8.66523 176.241 8.07855C176.283 7.83719 176.276 7.58993 176.221 7.35125C176.166 7.11258 176.065 6.88728 175.922 6.6886C175.543 6.3689 175.054 6.21092 174.561 6.2486H173.2L171.892 10.3298H170.423L173.401 1.04697ZM173.506 5.31062H174.988C175.687 5.32978 176.378 5.16068 176.99 4.82107C177.508 4.54387 177.901 4.07918 178.088 3.52157C178.202 3.30021 178.235 3.04638 178.183 2.80323C178.13 2.56008 177.995 2.34256 177.801 2.18783C177.279 1.87803 176.675 1.73424 176.07 1.77521C175.715 1.77521 175.414 1.78651 175.168 1.80924C174.978 1.82447 174.789 1.85017 174.602 1.88607L173.506 5.31062Z" fill="#464545"/>
<path d="M188.132 9.90881C187.947 9.96452 187.725 10.0214 187.465 10.0794C187.206 10.1374 186.922 10.1942 186.615 10.2499C186.304 10.3022 185.968 10.3444 185.606 10.3762C185.246 10.4086 184.875 10.4256 184.497 10.4256C183.741 10.4391 182.988 10.3425 182.259 10.1391C181.658 9.96943 181.114 9.6387 180.686 9.18235C180.307 8.76856 180.069 8.24484 180.006 7.68664C179.928 7.00717 180.006 6.31899 180.233 5.67421C180.459 4.96915 180.811 4.31103 181.271 3.73173C181.749 3.12664 182.324 2.60505 182.972 2.18824C183.667 1.74277 184.423 1.4015 185.217 1.17521C186.083 0.928027 186.98 0.805691 187.88 0.811928C188.442 0.803839 189.003 0.85073 189.556 0.951829C189.902 1.01061 190.24 1.10903 190.564 1.24516L189.884 2.23602C189.58 2.10141 189.262 2.00296 188.935 1.94269C188.47 1.86003 187.997 1.82227 187.525 1.83006C186.865 1.82624 186.208 1.91354 185.573 2.08936C184.984 2.25156 184.425 2.50406 183.914 2.83799C183.42 3.16229 182.983 3.56561 182.62 4.03183C182.25 4.50671 181.968 5.04378 181.786 5.6179C181.605 6.13103 181.536 6.67707 181.582 7.21936C181.625 7.65777 181.798 8.07341 182.077 8.4132C182.381 8.75856 182.772 9.01638 183.208 9.16018C183.756 9.3433 184.332 9.43094 184.909 9.41937C185.318 9.42345 185.728 9.40006 186.134 9.34942C186.404 9.31898 186.67 9.25841 186.926 9.16871L187.826 6.35976H185.555L185.867 5.38088H189.576L188.132 9.90881Z" fill="#464545"/>
<path d="M192.707 10.3268L193.986 6.32921L192.149 0.907531H193.82L194.573 3.50663C194.671 3.86136 194.76 4.1888 194.84 4.49749C194.92 4.80617 194.998 5.12169 195.07 5.44744H195.103C195.357 5.14045 195.631 4.82834 195.922 4.51112C196.213 4.19391 196.526 3.85856 196.861 3.50496L199.313 0.905762H200.949L195.461 6.3138L194.175 10.325L192.707 10.3268Z" fill="#464545"/>
<path d="M202.356 8.84638C202.675 9.03535 203.018 9.17885 203.377 9.27274C203.824 9.39248 204.286 9.44993 204.749 9.44335C205.401 9.46425 206.046 9.31248 206.62 9.00335C207.084 8.75984 207.436 8.34709 207.605 7.85041C207.68 7.67347 207.706 7.47966 207.681 7.28915C207.655 7.09863 207.579 6.9184 207.46 6.76743C207.074 6.39309 206.6 6.12162 206.083 5.97778C205.391 5.79105 204.757 5.43539 204.236 4.94258C204.041 4.72694 203.911 4.45983 203.862 4.17271C203.814 3.88559 203.848 3.59056 203.962 3.32248C204.084 2.94782 204.283 2.60271 204.545 2.30934C204.83 1.98713 205.166 1.71358 205.538 1.49929C205.954 1.26016 206.399 1.07889 206.863 0.960405C207.372 0.82771 207.896 0.7618 208.421 0.764294C208.903 0.755192 209.384 0.80207 209.855 0.904091C210.165 0.969492 210.465 1.07257 210.75 1.21106L210.027 2.21733C209.801 2.09088 209.56 1.99239 209.311 1.92399C208.901 1.81035 208.476 1.75804 208.051 1.76879C207.706 1.76428 207.362 1.80908 207.03 1.90182C206.763 1.9795 206.508 2.09434 206.273 2.24293C206.079 2.36383 205.906 2.51725 205.763 2.69657C205.643 2.84192 205.55 3.0077 205.489 3.18601C205.422 3.36923 205.404 3.56685 205.438 3.75905C205.479 3.93501 205.571 4.09509 205.702 4.21955C205.869 4.38007 206.059 4.5145 206.266 4.61854C206.552 4.76358 206.847 4.88734 207.151 4.98869C207.528 5.1232 207.894 5.29156 208.241 5.49178C208.511 5.643 208.75 5.84446 208.945 6.08531C209.111 6.29916 209.215 6.55558 209.243 6.82541C209.266 7.14038 209.224 7.45683 209.12 7.75496C208.996 8.13264 208.802 8.48324 208.547 8.7884C208.263 9.12699 207.924 9.41526 207.545 9.64112C207.105 9.90382 206.631 10.1036 206.135 10.2347C205.545 10.3901 204.937 10.4652 204.327 10.458C204.059 10.4577 203.79 10.4412 203.523 10.4086C203.268 10.3776 203.015 10.3332 202.764 10.2756C202.544 10.2244 202.328 10.1589 202.116 10.0795C201.952 10.0191 201.796 9.93889 201.65 9.84067L202.356 8.84638Z" fill="#464545"/>
<path d="M212.808 10.3268L214.087 6.32921L212.25 0.907531H213.92L214.673 3.50663C214.77 3.86136 214.86 4.1888 214.94 4.49749C215.02 4.80617 215.097 5.12169 215.17 5.44744H215.202C215.459 5.14045 215.73 4.82834 216.02 4.51112C216.311 4.19391 216.624 3.8597 216.959 3.50496L219.414 0.905762H221.05L215.562 6.3138L214.276 10.325L212.808 10.3268Z" fill="#464545"/>
<path d="M219.41 8.8464C219.729 9.03516 220.073 9.17865 220.431 9.27277C220.879 9.39236 221.341 9.44981 221.804 9.44338C222.455 9.4642 223.1 9.31244 223.674 9.00338C224.138 8.75938 224.491 8.34688 224.661 7.85044C224.735 7.67328 224.761 7.47941 224.735 7.28897C224.709 7.09852 224.633 6.91843 224.515 6.76746C224.13 6.39355 223.657 6.1221 223.14 5.97781C222.448 5.79134 221.813 5.43566 221.292 4.94261C221.096 4.72726 220.966 4.46022 220.917 4.17305C220.868 3.88588 220.903 3.59071 221.016 3.32251C221.139 2.94831 221.338 2.6034 221.599 2.30937C221.885 1.98702 222.221 1.71345 222.594 1.49932C223.01 1.26007 223.455 1.0788 223.919 0.960433C224.428 0.827808 224.951 0.761898 225.476 0.764322C225.957 0.755097 226.439 0.801976 226.91 0.904118C227.22 0.969567 227.52 1.07264 227.806 1.21109L227.083 2.21735C226.856 2.09125 226.615 1.99277 226.365 1.92402C225.955 1.81015 225.53 1.75785 225.105 1.76882C224.76 1.76431 224.416 1.80911 224.084 1.90185C223.817 1.97999 223.562 2.09479 223.326 2.24296C223.131 2.36441 222.959 2.51776 222.816 2.6966C222.696 2.84236 222.604 3.00803 222.542 3.18604C222.475 3.36943 222.458 3.56703 222.492 3.75907C222.532 3.93483 222.623 4.09499 222.753 4.21958C222.921 4.37985 223.112 4.51423 223.319 4.61857C223.604 4.7641 223.9 4.88788 224.203 4.98872C224.581 5.12348 224.946 5.29182 225.294 5.4918C225.564 5.6433 225.802 5.84472 225.998 6.08534C226.164 6.29919 226.267 6.55561 226.295 6.82544C226.319 7.14043 226.278 7.45704 226.173 7.75499C226.05 8.13311 225.855 8.48389 225.6 8.78842C225.316 9.12727 224.977 9.41558 224.598 9.64115C224.158 9.90384 223.685 10.1036 223.19 10.2347C222.599 10.39 221.991 10.4652 221.38 10.4581C221.112 10.4577 220.843 10.4412 220.577 10.4086C220.322 10.3779 220.069 10.3335 219.818 10.2756C219.598 10.2247 219.382 10.1592 219.171 10.0795C219.006 10.0192 218.849 9.93903 218.703 9.8407L219.41 8.8464Z" fill="#464545"/>
<path d="M232.179 1.94243H228.753L229.085 0.907227H237.419L237.089 1.94243H233.647L230.961 10.3282H229.492L232.179 1.94243Z" fill="#464545"/>
<path d="M242.884 5.91086H238.524L237.436 9.30814H242.314L241.988 10.3314H235.64L238.656 0.912109H244.753L244.427 1.93545H239.8L238.846 4.91146H243.205L242.884 5.91086Z" fill="#464545"/>
<path d="M254.686 6.19245C254.768 5.86614 254.855 5.52509 254.947 5.16922C255.038 4.81335 255.132 4.4591 255.227 4.10664C255.324 3.75361 255.421 3.40572 255.52 3.06634C255.618 2.72695 255.712 2.41148 255.805 2.12326H255.771C255.396 2.67241 254.999 3.24481 254.581 3.84058C254.162 4.43635 253.705 5.05605 253.208 5.69957L249.756 10.2702H248.653L248.252 5.78316C248.201 5.11235 248.163 4.47396 248.139 3.86796C248.116 3.26252 248.114 2.67406 248.139 2.12149H248.105C247.895 2.70703 247.654 3.37044 247.383 4.11174C247.112 4.85305 246.836 5.57738 246.555 6.28458L244.959 10.3231H243.575L247.374 0.903809H249.228L249.691 5.45912C249.736 6.04693 249.767 6.60117 249.784 7.1219C249.8 7.64377 249.806 8.14525 249.806 8.64665H249.84C250.149 8.1714 250.484 7.67049 250.847 7.14407C251.21 6.61765 251.616 6.05603 252.064 5.45912L255.526 0.903809H257.38L255.065 10.3231H253.628L254.686 6.19245Z" fill="#464545"/>
<path d="M257.595 8.84639C257.914 9.03546 258.257 9.17897 258.615 9.27275C259.063 9.39239 259.525 9.44984 259.988 9.44336C260.639 9.46467 261.285 9.31288 261.859 9.00336C262.324 8.76054 262.677 8.34769 262.847 7.85043C262.921 7.67337 262.947 7.47966 262.922 7.28926C262.896 7.09886 262.821 6.91866 262.702 6.76744C262.316 6.39351 261.842 6.1221 261.325 5.97779C260.633 5.79153 259.998 5.43581 259.478 4.94259C259.282 4.72706 259.153 4.45988 259.104 4.17272C259.055 3.88556 259.09 3.59053 259.204 3.32249C259.327 2.94781 259.526 2.60274 259.789 2.30935C260.073 1.98718 260.408 1.71362 260.78 1.4993C261.196 1.26033 261.643 1.07907 262.107 0.960415C262.616 0.827758 263.139 0.761849 263.665 0.764304C264.147 0.755156 264.628 0.802035 265.099 0.904101C265.408 0.969337 265.709 1.07242 265.994 1.21107L265.271 2.21734C265.045 2.09106 264.804 1.99257 264.554 1.924C264.144 1.81031 263.719 1.75801 263.293 1.7688C262.945 1.76362 262.598 1.80842 262.264 1.90183C261.997 1.9796 261.742 2.09443 261.507 2.24294C261.312 2.36389 261.14 2.51731 260.997 2.69658C260.877 2.84216 260.784 3.00787 260.723 3.18602C260.656 3.36936 260.639 3.56702 260.673 3.75906C260.714 3.93501 260.805 4.09519 260.935 4.21956C261.102 4.38014 261.293 4.51457 261.5 4.61855C261.785 4.76346 262.081 4.88723 262.384 4.9887C262.763 5.12356 263.128 5.2919 263.477 5.49179C263.747 5.64298 263.985 5.84444 264.18 6.08532C264.347 6.29889 264.451 6.55546 264.478 6.82542C264.503 7.14043 264.461 7.45714 264.356 7.75497C264.231 8.1326 264.037 8.48318 263.783 8.78841C263.499 9.12682 263.16 9.41506 262.781 9.64113C262.34 9.90387 261.866 10.1037 261.371 10.2347C260.518 10.4512 259.632 10.5089 258.758 10.4052C258.503 10.3743 258.25 10.3299 257.999 10.2721C257.779 10.2213 257.563 10.1557 257.352 10.076C257.187 10.0159 257.031 9.93564 256.886 9.83725L257.595 8.84639Z" fill="#464545"/>
</svg>
