<svg width="1440" height="1494" viewBox="0 0 1440 1494" fill="none" xmlns="http://www.w3.org/2000/svg">
<g clip-path="url(#clip0_1225_1738)">
<rect width="1440" height="1494" fill="white"/>
<path fill-rule="evenodd" clip-rule="evenodd" d="M1161.12 93.2377C1269.51 84.1513 1398.52 -24.6251 1472.64 54.9289C1547.44 135.203 1418.98 256.661 1415.55 366.303C1412.36 468.471 1525.86 586.307 1453.76 658.804C1381.71 731.253 1263.16 616.365 1161.12 622.152C1045.01 628.737 929.906 758.693 833.28 693.994C737.612 629.936 766.524 480.72 779.022 366.303C789.885 266.843 816.393 161.311 897.819 103.12C972.093 50.0413 1070.14 100.866 1161.12 93.2377Z" fill="#F4F4F4"/>
<path fill-rule="evenodd" clip-rule="evenodd" d="M1562.12 236.238C1670.51 227.151 1799.52 118.375 1873.64 197.929C1948.44 278.203 1819.98 399.661 1816.55 509.303C1813.36 611.471 1926.86 729.307 1854.76 801.804C1782.71 874.253 1664.16 759.365 1562.12 765.152C1446.01 771.737 1330.91 901.693 1234.28 836.994C1138.61 772.936 1167.52 623.72 1180.02 509.303C1190.89 409.843 1217.39 304.311 1298.82 246.12C1373.09 193.041 1471.14 243.866 1562.12 236.238Z" fill="#F4F4F4"/>
<path fill-rule="evenodd" clip-rule="evenodd" d="M1384.69 145.457C1483.81 196.702 1655.28 172.568 1676.26 282.153C1697.43 392.729 1519.53 428.188 1456.7 521.602C1398.16 608.649 1432.46 772.988 1330.25 796.652C1228.11 820.301 1187.81 655.763 1096 605.114C991.518 547.476 910.428 557.822 861.788 448.869C813.63 340.995 771.692 201.115 845 108.5C908.725 27.9914 1048.01 16.5053 1150.52 10.3669C1244.02 4.76769 1301.47 102.438 1384.69 145.457Z" fill="url(#paint0_linear_1225_1738)"/>
<path fill-rule="evenodd" clip-rule="evenodd" d="M237.636 718.905C288.015 752.893 495.572 744.261 539.865 785.875C630.569 871.092 671.055 1051.84 641.02 1172.69C612.115 1288.98 436.355 1273.2 319.612 1300.03C228.924 1320.87 113.638 1377.24 51.2324 1308.23C-14.1505 1235.93 84.6832 1124.51 73.3166 1027.66C67.4152 977.379 5.50405 950.066 3.261 899.485C-0.786544 808.213 -30.7949 669.082 56.1773 641.172C145.375 612.547 159.997 666.525 237.636 718.905Z" fill="#F4F4F4"/>
<path fill-rule="evenodd" clip-rule="evenodd" d="M166.127 755.827C230.518 768.139 293.687 736.242 355.283 758.708C481.418 804.714 671.813 815.442 693.361 948.128C714.098 1075.82 533.118 1134.87 428.756 1211.12C347.686 1270.36 257.319 1375.31 166.127 1333.36C70.5839 1289.4 121.258 1136.82 68.848 1045.54C41.6378 998.154 -31.3523 997.369 -55.0613 948.128C-97.8439 859.276 -186.697 733.966 -112.314 669.298C-36.0278 602.975 66.8947 736.853 166.127 755.827Z" fill="url(#paint1_linear_1225_1738)"/>
<rect x="483.027" y="562.966" width="29.044" height="29.044" rx="10" transform="rotate(38.5036 483.027 562.966)" fill="#F4F4F4"/>
<rect x="609.189" y="520" width="35.5031" height="35.5031" rx="10" transform="rotate(15 609.189 520)" fill="#F4F4F4"/>
<rect x="594.314" y="606.23" width="35.5031" height="35.5031" rx="10" transform="rotate(32.5162 594.314 606.23)" fill="#F4F4F4"/>
<rect x="674.699" y="471.908" width="39.0406" height="39.0406" rx="10" transform="rotate(-41.0548 674.699 471.908)" fill="#F4F4F4"/>
<rect x="452.837" y="700.635" width="28.5735" height="28.5735" rx="10" transform="rotate(-31.7043 452.837 700.635)" fill="#F4F4F4"/>
<rect x="278.053" y="719.391" width="23.4098" height="23.4098" rx="5" transform="rotate(-107.404 278.053 719.391)" fill="#F4F4F4"/>
<rect x="147.763" y="678.763" width="18.3849" height="18.3849" rx="5" transform="rotate(-45 147.763 678.763)" fill="#F4F4F4"/>
<rect x="612.897" y="739.764" width="33.8849" height="33.8849" rx="10" transform="rotate(-26.1259 612.897 739.764)" fill="#F4F4F4"/>
<rect x="235.769" y="598.444" width="30.0427" height="30.0427" rx="10" transform="rotate(-150 235.769 598.444)" fill="#F4F4F4"/>
<rect x="350.748" y="672.856" width="30.2415" height="30.2415" rx="10" transform="rotate(-127.049 350.748 672.856)" fill="#F4F4F4"/>
<rect x="945.964" y="777.224" width="34.1371" height="34.1371" rx="10" transform="rotate(16.9705 945.964 777.224)" fill="#F4F4F4"/>
<rect x="1042.47" y="714.969" width="36.0869" height="36.0869" rx="10" transform="rotate(-40.3091 1042.47 714.969)" fill="#F4F4F4"/>
<rect x="772.482" y="782.199" width="38.918" height="38.918" rx="10" transform="rotate(15 772.482 782.199)" fill="#F4F4F4"/>
<rect x="701" y="619.402" width="40.4072" height="40.4072" rx="10" transform="rotate(-89.0967 701 619.402)" fill="#F4F4F4"/>
<rect x="844" y="1254.81" width="33.8849" height="33.8849" rx="10" transform="rotate(-15.0694 844 1254.81)" fill="#F4F4F4"/>
<rect x="970" y="1309.89" width="33.8849" height="33.8849" rx="10" transform="rotate(-61.9115 970 1309.89)" fill="#F4F4F4"/>
<rect x="874" y="1351.4" width="27.9641" height="27.9641" rx="10" transform="rotate(-39.1669 874 1351.4)" fill="#F4F4F4"/>
<rect x="810.14" y="1343" width="35.1359" height="35.1359" rx="10" transform="rotate(33.0068 810.14 1343)" fill="#F4F4F4"/>
<rect x="871.447" y="1423.26" width="27.8412" height="27.8412" rx="10" transform="rotate(57.3709 871.447 1423.26)" fill="#F4F4F4"/>
<rect x="1092.16" y="1310" width="44.3484" height="44.3484" rx="10" transform="rotate(33.0068 1092.16 1310)" fill="#F4F4F4"/>
<rect x="1000.3" y="1404.22" width="33.8849" height="33.8849" rx="10" transform="rotate(-29.9727 1000.3 1404.22)" fill="#F4F4F4"/>
<rect x="762" y="1212.41" width="39.4038" height="39.4038" rx="10" transform="rotate(-26.2278 762 1212.41)" fill="#F4F4F4"/>
<rect x="1159" y="1384.5" width="39.3878" height="39.3878" rx="10" transform="rotate(-21.6025 1159 1384.5)" fill="#F4F4F4"/>
<rect x="1242.19" y="1444.76" width="39.3878" height="39.3878" rx="10" transform="rotate(48.3439 1242.19 1444.76)" fill="#F4F4F4"/>
<rect x="1218.37" y="1282.74" width="33.8849" height="33.8849" rx="10" transform="rotate(14.7555 1218.37 1282.74)" fill="#F4F4F4"/>
<rect x="181.802" y="57.2877" width="31.4585" height="31.4585" rx="10" transform="rotate(-15 181.802 57.2877)" fill="#F4F4F4"/>
<rect x="276.986" y="17.756" width="33.8849" height="33.8849" rx="10" transform="rotate(-15 276.986 17.756)" fill="#F4F4F4"/>
<rect x="375.535" y="53.5922" width="33.8849" height="33.8849" rx="10" transform="rotate(30 375.535 53.5922)" fill="#F4F4F4"/>
<rect x="114.712" y="169.406" width="32.7054" height="32.7054" rx="10" transform="rotate(-37.1567 114.712 169.406)" fill="#F4F4F4"/>
<rect x="567" y="60.7561" width="31.0532" height="31.0532" rx="10" transform="rotate(-37.1567 567 60.7561)" fill="#F4F4F4"/>
<rect x="470.139" y="46.6628" width="35.1013" height="35.1013" rx="10" transform="rotate(-30 470.139 46.6628)" fill="#F4F4F4"/>
<rect x="404" y="23.4177" width="24.2438" height="24.2438" rx="10" transform="rotate(-75 404 23.4177)" fill="#F4F4F4"/>
</g>
<defs>
<linearGradient id="paint0_linear_1225_1738" x1="1332" y1="65" x2="1317" y2="862.5" gradientUnits="userSpaceOnUse">
<stop stop-color="#FFBB00"/>
<stop offset="1" stop-color="#DF7B05"/>
</linearGradient>
<linearGradient id="paint1_linear_1225_1738" x1="277" y1="651" x2="277" y2="1343" gradientUnits="userSpaceOnUse">
<stop stop-color="#8338EC"/>
<stop offset="1" stop-color="#4A2086"/>
</linearGradient>
<clipPath id="clip0_1225_1738">
<rect width="1440" height="1494" fill="white"/>
</clipPath>
</defs>
</svg>
