<svg width="1443" height="197" viewBox="0 0 1443 197" fill="none" xmlns="http://www.w3.org/2000/svg">
<path fill-rule="evenodd" clip-rule="evenodd" d="M1443 174.602L1408.13 178.903C1374.46 183.04 1305.91 191.315 1237.37 174.765C1167.63 158.216 1099.08 116.844 1030.54 112.706C962 108.569 893.457 141.667 824.915 141.667C756.372 141.667 686.627 108.569 618.085 100.294C549.542 92.0199 481 108.569 412.457 133.393C343.915 158.216 277.601 183.019 207.856 195.431C166.529 202.915 108.425 181.573 78.9453 174.602C49.4658 167.632 3.69549e-05 174.602 3.69549e-05 174.602V1.02718L34.8724 1C68.5424 1 137.085 1 205.627 1C275.372 1 343.915 1 412.457 1C481 1 549.542 1 618.085 1C686.627 1 756.372 1 824.915 1C893.457 1 962 1 1030.54 1C1099.08 1 1167.63 1 1237.37 1C1305.91 1 1374.46 1 1408.13 1H1443V174.602Z" fill="#F4F4F4"/>
<path fill-rule="evenodd" clip-rule="evenodd" d="M1443 157.386C1443 157.386 1398.03 161.8 1365.55 163.902C1333.08 166.003 1298.6 158.889 1237.37 149.307C1167.63 135.088 1099.08 99.5383 1030.54 95.9833C962 92.4284 893.457 120.868 824.915 120.868C756.372 120.868 686.627 92.4284 618.085 85.3185C549.542 78.2086 481 92.4283 412.457 113.758C343.915 135.088 275.309 168.606 220.847 176.933C166.385 185.261 135.906 166.319 91.9363 157.385C47.9668 148.452 3.69549e-05 157.386 3.69549e-05 157.386V0.0233612L34.8724 0C68.5424 0 137.085 0 205.627 0C275.372 0 343.915 0 412.457 0C481 0 549.542 0 618.085 0C686.627 0 756.372 0 824.915 0C893.457 0 962 0 1030.54 0C1099.08 0 1167.63 0 1237.37 0C1305.91 0 1374.46 0 1408.13 0H1443V157.386Z" fill="#354DFC"/>
</svg>
