<svg width="1444" height="197" viewBox="0 0 1444 197" fill="none" xmlns="http://www.w3.org/2000/svg">
<path fillRule="evenodd" clipRule="evenodd" d="M1444 174.602L1409.1 178.903C1375.41 183.04 1306.82 191.315 1238.23 174.765C1168.44 158.216 1099.85 116.844 1031.26 112.706C962.667 108.569 894.077 141.667 825.487 141.667C756.897 141.667 687.103 108.569 618.513 100.294C549.923 92.0199 481.333 108.569 412.743 133.393C344.153 158.216 277.793 183.019 208 195.431C166.644 202.915 108.5 181.573 79 174.602C49.5 167.632 0 174.602 0 174.602V1.02718L34.8965 1C68.5898 1 137.18 1 205.77 1C275.563 1 344.153 1 412.743 1C481.333 1 549.923 1 618.513 1C687.103 1 756.897 1 825.487 1C894.077 1 962.667 1 1031.26 1C1099.85 1 1168.44 1 1238.23 1C1306.82 1 1375.41 1 1409.1 1H1444V174.602Z" fill="#F4F4F4"/>
<path fillRule="evenodd" clipRule="evenodd" d="M1444 157.386C1444 157.386 1399 161.8 1366.5 163.902C1334 166.003 1299.5 158.889 1238.23 149.307C1168.44 135.088 1099.85 99.5383 1031.26 95.9833C962.667 92.4284 894.077 120.868 825.487 120.868C756.897 120.868 687.103 92.4284 618.513 85.3185C549.923 78.2086 481.333 92.4283 412.743 113.758C344.153 135.088 275.5 168.606 221 176.933C166.5 185.261 136 166.319 92 157.385C48 148.452 0 157.386 0 157.386V0.023359L34.8965 1.6435e-06C68.5898 1.6435e-06 137.18 1.6435e-06 205.77 1.6435e-06C275.563 1.6435e-06 344.153 1.6435e-06 412.743 1.6435e-06C481.333 1.6435e-06 549.923 1.6435e-06 618.513 1.6435e-06C687.103 1.6435e-06 756.897 1.6435e-06 825.487 1.6435e-06C894.077 1.6435e-06 962.667 1.6435e-06 1031.26 1.6435e-06C1099.85 1.6435e-06 1168.44 1.6435e-06 1238.23 1.6435e-06C1306.82 1.6435e-06 1375.41 1.6435e-06 1409.1 1.6435e-06H1444V157.386Z" fill="#354DFC"/>
</svg>