<svg width="1444" height="222" viewBox="0 0 1444 222" fill="none" xmlns="http://www.w3.org/2000/svg">
<path fillRule="evenodd" clipRule="evenodd" d="M1444 184.165L1409.1 188.336C1375.41 192.507 1306.82 200.85 1238.23 184.165C1168.44 167.48 1099.85 125.767 1031.26 121.596C962.667 117.425 894.077 150.795 825.487 150.795C756.897 150.795 687.103 117.425 618.513 109.082C549.923 100.74 481.333 117.425 412.743 142.452C344.153 167.48 275.563 200.85 205.77 213.363C137.18 225.877 91.5 194.363 60 189C28.5 183.637 0 184.16 0 184.16V9L34.8965 8.9726C68.5898 8.9726 137.18 8.9726 205.77 8.9726C275.563 8.9726 344.153 8.9726 412.743 8.9726C481.333 8.9726 549.923 8.9726 618.513 8.9726C687.103 8.9726 756.897 8.9726 825.487 8.9726C894.077 8.9726 962.667 8.9726 1031.26 8.9726C1099.85 8.9726 1168.44 8.9726 1238.23 8.9726C1306.82 8.9726 1375.41 8.9726 1409.1 8.9726H1444V184.165Z" fill="#F4F4F4"/>
<path fillRule="evenodd" clipRule="evenodd" d="M1444 166.685L1409.1 170.654C1375.41 174.623 1306.82 182.56 1238.23 166.685C1168.44 150.811 1099.85 111.124 1031.26 107.155C962.667 103.186 894.077 134.936 825.487 134.936C756.897 134.936 687.103 103.186 618.513 95.2488C549.923 87.3114 481.333 103.186 412.743 126.998C344.153 150.811 275.563 182.56 205.77 194.466C137.18 206.372 97.3965 185.838 77.5 175C57.6035 164.162 0 166.684 0 166.684V4.57764e-05H34.8965C68.5898 4.57764e-05 137.18 4.57764e-05 205.77 4.57764e-05C275.563 4.57764e-05 344.153 4.57764e-05 412.743 4.57764e-05C481.333 4.57764e-05 549.923 4.57764e-05 618.513 4.57764e-05C687.103 4.57764e-05 756.897 4.57764e-05 825.487 4.57764e-05C894.077 4.57764e-05 962.667 4.57764e-05 1031.26 4.57764e-05C1099.85 4.57764e-05 1168.44 4.57764e-05 1238.23 4.57764e-05C1306.82 4.57764e-05 1375.41 4.57764e-05 1409.1 4.57764e-05H1444V166.685Z" fill="#354DFC"/>
</svg>
