<svg width="951" height="608" viewBox="0 0 951 608" fill="none" xmlns="http://www.w3.org/2000/svg">
<rect x="72" y="475" width="21" height="21" rx="5" fill="#F4F4F4"/>
<rect x="165" y="259" width="21" height="21" rx="5" fill="#F4F4F4"/>
<rect x="616" y="462" width="21" height="21" rx="5" fill="#F4F4F4"/>
<rect width="21" height="21" rx="5" transform="matrix(0.968842 0.247681 0.247681 -0.968842 95.7266 120.072)" fill="#F4F4F4"/>
<rect x="285" y="308" width="36" height="36" rx="5" fill="#F4F4F4"/>
<rect width="36" height="36" rx="5" transform="matrix(0.974197 -0.2257 -0.2257 -0.974197 222.527 77.5981)" fill="#F4F4F4"/>
<rect x="319.811" y="431.584" width="29" height="29" rx="5" transform="rotate(-9.47371 319.811 431.584)" fill="#F4F4F4"/>
<rect x="417.689" y="210.737" width="29" height="29" rx="5" transform="rotate(9.831 417.689 210.737)" fill="#F4F4F4"/>
<rect width="29" height="29" rx="5" transform="matrix(0.984642 -0.174583 -0.174583 -0.984642 350.754 171.309)" fill="#F4F4F4"/>
<rect x="467" y="444" width="23" height="23" rx="5" fill="#F4F4F4"/>
<rect x="557.166" y="231.817" width="23" height="23" rx="5" transform="rotate(-16.8083 557.166 231.817)" fill="#F4F4F4"/>
<rect width="23" height="23" rx="5" transform="matrix(1 0 0 -1 493 154)" fill="#F4F4F4"/>
<rect x="463.921" y="329.959" width="39" height="39" rx="5" transform="rotate(17.863 463.921 329.959)" fill="#F4F4F4"/>
<rect width="39" height="39" rx="5" transform="matrix(0.869439 -0.49404 -0.49404 -0.869439 402.18 54.0878)" fill="#F4F4F4"/>
<rect x="21.7056" y="579.753" width="28" height="28" rx="5" transform="rotate(-10.3855 21.7056 579.753)" fill="#F4F4F4"/>
<rect x="120.946" y="357.944" width="28" height="28" rx="5" transform="rotate(14.481 120.946 357.944)" fill="#F4F4F4"/>
<rect width="28" height="28" rx="5" transform="matrix(0.975216 -0.221254 -0.221254 -0.975216 21.4446 58.7506)" fill="#F4F4F4"/>
<rect y="393" width="18" height="18" rx="5" fill="#F4F4F4"/>
<rect x="93" y="177" width="18" height="18" rx="5" fill="#F4F4F4"/>
<rect x="544" y="380" width="18" height="18" rx="5" fill="#F4F4F4"/>
<rect width="18" height="18" rx="5" transform="matrix(1 0 0 -1 26 205)" fill="#F4F4F4"/>
</svg>
