<svg width="1400" height="198" viewBox="0 0 1400 198" fill="none" xmlns="http://www.w3.org/2000/svg">
<path d="M25 90.03C25 81.7457 18.2843 75.03 10 75.03H0V197.47H1400V75.03H1390C1381.72 75.03 1375 68.3141 1375 60.0298V15.0002C1375 6.71588 1368.28 0 1360 0H1340C1331.72 0 1325 6.71593 1325 15.0002C1325 23.2845 1318.28 30.0002 1310 30.0002H1290C1281.72 30.0002 1275 36.716 1275 45.0002V91.0002C1275 99.2845 1268.28 106 1260 106H1239.98C1231.7 106.012 1225 112.723 1225 121V131C1225 139.284 1218.28 146 1210 146H1190C1181.72 146 1175 139.284 1175 131V108C1175 99.716 1168.28 93.0002 1160 93.0002H1140C1131.72 93.0002 1125 86.2845 1125 78.0002L1125 38.0002C1125 29.7159 1118.28 23.0002 1110 23.0002H1090C1081.72 23.0002 1075 29.716 1075 38.0002V54.0002C1075 62.2845 1068.28 69.0002 1060 69.0002H1039.97C1031.7 69.0167 1025 75.7262 1025 84.0002L1025 109.97C1025 118.255 1018.28 124.97 1010 124.97H990C981.716 124.97 975 131.686 975 139.97C975 148.255 968.284 154.97 960 154.97L940 154.97C931.716 154.97 925 148.254 925 139.97V57.0002C925 48.716 918.284 42.0002 910 42.0002H890C881.716 42.0002 875 48.716 875 57.0002V88.9324C875 97.2167 868.284 103.932 860 103.932L840 103.926C831.716 103.926 825 97.2099 825 88.9256V33.0002C825 24.7159 818.284 18.0002 810 18.0002H790C781.716 18.0002 775 24.716 775 33.0002V103C775 111.284 768.284 118 760 118H740C731.716 118 725.013 111.285 725.013 103C725.013 94.716 718.297 88.0002 710.013 88.0002H690C681.716 88.0002 675 81.2845 675 73.0002V38.0002C675 29.7159 668.284 23.0002 660 23.0002H640C631.716 23.0002 625 29.716 625 38.0002V90.0002C625 98.2845 618.284 105 610 105L590 105C581.716 105 575 111.716 575 120C575 128.285 568.284 135 560 135H540C531.716 135 525 128.285 525 120V18.0002C525 9.71596 518.284 3.00023 510 3.00023H490C481.716 3.00023 475 9.71595 475 18.0002V99.9853C475 108.27 468.284 114.985 460 114.985L440 114.985C431.716 114.985 425 108.269 425 99.9851V38.0002C425 29.7159 418.284 23.0002 410 23.0002H390C381.716 23.0002 375 29.716 375 38.0002L375 70.0002C375 78.2845 368.284 85.0002 360 85.0002H340C331.716 85.0002 325 91.716 325 100L325 114C325 122.284 318.284 129 310 129H290C281.716 129 275 122.284 275 114V18.0002C275 9.71596 268.284 3.00023 260 3.00023H240C231.716 3.00023 225 9.71595 225 18.0002V90.9404C225 99.2247 218.284 105.94 210 105.94H190C181.716 105.94 175 112.656 175 120.94V126C175 134.284 168.284 141 160 141L140 141C131.716 141 125 134.285 125 126V78.0002C125 69.716 118.284 63.0002 110 63.0002L90 63.0002C81.7157 63.0002 75 69.716 75 78.0002V99.9851C75 108.269 68.2843 114.985 60 114.985H40C31.7157 114.985 25 108.269 25 99.9851V90.03Z" fill="#F4F4F4"/>
<path d="M25 113.5C25 105.216 18.2843 98.5003 10 98.5003H0V197.47H1400V98.5003H1390C1381.72 98.5003 1375 91.7845 1375 83.5002V38.4705C1375 30.1862 1368.28 23.4703 1360 23.4703H1340C1331.72 23.4703 1325 30.1863 1325 38.4705C1325 46.7548 1318.28 53.4706 1310 53.4706H1290C1281.72 53.4706 1275 60.1863 1275 68.4706V114.471C1275 122.755 1268.28 129.471 1260 129.471H1239.98C1231.7 129.482 1225 136.194 1225 144.471V154.471C1225 162.755 1218.28 169.471 1210 169.471H1190C1181.72 169.471 1175 162.755 1175 154.471V131.471C1175 123.186 1168.28 116.471 1160 116.471H1140C1131.72 116.471 1125 109.755 1125 101.471L1125 61.4706C1125 53.1863 1118.28 46.4706 1110 46.4706H1090C1081.72 46.4706 1075 53.1863 1075 61.4706V77.4706C1075 85.7548 1068.28 92.4706 1060 92.4706H1039.97C1031.7 92.4871 1025 99.1965 1025 107.471L1025 133.441C1025 141.725 1018.28 148.441 1010 148.441H990C981.716 148.441 975 155.156 975 163.441C975 171.725 968.284 178.441 960 178.441L940 178.44C931.716 178.44 925 171.725 925 163.44V80.4706C925 72.1863 918.284 65.4706 910 65.4706H890C881.716 65.4706 875 72.1863 875 80.4706V112.403C875 120.687 868.284 127.403 860 127.403L840 127.396C831.716 127.396 825 120.68 825 112.396V56.4706C825 48.1863 818.284 41.4706 810 41.4706H790C781.716 41.4706 775 48.1863 775 56.4706V126.471C775 134.755 768.284 141.471 760 141.471H740C731.716 141.471 725.013 134.755 725.013 126.471C725.013 118.186 718.297 111.471 710.013 111.471H690C681.716 111.471 675 104.755 675 96.4706V61.4706C675 53.1863 668.284 46.4706 660 46.4706H640C631.716 46.4706 625 53.1863 625 61.4706V113.471C625 121.755 618.284 128.471 610 128.471L590 128.471C581.716 128.471 575 135.186 575 143.471C575 151.755 568.284 158.471 560 158.471H540C531.716 158.471 525 151.755 525 143.471V41.4706C525 33.1863 518.284 26.4706 510 26.4706H490C481.716 26.4706 475 33.1863 475 41.4706V123.456C475 131.74 468.284 138.456 460 138.456L440 138.455C431.716 138.455 425 131.74 425 123.455V61.4706C425 53.1863 418.284 46.4706 410 46.4706H390C381.716 46.4706 375 53.1863 375 61.4706L375 93.4706C375 101.755 368.284 108.471 360 108.471H340C331.716 108.471 325 115.186 325 123.471L325 137.471C325 145.755 318.284 152.471 310 152.471H290C281.716 152.471 275 145.755 275 137.471V41.4706C275 33.1863 268.284 26.4706 260 26.4706H240C231.716 26.4706 225 33.1863 225 41.4706V114.411C225 122.695 218.284 129.411 210 129.411H190C181.716 129.411 175 136.126 175 144.411V149.471C175 157.755 168.284 164.471 160 164.471L140 164.471C131.716 164.471 125 157.755 125 149.471V101.471C125 93.1863 118.284 86.4706 110 86.4706L90 86.4705C81.7157 86.4705 75 93.1863 75 101.471V123.455C75 131.74 68.2843 138.455 60 138.455H40C31.7157 138.455 25 131.74 25 123.455V113.5Z" fill="#262727"/>
</svg>
