<svg width="1400" height="198" viewBox="0 0 1400 198" fill="none" xmlns="http://www.w3.org/2000/svg">
<path d="M25 90.53C25 82.2457 18.2843 75.53 10 75.53H0V197.97H1400V75.53H1390C1381.72 75.53 1375 68.8141 1375 60.5298V15.5002C1375 7.21588 1368.28 0.5 1360 0.5H1340C1331.72 0.5 1325 7.21593 1325 15.5002C1325 23.7845 1318.28 30.5002 1310 30.5002H1290C1281.72 30.5002 1275 37.216 1275 45.5002V91.5002C1275 99.7845 1268.28 106.5 1260 106.5H1239.98C1231.7 106.512 1225 113.223 1225 121.5V131.5C1225 139.784 1218.28 146.5 1210 146.5H1190C1181.72 146.5 1175 139.784 1175 131.5V108.5C1175 100.216 1168.28 93.5002 1160 93.5002H1140C1131.72 93.5002 1125 86.7845 1125 78.5002L1125 38.5002C1125 30.2159 1118.28 23.5002 1110 23.5002H1090C1081.72 23.5002 1075 30.216 1075 38.5002V54.5002C1075 62.7845 1068.28 69.5002 1060 69.5002H1039.97C1031.7 69.5167 1025 76.2262 1025 84.5002L1025 110.47C1025 118.755 1018.28 125.47 1010 125.47H990C981.716 125.47 975 132.186 975 140.47C975 148.755 968.284 155.47 960 155.47L940 155.47C931.716 155.47 925 148.754 925 140.47V57.5002C925 49.216 918.284 42.5002 910 42.5002H890C881.716 42.5002 875 49.216 875 57.5002V89.4324C875 97.7167 868.284 104.432 860 104.432L840 104.426C831.716 104.426 825 97.7099 825 89.4256V33.5002C825 25.2159 818.284 18.5002 810 18.5002H790C781.716 18.5002 775 25.216 775 33.5002V103.5C775 111.784 768.284 118.5 760 118.5H740C731.716 118.5 725.013 111.785 725.013 103.5C725.013 95.216 718.297 88.5002 710.013 88.5002H690C681.716 88.5002 675 81.7845 675 73.5002V38.5002C675 30.2159 668.284 23.5002 660 23.5002H640C631.716 23.5002 625 30.216 625 38.5002V90.5002C625 98.7845 618.284 105.5 610 105.5L590 105.5C581.716 105.5 575 112.216 575 120.5C575 128.785 568.284 135.5 560 135.5H540C531.716 135.5 525 128.785 525 120.5V18.5002C525 10.216 518.284 3.50023 510 3.50023H490C481.716 3.50023 475 10.216 475 18.5002V100.485C475 108.77 468.284 115.485 460 115.485L440 115.485C431.716 115.485 425 108.769 425 100.485V38.5002C425 30.2159 418.284 23.5002 410 23.5002H390C381.716 23.5002 375 30.216 375 38.5002L375 70.5002C375 78.7845 368.284 85.5002 360 85.5002H340C331.716 85.5002 325 92.216 325 100.5L325 114.5C325 122.784 318.284 129.5 310 129.5H290C281.716 129.5 275 122.784 275 114.5V18.5002C275 10.216 268.284 3.50023 260 3.50023H240C231.716 3.50023 225 10.216 225 18.5002V91.4404C225 99.7247 218.284 106.44 210 106.44H190C181.716 106.44 175 113.156 175 121.44V126.5C175 134.784 168.284 141.5 160 141.5L140 141.5C131.716 141.5 125 134.785 125 126.5V78.5002C125 70.216 118.284 63.5002 110 63.5002L90 63.5002C81.7157 63.5002 75 70.216 75 78.5002V100.485C75 108.769 68.2843 115.485 60 115.485H40C31.7157 115.485 25 108.769 25 100.485V90.53Z" fill="#F4F4F4"/>
<path d="M25 114C25 105.716 18.2843 99.0003 10 99.0003H0V197.97H1400V99.0003H1390C1381.72 99.0003 1375 92.2845 1375 84.0002V38.9705C1375 30.6862 1368.28 23.9703 1360 23.9703H1340C1331.72 23.9703 1325 30.6863 1325 38.9705C1325 47.2548 1318.28 53.9706 1310 53.9706H1290C1281.72 53.9706 1275 60.6863 1275 68.9706V114.971C1275 123.255 1268.28 129.971 1260 129.971H1239.98C1231.7 129.982 1225 136.694 1225 144.971V154.971C1225 163.255 1218.28 169.971 1210 169.971H1190C1181.72 169.971 1175 163.255 1175 154.971V131.971C1175 123.686 1168.28 116.971 1160 116.971H1140C1131.72 116.971 1125 110.255 1125 101.971L1125 61.9706C1125 53.6863 1118.28 46.9706 1110 46.9706H1090C1081.72 46.9706 1075 53.6863 1075 61.9706V77.9706C1075 86.2548 1068.28 92.9706 1060 92.9706H1039.97C1031.7 92.9871 1025 99.6965 1025 107.971L1025 133.941C1025 142.225 1018.28 148.941 1010 148.941H990C981.716 148.941 975 155.656 975 163.941C975 172.225 968.284 178.941 960 178.941L940 178.94C931.716 178.94 925 172.225 925 163.94V80.9706C925 72.6863 918.284 65.9706 910 65.9706H890C881.716 65.9706 875 72.6863 875 80.9706V112.903C875 121.187 868.284 127.903 860 127.903L840 127.896C831.716 127.896 825 121.18 825 112.896V56.9706C825 48.6863 818.284 41.9706 810 41.9706H790C781.716 41.9706 775 48.6863 775 56.9706V126.971C775 135.255 768.284 141.971 760 141.971H740C731.716 141.971 725.013 135.255 725.013 126.971C725.013 118.686 718.297 111.971 710.013 111.971H690C681.716 111.971 675 105.255 675 96.9706V61.9706C675 53.6863 668.284 46.9706 660 46.9706H640C631.716 46.9706 625 53.6863 625 61.9706V113.971C625 122.255 618.284 128.971 610 128.971L590 128.971C581.716 128.971 575 135.686 575 143.971C575 152.255 568.284 158.971 560 158.971H540C531.716 158.971 525 152.255 525 143.971V41.9706C525 33.6863 518.284 26.9706 510 26.9706H490C481.716 26.9706 475 33.6863 475 41.9706V123.956C475 132.24 468.284 138.956 460 138.956L440 138.955C431.716 138.955 425 132.24 425 123.955V61.9706C425 53.6863 418.284 46.9706 410 46.9706H390C381.716 46.9706 375 53.6863 375 61.9706L375 93.9706C375 102.255 368.284 108.971 360 108.971H340C331.716 108.971 325 115.686 325 123.971L325 137.971C325 146.255 318.284 152.971 310 152.971H290C281.716 152.971 275 146.255 275 137.971V41.9706C275 33.6863 268.284 26.9706 260 26.9706H240C231.716 26.9706 225 33.6863 225 41.9706V114.911C225 123.195 218.284 129.911 210 129.911H190C181.716 129.911 175 136.626 175 144.911V149.971C175 158.255 168.284 164.971 160 164.971L140 164.971C131.716 164.971 125 158.255 125 149.971V101.971C125 93.6863 118.284 86.9706 110 86.9706L90 86.9705C81.7157 86.9705 75 93.6863 75 101.971V123.955C75 132.24 68.2843 138.955 60 138.955H40C31.7157 138.955 25 132.24 25 123.955V114Z" fill="#354DFC"/>
</svg>
