<svg width="1400" height="210" viewBox="0 0 1400 210" fill="none" xmlns="http://www.w3.org/2000/svg">
<path d="M0 46H35C43.2843 46 50 52.7157 50 61V201H0V46Z" fill="#ECECEC"/>
<path d="M50 129H100V201H50V129Z" fill="#ECECEC"/>
<path d="M100 85C100 76.7157 106.716 70 115 70H135C143.284 70 150 76.7157 150 85V201H100V85Z" fill="#ECECEC"/>
<path d="M150 159H200V201H150V159Z" fill="#ECECEC"/>
<path d="M200 136C200 127.716 206.716 121 215 121H250V201H200V136Z" fill="#ECECEC"/>
<path d="M350 112C350 103.716 356.716 97 365 97H400V201H350V112Z" fill="#ECECEC"/>
<path d="M400 38C400 29.7157 406.716 23 415 23H435C443.284 23 450 29.7157 450 38V201H400V38Z" fill="#ECECEC"/>
<path d="M450 129H500V201H450V129Z" fill="#ECECEC"/>
<path d="M500 15C500 6.71573 506.716 0 515 0H535C543.284 0 550 6.71573 550 15V201H500V15Z" fill="#ECECEC"/>
<path d="M550 153H600V201H550V153Z" fill="#ECECEC"/>
<path d="M600 140C600 131.716 606.716 125 615 125H650V201H600V140Z" fill="#ECECEC"/>
<path d="M650 38C650 29.7157 656.716 23 665 23H685C693.284 23 700 29.7157 700 38V201H650V38Z" fill="#ECECEC"/>
<path d="M700 97H735C743.284 97 750 103.716 750 112V201H700V97Z" fill="#ECECEC"/>
<path d="M750 129H800V201H750V129Z" fill="#ECECEC"/>
<path d="M800 32C800 23.7157 806.716 17 815 17H835C843.284 17 850 23.7157 850 32V201H800V32Z" fill="#ECECEC"/>
<path d="M850 111H900V201H850V111Z" fill="#ECECEC"/>
<path d="M900 61C900 52.7157 906.716 46 915 46H935C943.284 46 950 52.7157 950 61V201H900V61Z" fill="#ECECEC"/>
<path d="M950 176H1000V201H950V176Z" fill="#ECECEC"/>
<path d="M1000 160C1000 151.716 1006.72 145 1015 145H1050V201H1000V160Z" fill="#ECECEC"/>
<path d="M1050 93C1050 84.7157 1056.72 78 1065 78H1100V201H1050V93Z" fill="#ECECEC"/>
<path d="M1100 38C1100 29.7157 1106.72 23 1115 23H1135C1143.28 23 1150 29.7157 1150 38V201H1100V38Z" fill="#ECECEC"/>
<path d="M1150 98H1185C1193.28 98 1200 104.716 1200 113V201H1150V98Z" fill="#ECECEC"/>
<path d="M1200 166H1250V201H1200V166Z" fill="#ECECEC"/>
<path d="M1250 136C1250 127.716 1256.72 121 1265 121H1300V201H1250V136Z" fill="#ECECEC"/>
<path d="M1300 47C1300 38.7157 1306.72 32 1315 32H1350V201H1300V47Z" fill="#ECECEC"/>
<path d="M1350 18C1350 9.71573 1356.72 3 1365 3H1385C1393.28 3 1400 9.71573 1400 18V201H1350V18Z" fill="#ECECEC"/>
<path d="M300 145H350V201H300V145Z" fill="#ECECEC"/>
<path d="M250 15C250 6.71573 256.716 0 265 0H285C293.284 0 300 6.71573 300 15V201H250V15Z" fill="#ECECEC"/>
<path fillRule="evenodd" clipRule="evenodd" d="M50 114V129H65C56.7157 129 50 122.284 50 114Z" fill="#ECECEC"/>
<path fillRule="evenodd" clipRule="evenodd" d="M0 31V46H15C6.71573 46 0 39.2843 0 31Z" fill="#ECECEC"/>
<path fillRule="evenodd" clipRule="evenodd" d="M85 129H100V114C100 122.284 93.2843 129 85 129Z" fill="#ECECEC"/>
<path fillRule="evenodd" clipRule="evenodd" d="M185 159H200V144C200 152.284 193.284 159 185 159Z" fill="#ECECEC"/>
<path fillRule="evenodd" clipRule="evenodd" d="M235 121H250V106C250 114.284 243.284 121 235 121Z" fill="#ECECEC"/>
<path fillRule="evenodd" clipRule="evenodd" d="M335 145H350V130C350 138.284 343.284 145 335 145Z" fill="#ECECEC"/>
<path fillRule="evenodd" clipRule="evenodd" d="M385 97H400V82C400 90.2843 393.284 97 385 97Z" fill="#ECECEC"/>
<path fillRule="evenodd" clipRule="evenodd" d="M485 129H500V114C500 122.284 493.284 129 485 129Z" fill="#ECECEC"/>
<path fillRule="evenodd" clipRule="evenodd" d="M585 153H600V138C600 146.284 593.284 153 585 153Z" fill="#ECECEC"/>
<path fillRule="evenodd" clipRule="evenodd" d="M635 125H650V110C650 118.284 643.284 125 635 125Z" fill="#ECECEC"/>
<path fillRule="evenodd" clipRule="evenodd" d="M785 129H800V114C800 122.284 793.284 129 785 129Z" fill="#ECECEC"/>
<path fillRule="evenodd" clipRule="evenodd" d="M900 101V111.274H885C893.284 111.274 900 106.674 900 101Z" fill="#ECECEC"/>
<path fillRule="evenodd" clipRule="evenodd" d="M1035 145H1050V130C1050 138.284 1043.28 145 1035 145Z" fill="#ECECEC"/>
<path fillRule="evenodd" clipRule="evenodd" d="M1085 78H1100V63C1100 71.2843 1093.28 78 1085 78Z" fill="#ECECEC"/>
<path fillRule="evenodd" clipRule="evenodd" d="M1235 166.296H1250V151.296C1250 159.58 1243.28 166.296 1235 166.296Z" fill="#ECECEC"/>
<path fillRule="evenodd" clipRule="evenodd" d="M1285 121H1300V106C1300 114.284 1293.28 121 1285 121Z" fill="#ECECEC"/>
<path fillRule="evenodd" clipRule="evenodd" d="M1335 32H1350V17C1350 25.2843 1343.28 32 1335 32Z" fill="#ECECEC"/>
<path fillRule="evenodd" clipRule="evenodd" d="M150 144V159H165C156.716 159 150 152.284 150 144Z" fill="#ECECEC"/>
<path fillRule="evenodd" clipRule="evenodd" d="M300 130V145H315C306.716 145 300 138.284 300 130Z" fill="#ECECEC"/>
<path fillRule="evenodd" clipRule="evenodd" d="M450 114V129H465C456.716 129 450 122.284 450 114Z" fill="#ECECEC"/>
<path fillRule="evenodd" clipRule="evenodd" d="M550 138V153H565C556.716 153 550 146.284 550 138Z" fill="#ECECEC"/>
<path fillRule="evenodd" clipRule="evenodd" d="M750 114V129H765C756.716 129 750 122.284 750 114Z" fill="#ECECEC"/>
<path fillRule="evenodd" clipRule="evenodd" d="M700 82V97H715C706.716 97 700 90.2843 700 82Z" fill="#ECECEC"/>
<path fillRule="evenodd" clipRule="evenodd" d="M850 101V111.274H865C856.716 111.274 850 106.674 850 101Z" fill="#ECECEC"/>
<path fillRule="evenodd" clipRule="evenodd" d="M950 161V176H964.947C956.68 175.931 950 169.241 950 161Z" fill="#ECECEC"/>
<path fillRule="evenodd" clipRule="evenodd" d="M1000 161V176H985C993.284 176 1000 169.284 1000 161Z" fill="#ECECEC"/>
<path fillRule="evenodd" clipRule="evenodd" d="M1150 88V98H1164.98C1156.71 97.9932 1150 93.5187 1150 88Z" fill="#ECECEC"/>
<path fillRule="evenodd" clipRule="evenodd" d="M1200 151V166H1214.92C1206.67 165.958 1200 159.259 1200 151Z" fill="#ECECEC"/>
<path d="M0 91H40C45.5228 91 50 95.4772 50 101V210H0V91Z" fill="#354DFC"/>
<path d="M50 148.746H100V210H50V148.746Z" fill="#354DFC"/>
<path d="M100 113.552C100 105.268 106.716 98.5521 115 98.5521H135C143.284 98.5521 150 105.268 150 113.552V210H100V113.552Z" fill="#354DFC"/>
<path d="M150 174.269H200V210H150V174.269Z" fill="#354DFC"/>
<path d="M200 156.94C200 148.656 206.716 141.94 215 141.94H250V210H200V156.94Z" fill="#354DFC"/>
<path d="M350 136.522C350 128.238 356.716 121.522 365 121.522H400V210H350V136.522Z" fill="#354DFC"/>
<path d="M400 73.5673C400 65.283 406.716 58.5673 415 58.5673H435C443.284 58.5673 450 65.283 450 73.5673V210H400V73.5673Z" fill="#354DFC"/>
<path d="M450 148.746H500V210H450V148.746Z" fill="#354DFC"/>
<path d="M500 54C500 45.7157 506.716 39 515 39H535C543.284 39 550 45.7157 550 54V210H500V54Z" fill="#354DFC"/>
<path d="M550 169.164H600V210H550V169.164Z" fill="#354DFC"/>
<path d="M600 158C600 149.716 606.716 143 615 143H650V210H600V158Z" fill="#354DFC"/>
<path d="M650 73.5673C650 65.283 656.716 58.5673 665 58.5673H685C693.284 58.5673 700 65.283 700 73.5673V210H650V73.5673Z" fill="#354DFC"/>
<path d="M700 121.522H735C743.284 121.522 750 128.238 750 136.522V210H700V121.522Z" fill="#354DFC"/>
<path d="M750 148.746H800V210H750V148.746Z" fill="#354DFC"/>
<path d="M800 68.4627C800 60.1784 806.716 53.4626 815 53.4626H835C843.284 53.4626 850 60.1784 850 68.4626V210H800V68.4627Z" fill="#354DFC"/>
<path d="M850 133.433H900V210H850V133.433Z" fill="#354DFC"/>
<path d="M900 93.1342C900 84.8499 906.716 78.1342 915 78.1342H935C943.284 78.1342 950 84.8499 950 93.1342V210H900V93.1342Z" fill="#354DFC"/>
<path d="M950 188.731H1000V210H950V188.731Z" fill="#354DFC"/>
<path d="M1000 177.358C1000 169.074 1006.72 162.358 1015 162.358H1050V210H1000V177.358Z" fill="#354DFC"/>
<path d="M1050 120.358C1050 112.074 1056.72 105.358 1065 105.358H1100V210H1050V120.358Z" fill="#354DFC"/>
<path d="M1100 73.5673C1100 65.283 1106.72 58.5673 1115 58.5673H1135C1143.28 58.5673 1150 65.283 1150 73.5673V210H1100V73.5673Z" fill="#354DFC"/>
<path d="M1150 122.373H1185C1193.28 122.373 1200 129.089 1200 137.373V210H1150V122.373Z" fill="#354DFC"/>
<path d="M1200 180.224H1250V210H1200V180.224Z" fill="#354DFC"/>
<path d="M1250 156.94C1250 148.656 1256.72 141.94 1265 141.94H1300V210H1250V156.94Z" fill="#354DFC"/>
<path d="M1300 81.2239C1300 72.9396 1306.72 66.2239 1315 66.2239H1350V210H1300V81.2239Z" fill="#354DFC"/>
<path d="M1350 49C1350 40.7157 1356.72 34 1365 34H1385C1393.28 34 1400 40.7157 1400 49V210H1350V49Z" fill="#354DFC"/>
<path d="M300 162.358H350V210H300V162.358Z" fill="#354DFC"/>
<path d="M250 54C250 45.7157 256.716 39 265 39H285C293.284 39 300 45.7157 300 54V210H250V54Z" fill="#354DFC"/>
<path fillRule="evenodd" clipRule="evenodd" d="M50 135.985H50V148.746H65V148.746C56.7158 148.746 50.0001 143.033 50 135.985Z" fill="#354DFC"/>
<path fillRule="evenodd" clipRule="evenodd" d="M0.0437229 79H0V91H15V91C7.10398 91 0.632931 85.7124 0.0437229 79Z" fill="#354DFC"/>
<path fillRule="evenodd" clipRule="evenodd" d="M100 136.013C99.9825 143.048 93.2735 148.746 85 148.746C85 148.746 85 148.746 85 148.746V148.746H100V136.013Z" fill="#354DFC"/>
<path fillRule="evenodd" clipRule="evenodd" d="M200 161.507C200 168.555 193.284 174.269 185 174.269V174.269H200V161.507H200Z" fill="#354DFC"/>
<path fillRule="evenodd" clipRule="evenodd" d="M250 129.179C250 136.227 243.284 141.94 235 141.94V141.94H250V129.179H250Z" fill="#354DFC"/>
<path fillRule="evenodd" clipRule="evenodd" d="M350 149.597C350 156.645 343.284 162.358 335 162.358V162.358H350V149.597H350Z" fill="#354DFC"/>
<path fillRule="evenodd" clipRule="evenodd" d="M400 108.78C399.988 115.819 393.277 121.522 385 121.522C385 121.522 385 121.522 385 121.522V121.522H400V108.78Z" fill="#354DFC"/>
<path fillRule="evenodd" clipRule="evenodd" d="M500 135.985C500 143.033 493.284 148.746 485 148.746V148.746H500V135.985H500Z" fill="#354DFC"/>
<path fillRule="evenodd" clipRule="evenodd" d="M600 156.417C599.991 163.458 593.279 169.164 585 169.164C585 169.164 585 169.164 585 169.164V169.164H600V156.417Z" fill="#354DFC"/>
<path fillRule="evenodd" clipRule="evenodd" d="M650 130C650 137.18 643.284 143 635 143V143H650V130H650Z" fill="#354DFC"/>
<path fillRule="evenodd" clipRule="evenodd" d="M800 135.991C799.996 143.036 793.282 148.746 785 148.746ZM800 135.991V148.746H785L785 148.746" fill="#354DFC"/>
<path fillRule="evenodd" clipRule="evenodd" d="M900 124.932C899.993 129.756 893.28 133.666 885 133.666C885 133.666 885 133.666 885 133.666V133.666H900V124.932Z" fill="#354DFC"/>
<path fillRule="evenodd" clipRule="evenodd" d="M1050 149.597C1050 156.645 1043.28 162.358 1035 162.358V162.358H1050V149.597H1050Z" fill="#354DFC"/>
<path fillRule="evenodd" clipRule="evenodd" d="M1100 92.597C1100 99.6447 1093.28 105.358 1085 105.358V105.358H1100V92.597Z" fill="#354DFC"/>
<path fillRule="evenodd" clipRule="evenodd" d="M1250 167.714C1250 174.762 1243.28 180.475 1235 180.475V180.475H1250V167.714H1250Z" fill="#354DFC"/>
<path fillRule="evenodd" clipRule="evenodd" d="M1300 129.215C1299.98 136.246 1293.27 141.94 1285 141.94C1285 141.94 1285 141.94 1285 141.94V141.94H1300V129.215Z" fill="#354DFC"/>
<path fillRule="evenodd" clipRule="evenodd" d="M1350 53.4627C1350 60.5104 1343.28 66.2237 1335 66.2238V66.2239H1350V53.4627H1350Z" fill="#354DFC"/>
<path fillRule="evenodd" clipRule="evenodd" d="M150 161.507H150V174.269H164.95C156.689 174.246 150 168.541 150 161.508C150 161.507 150 161.507 150 161.507Z" fill="#354DFC"/>
<path fillRule="evenodd" clipRule="evenodd" d="M300 149.597H300V162.358H314.929C306.677 162.325 300 156.625 300 149.597C300 149.597 300 149.597 300 149.597Z" fill="#354DFC"/>
<path fillRule="evenodd" clipRule="evenodd" d="M450 135.985H450V148.746H464.973C456.701 148.734 450 143.025 450 135.985C450 135.985 450 135.985 450 135.985Z" fill="#354DFC"/>
<path fillRule="evenodd" clipRule="evenodd" d="M550 156.403H550V169.164H564.972C556.701 169.151 550 163.443 550 156.403C550 156.403 550 156.403 550 156.403Z" fill="#354DFC"/>
<path fillRule="evenodd" clipRule="evenodd" d="M750 135.985H750V148.746H765V148.746C756.716 148.746 750 143.033 750 135.985Z" fill="#354DFC"/>
<path fillRule="evenodd" clipRule="evenodd" d="M700 108.761V121.522H714.892C706.658 121.473 700 115.778 700 108.761Z" fill="#354DFC"/>
<path fillRule="evenodd" clipRule="evenodd" d="M850 124.925V133.666H865V133.666C856.716 133.666 850 129.753 850 124.925Z" fill="#354DFC"/>
<path fillRule="evenodd" clipRule="evenodd" d="M950 175.97V188.731H965.016C956.717 188.703 950 183.001 950 175.97Z" fill="#354DFC"/>
<path fillRule="evenodd" clipRule="evenodd" d="M1000 175.97H1000V188.731H985V188.731C993.284 188.731 1000 183.018 1000 175.97Z" fill="#354DFC"/>
<path fillRule="evenodd" clipRule="evenodd" d="M1150 113.866H1150V122.348H1164.93C1156.68 122.327 1150 118.537 1150 113.866C1150 113.866 1150 113.866 1150 113.866Z" fill="#354DFC"/>
<path fillRule="evenodd" clipRule="evenodd" d="M1200 167.463H1200V180.224H1214.95C1206.69 180.2 1200 174.496 1200 167.463C1200 167.463 1200 167.463 1200 167.463Z" fill="#354DFC"/>
</svg>
