<svg width="1288" height="840" viewBox="0 0 1288 840" fill="none" xmlns="http://www.w3.org/2000/svg">
<g clip-path="url(#clip0_1443_1756)" filter="url(#filter0_d_1443_1756)">
<rect width="1280" height="832" transform="translate(4)" fill="white"/>
<g clip-path="url(#clip1_1443_1756)">
<rect width="1440" height="1404" transform="translate(4 -572)" fill="white"/>
<path fill-rule="evenodd" clip-rule="evenodd" d="M213.636 93.9047C264.015 127.893 471.572 119.261 515.865 160.875C606.569 246.092 647.055 426.845 617.02 547.688C588.115 663.983 412.355 648.199 295.612 675.029C204.924 695.871 89.6376 752.245 27.2324 683.234C-38.1505 610.93 60.6832 499.514 49.3166 402.662C43.4152 352.379 -18.496 325.066 -20.739 274.485C-24.7865 183.213 -54.7949 44.0818 32.1773 16.1715C121.375 -12.4529 135.997 41.525 213.636 93.9047Z" fill="#F4F4F4"/>
<path fill-rule="evenodd" clip-rule="evenodd" d="M142.127 130.827C206.518 143.139 269.687 111.242 331.283 133.708C457.418 179.714 647.813 190.442 669.361 323.128C690.098 450.82 509.118 509.872 404.756 586.125C323.686 645.359 233.319 750.309 142.127 708.355C46.5839 664.399 97.2578 511.822 44.848 420.544C17.6378 373.154 -55.3523 372.368 -79.0613 323.128C-121.844 234.276 -210.697 108.966 -136.314 44.2979C-60.0278 -22.0254 42.8947 111.853 142.127 130.827Z" fill="url(#paint0_linear_1443_1756)"/>
<rect x="428.837" y="75.6348" width="28.5735" height="28.5735" rx="10" transform="rotate(-31.7043 428.837 75.6348)" fill="#F4F4F4"/>
<rect x="254.053" y="94.3909" width="23.4098" height="23.4098" rx="5" transform="rotate(-107.404 254.053 94.3909)" fill="#F4F4F4"/>
<rect x="123.763" y="53.7627" width="18.3849" height="18.3849" rx="5" transform="rotate(-45 123.763 53.7627)" fill="#F4F4F4"/>
<rect x="588.896" y="114.764" width="33.8849" height="33.8849" rx="10" transform="rotate(-26.1259 588.896 114.764)" fill="#F4F4F4"/>
<rect x="921.964" y="152.224" width="34.1371" height="34.1371" rx="10" transform="rotate(16.9705 921.964 152.224)" fill="#F4F4F4"/>
<rect x="1018.47" y="89.9692" width="36.0869" height="36.0869" rx="10" transform="rotate(-40.3091 1018.47 89.9692)" fill="#F4F4F4"/>
<rect x="748.482" y="157.199" width="38.918" height="38.918" rx="10" transform="rotate(15 748.482 157.199)" fill="#F4F4F4"/>
<rect x="820" y="629.81" width="33.8849" height="33.8849" rx="10" transform="rotate(-15.0694 820 629.81)" fill="#F4F4F4"/>
<rect x="946" y="684.894" width="33.8849" height="33.8849" rx="10" transform="rotate(-61.9115 946 684.894)" fill="#F4F4F4"/>
<rect x="850" y="726.401" width="27.9641" height="27.9641" rx="10" transform="rotate(-39.1669 850 726.401)" fill="#F4F4F4"/>
<rect x="786.14" y="718" width="35.1359" height="35.1359" rx="10" transform="rotate(33.0068 786.14 718)" fill="#F4F4F4"/>
<rect x="847.447" y="798.259" width="27.8412" height="27.8412" rx="10" transform="rotate(57.3709 847.447 798.259)" fill="#F4F4F4"/>
<rect x="1068.16" y="685" width="44.3484" height="44.3484" rx="10" transform="rotate(33.0068 1068.16 685)" fill="#F4F4F4"/>
<rect x="976.297" y="779.225" width="33.8849" height="33.8849" rx="10" transform="rotate(-29.9727 976.297 779.225)" fill="#F4F4F4"/>
<rect x="738" y="587.414" width="39.4038" height="39.4038" rx="10" transform="rotate(-26.2278 738 587.414)" fill="#F4F4F4"/>
<rect x="1135" y="759.501" width="39.3878" height="39.3878" rx="10" transform="rotate(-21.6025 1135 759.501)" fill="#F4F4F4"/>
<rect x="1218.19" y="819.757" width="39.3878" height="39.3878" rx="10" transform="rotate(48.3439 1218.19 819.757)" fill="#F4F4F4"/>
<rect x="1194.37" y="657.738" width="33.8849" height="33.8849" rx="10" transform="rotate(14.7555 1194.37 657.738)" fill="#F4F4F4"/>
</g>
</g>
<defs>
<filter id="filter0_d_1443_1756" x="0" y="0" width="1288" height="840" filterUnits="userSpaceOnUse" color-interpolation-filters="sRGB">
<feFlood flood-opacity="0" result="BackgroundImageFix"/>
<feColorMatrix in="SourceAlpha" type="matrix" values="0 0 0 0 0 0 0 0 0 0 0 0 0 0 0 0 0 0 127 0" result="hardAlpha"/>
<feOffset dy="4"/>
<feGaussianBlur stdDeviation="2"/>
<feComposite in2="hardAlpha" operator="out"/>
<feColorMatrix type="matrix" values="0 0 0 0 0 0 0 0 0 0 0 0 0 0 0 0 0 0 0.25 0"/>
<feBlend mode="normal" in2="BackgroundImageFix" result="effect1_dropShadow_1443_1756"/>
<feBlend mode="normal" in="SourceGraphic" in2="effect1_dropShadow_1443_1756" result="shape"/>
</filter>
<linearGradient id="paint0_linear_1443_1756" x1="253" y1="26" x2="253" y2="718" gradientUnits="userSpaceOnUse">
<stop stop-color="#8338EC"/>
<stop offset="1" stop-color="#4A2086"/>
</linearGradient>
<clipPath id="clip0_1443_1756">
<rect width="1280" height="832" fill="white" transform="translate(4)"/>
</clipPath>
<clipPath id="clip1_1443_1756">
<rect width="1440" height="1404" fill="white" transform="translate(4 -572)"/>
</clipPath>
</defs>
</svg>
