<svg width="1280" height="885" viewBox="0 0 1280 885" fill="none" xmlns="http://www.w3.org/2000/svg">
<g clipPath="url(#clip0_1443_1717)">
<rect width="1280" height="885" fill="white"/>
<path fillRule="evenodd" clipRule="evenodd" d="M1046.41 106.283C1154.79 97.1964 1283.81 -11.5801 1357.93 67.9739C1432.73 148.248 1304.27 269.706 1300.84 379.348C1297.65 481.516 1411.14 599.352 1339.05 671.849C1267 744.298 1148.45 629.41 1046.41 635.197C930.295 641.782 815.193 771.738 718.568 707.039C622.899 642.981 651.812 493.765 664.309 379.348C675.172 279.888 701.68 174.356 783.106 116.165C857.38 63.0863 955.425 113.911 1046.41 106.283Z" fill="#F4F4F4"/>
<path fillRule="evenodd" clipRule="evenodd" d="M1447.41 249.283C1555.79 240.196 1684.81 131.42 1758.93 210.974C1833.73 291.248 1705.27 412.706 1701.84 522.348C1698.65 624.516 1812.14 742.352 1740.05 814.849C1668 887.298 1549.45 772.41 1447.41 778.197C1331.29 784.782 1216.19 914.738 1119.57 850.039C1023.9 785.981 1052.81 636.765 1065.31 522.348C1076.17 422.888 1102.68 317.356 1184.11 259.165C1258.38 206.086 1356.43 256.911 1447.41 249.283Z" fill="#F4F4F4"/>
<path fillRule="evenodd" clipRule="evenodd" d="M1269.97 158.502C1369.1 209.747 1540.56 185.613 1561.55 295.198C1582.72 405.774 1404.81 441.233 1341.99 534.647C1283.45 621.694 1317.75 786.033 1215.54 809.697C1113.4 833.346 1073.1 668.808 981.288 618.159C876.806 560.521 795.716 570.867 747.076 461.914C698.918 354.04 656.98 214.16 730.288 121.545C794.013 41.0365 933.299 29.5504 1035.81 23.412C1129.31 17.8127 1186.76 115.483 1269.97 158.502Z" fill="url(#paint0_linear_1443_1717)"/>
<rect x="368.314" y="576.011" width="29.044" height="29.044" rx="10" transform="rotate(38.5036 368.314 576.011)" fill="#F4F4F4"/>
<rect x="494.477" y="533.045" width="35.5031" height="35.5031" rx="10" transform="rotate(15 494.477 533.045)" fill="#F4F4F4"/>
<rect x="479.602" y="619.275" width="35.5031" height="35.5031" rx="10" transform="rotate(32.5162 479.602 619.275)" fill="#F4F4F4"/>
<rect x="559.986" y="484.953" width="39.0406" height="39.0406" rx="10" transform="rotate(-41.0548 559.986 484.953)" fill="#F4F4F4"/>
<rect x="338.124" y="713.68" width="28.5735" height="28.5735" rx="10" transform="rotate(-31.7043 338.124 713.68)" fill="#F4F4F4"/>
<rect x="163.34" y="732.436" width="23.4098" height="23.4098" rx="5" transform="rotate(-107.404 163.34 732.436)" fill="#F4F4F4"/>
<rect x="33.0508" y="691.808" width="18.3849" height="18.3849" rx="5" transform="rotate(-45 33.0508 691.808)" fill="#F4F4F4"/>
<rect x="498.185" y="752.809" width="33.8849" height="33.8849" rx="10" transform="rotate(-26.1259 498.185 752.809)" fill="#F4F4F4"/>
<rect x="121.057" y="611.489" width="30.0427" height="30.0427" rx="10" transform="rotate(-150 121.057 611.489)" fill="#F4F4F4"/>
<rect x="236.035" y="685.901" width="30.2415" height="30.2415" rx="10" transform="rotate(-127.049 236.035 685.901)" fill="#F4F4F4"/>
<rect x="831.252" y="790.269" width="34.1371" height="34.1371" rx="10" transform="rotate(16.9705 831.252 790.269)" fill="#F4F4F4"/>
<rect x="927.754" y="728.014" width="36.0869" height="36.0869" rx="10" transform="rotate(-40.3091 927.754 728.014)" fill="#F4F4F4"/>
<rect x="657.77" y="795.244" width="38.918" height="38.918" rx="10" transform="rotate(15 657.77 795.244)" fill="#F4F4F4"/>
<rect x="586.287" y="632.447" width="40.4072" height="40.4072" rx="10" transform="rotate(-89.0967 586.287 632.447)" fill="#F4F4F4"/>
<rect x="67.0898" y="70.3328" width="31.4585" height="31.4585" rx="10" transform="rotate(-15 67.0898 70.3328)" fill="#F4F4F4"/>
<rect x="162.273" y="30.801" width="33.8849" height="33.8849" rx="10" transform="rotate(-15 162.273 30.801)" fill="#F4F4F4"/>
<rect x="260.822" y="66.6372" width="33.8849" height="33.8849" rx="10" transform="rotate(30 260.822 66.6372)" fill="#F4F4F4"/>
<rect y="182.451" width="32.7054" height="32.7054" rx="10" transform="rotate(-37.1567 0 182.451)" fill="#F4F4F4"/>
<rect x="452.287" y="73.8011" width="31.0532" height="31.0532" rx="10" transform="rotate(-37.1567 452.287 73.8011)" fill="#F4F4F4"/>
<rect x="355.427" y="59.7079" width="35.1013" height="35.1013" rx="10" transform="rotate(-30 355.427 59.7079)" fill="#F4F4F4"/>
<rect x="289.287" y="36.4628" width="24.2438" height="24.2438" rx="10" transform="rotate(-75 289.287 36.4628)" fill="#F4F4F4"/>
</g>
<defs>
<linearGradient id="paint0_linear_1443_1717" x1="1217.29" y1="78.045" x2="1202.29" y2="875.545" gradientUnits="userSpaceOnUse">
<stop stop-color="#FFBB00"/>
<stop offset="1" stop-color="#DF7B05"/>
</linearGradient>
<clipPath id="clip0_1443_1717">
<rect width="1280" height="885" fill="white"/>
</clipPath>
</defs>
</svg>
