<svg width="424" height="395" viewBox="0 0 424 395" fill="none" xmlns="http://www.w3.org/2000/svg">
<g clipPath="url(#clip0_1243_1864)">
<path d="M285.551 280.02H133.586C120.813 280.02 110.421 269.628 110.421 256.855V104.89C110.421 92.1165 120.813 81.7246 133.586 81.7246H285.551C298.325 81.7246 308.717 92.1165 308.717 104.89V256.855C308.717 269.628 298.325 280.02 285.551 280.02ZM133.586 85.4311C122.839 85.4311 114.127 94.1431 114.127 104.89V256.855C114.127 267.602 122.839 276.314 133.586 276.314H240.034C275.919 276.314 305.01 247.223 305.01 211.338V104.89C305.01 94.1431 296.298 85.4311 285.551 85.4311L133.586 85.4311Z" fill="#F2F2F2"/>
<path d="M149.97 101.234C142.777 101.234 136.926 107.085 136.926 114.277V134.693C136.926 141.885 142.777 147.736 149.97 147.736H170.385C177.578 147.736 183.429 141.885 183.429 134.693V114.277C183.429 107.085 177.578 101.234 170.385 101.234H149.97Z" fill="#F2F2F2"/>
<path d="M149.97 158.707C142.777 158.707 136.926 164.558 136.926 171.75V192.166C136.926 199.359 142.777 205.21 149.97 205.21H170.385C177.578 205.21 183.429 199.359 183.429 192.166V171.75C183.429 164.558 177.578 158.707 170.385 158.707H149.97Z" fill="#F2F2F2"/>
<path d="M149.97 216.18C142.777 216.18 136.926 222.031 136.926 229.224V249.639C136.926 256.832 142.777 262.683 149.97 262.683H170.385C177.578 262.683 183.429 256.832 183.429 249.639V229.224C183.429 222.031 177.578 216.18 170.385 216.18H149.97Z" fill="#F2F2F2"/>
<path d="M163.508 51.4238C154.445 51.4238 147.073 58.7963 147.073 67.8589V93.5834C147.073 102.646 154.445 110.018 163.508 110.018H189.232C198.295 110.018 205.667 102.646 205.667 93.5834V67.8589C205.667 58.7963 198.295 51.4238 189.232 51.4238H163.508Z" fill="#354DFC"/>
<path d="M248.2 123.313C239.137 123.313 231.765 130.685 231.765 139.748V165.473C231.765 174.535 239.137 181.908 248.2 181.908H273.924C282.987 181.908 290.359 174.535 290.359 165.473V139.748C290.359 130.685 282.987 123.313 273.924 123.313H248.2Z" fill="#354DFC"/>
<path d="M211.38 382.24L206.154 382.196L203.841 361.569L211.554 361.634L211.38 382.24Z" fill="#A0616A"/>
<path d="M194.641 390.55C194.629 391.837 195.666 392.895 196.957 392.907L207.348 392.994L209.167 389.307L209.835 393.013L213.755 393.048L212.765 379.831L211.401 379.74L205.838 379.357L204.043 379.236L204.011 382.976L195.665 388.637C195.029 389.069 194.647 389.783 194.641 390.55Z" fill="#2F2E41"/>
<path d="M237.969 382.24L232.743 382.196L230.43 361.569L238.143 361.634L237.969 382.24Z" fill="#A0616A"/>
<path d="M221.23 390.55C221.218 391.837 222.255 392.895 223.546 392.907L233.937 392.994L235.756 389.307L236.424 393.013L240.344 393.048L239.354 379.831L237.99 379.74L232.427 379.357L230.632 379.236L230.6 382.976L222.253 388.637C221.618 389.069 221.236 389.783 221.23 390.55Z" fill="#2F2E41"/>
<path d="M190.873 215.469L212.056 216.138L232.124 220.597C232.124 220.597 230.118 223.05 236.807 229.74C236.807 229.74 245.726 245.348 239.483 260.511L236.807 321.163C236.807 321.163 244.609 363.918 238.648 377.525L230.77 378.018L217.439 321.656L210.941 260.957L207.819 320.717C207.819 320.717 219.762 361.735 212.221 378.018L203.688 377.526L189.089 320.717C189.089 320.717 182.845 255.16 183.737 242.673C184.629 230.186 190.873 215.469 190.873 215.469Z" fill="#2F2E41"/>
<path d="M262.011 119.63C259.115 120.38 257.376 123.336 258.125 126.231C258.469 127.558 259.279 128.638 260.33 129.351L260.33 129.358L259.919 139.309L267.534 142.832L268.142 127.521L268.089 127.522C268.749 126.346 268.977 124.925 268.612 123.516C267.862 120.62 264.907 118.88 262.011 119.63Z" fill="#A0616A"/>
<path d="M219.453 155.142C217.854 153.557 216.926 151.407 216.891 149.07C216.844 145.934 218.416 143.087 221.095 141.456C224.18 139.577 228.037 139.767 230.923 141.94L254.834 159.943L259.094 134.008L268.241 136.952L266.059 170.724C265.906 173.086 264.571 175.167 262.487 176.29C260.404 177.414 257.932 177.385 255.874 176.215L221.319 156.555C220.625 156.16 220 155.684 219.453 155.142Z" fill="#3F3D56"/>
<path d="M182.993 105.124C184.522 107.695 183.677 111.019 181.105 112.547C179.927 113.247 178.592 113.444 177.343 113.21L177.338 113.215L170.624 120.571L162.736 117.712L173.085 106.411L173.121 106.449C173.48 105.149 174.319 103.979 175.57 103.235C178.141 101.707 181.465 102.552 182.993 105.124Z" fill="#A0616A"/>
<path d="M185.893 159.995L147.513 149.628C145.228 149.011 143.452 147.29 142.763 145.025C142.075 142.76 142.592 140.343 144.146 138.558L166.373 113.039L174.942 117.388L159.708 138.805L189.364 142.855C192.942 143.344 195.816 145.925 196.684 149.431C197.437 152.475 196.549 155.603 194.308 157.797C192.638 159.433 190.465 160.306 188.213 160.306C187.444 160.306 186.664 160.204 185.893 159.995Z" fill="#3F3D56"/>
<path d="M240.612 224.392L186.941 226.854C185.467 224.615 185.866 221.249 187.93 217.034C195.725 201.12 189.805 171.014 185.823 155.338C184.706 150.939 187.705 146.567 192.221 146.115L197.281 145.609L201.959 131.33H218.342L225.138 139.094L236.673 146.101C234.573 167.727 225.627 198.264 238.372 213.579C241.159 216.928 241.949 220.55 240.612 224.392Z" fill="#3F3D56"/>
<path d="M208.067 131.66C216.88 131.66 224.024 124.515 224.024 115.702C224.024 106.889 216.88 99.7451 208.067 99.7451C199.254 99.7451 192.109 106.889 192.109 115.702C192.109 124.515 199.254 131.66 208.067 131.66Z" fill="#A0616A"/>
<path d="M226.124 105.488C228.344 97.3935 204.147 90.4524 199.444 96.9708C198.79 96.0441 196.374 95.4812 195.265 95.7654C194.157 96.0497 193.224 96.7604 192.315 97.4484C191.064 98.4093 189.767 99.4043 189 100.786C188.227 102.162 188.107 104.038 189.148 105.232C189.972 106.181 191.421 111.227 192.66 111.477C193.524 111.653 194.252 111.796 194.878 111.898C195.435 111.085 196.856 110.064 196.753 109.08C197.595 109.637 197.287 110.618 197.118 111.619C196.553 114.956 183.825 140.781 191.115 133.171C191.837 133.598 192.73 133.996 193.759 134.359C195.504 131.727 196.937 128.623 197.881 125.376L197.887 125.436C198.212 128.257 200.274 130.572 203.002 131.363C213.944 134.533 222.796 129.881 225.84 121.493C224.726 119.23 224.24 119.476 224.34 119.408C225.731 118.47 227.644 119.084 228.242 120.652C228.418 121.114 228.578 121.508 228.717 121.805C230.304 116.131 232.19 116.95 226.124 105.488Z" fill="#2F2E41"/>
<path d="M218.575 99.6152L217.457 93.9009C217.363 93.4205 217.274 92.8993 217.491 92.4604C217.769 91.8964 218.484 91.6627 219.107 91.7526C219.729 91.8425 220.195 92.411 220.814 92.5205C222.967 92.9012 225.813 90.7744 226.585 96.1546C226.906 98.3979 230.486 98.6348 231.681 100.56C232.877 102.485 233.023 105.264 231.392 106.837C230.089 108.093 227.996 108.238 226.304 107.596C224.612 106.955 223.254 105.659 222.067 104.292C220.881 102.925 219.807 101.446 218.438 100.261" fill="#2F2E41"/>
<path d="M226.976 108.307C222.61 107.697 219.633 106.109 218.13 103.587C216.162 100.286 217.48 96.6517 217.537 96.4985L218.46 96.8416C218.448 96.875 217.253 100.202 218.981 103.091C220.326 105.339 223.062 106.765 227.112 107.331L226.976 108.307Z" fill="#6C63FF"/>
<path d="M247.467 46.5626C234.63 46.5626 224.186 36.1179 224.186 23.2813C224.186 10.4448 234.63 0 247.467 0C260.303 0 270.748 10.4448 270.748 23.2813C270.748 36.1179 260.303 46.5626 247.467 46.5626ZM247.467 9.31253C239.764 9.31253 233.498 15.5785 233.498 23.2813C233.498 30.9842 239.764 37.2501 247.467 37.2501C255.17 37.2501 261.436 30.9842 261.436 23.2813C261.436 15.5785 255.17 9.31253 247.467 9.31253Z" fill="#354DFC"/>
<path d="M283.287 62.3846C282.145 62.3846 281.002 61.9685 280.103 61.125L258.252 40.647C256.374 38.8895 256.279 35.943 258.039 34.0673C259.794 32.1848 262.74 32.0916 264.618 33.8536L286.469 54.3316C288.347 56.089 288.443 59.0356 286.683 60.9113C285.767 61.8912 284.528 62.3846 283.287 62.3846Z" fill="#354DFC"/>
<path d="M382.044 381.718C383.627 381.817 384.502 379.85 383.304 378.703L383.185 378.23C383.201 378.192 383.217 378.154 383.232 378.116C384.833 374.298 390.259 374.325 391.847 378.148C393.256 381.541 395.05 384.94 395.491 388.528C395.689 390.112 395.6 391.726 395.249 393.28C398.55 386.068 400.287 378.194 400.287 370.275C400.287 368.285 400.178 366.295 399.956 364.31C399.772 362.687 399.52 361.074 399.193 359.475C397.426 350.833 393.6 342.602 388.082 335.727C385.429 334.277 383.216 332.01 381.88 329.293C381.4 328.313 381.024 327.259 380.846 326.185C381.148 326.224 381.984 321.626 381.756 321.344C382.177 320.706 382.93 320.388 383.39 319.765C385.675 316.667 388.824 317.208 390.468 321.418C393.979 323.191 394.013 326.13 391.858 328.956C390.488 330.755 390.299 333.188 389.096 335.113C389.22 335.272 389.349 335.425 389.473 335.584C391.742 338.494 393.704 341.622 395.359 344.909C394.891 341.256 395.581 336.856 396.758 334.02C398.098 330.788 400.609 328.066 402.82 325.272C405.476 321.916 410.923 323.381 411.391 327.635C411.395 327.676 411.399 327.717 411.404 327.759C411.075 327.944 410.754 328.141 410.439 328.349C408.647 329.534 409.266 332.313 411.39 332.641L411.438 332.649C411.32 333.832 411.117 335.005 410.82 336.158C413.656 347.128 407.532 351.124 398.788 351.303C398.595 351.402 398.406 351.501 398.213 351.595C399.099 354.09 399.807 356.649 400.332 359.242C400.802 361.534 401.129 363.85 401.312 366.176C401.539 369.111 401.52 372.061 401.272 374.991L401.287 374.888C401.916 371.66 403.668 368.646 406.212 366.558C410.002 363.444 415.356 362.298 419.445 359.795C421.413 358.591 423.935 360.148 423.591 362.429L423.575 362.539C422.966 362.786 422.372 363.073 421.798 363.395C421.469 363.58 421.147 363.777 420.833 363.985C419.04 365.17 419.66 367.95 421.784 368.277L421.832 368.285C421.867 368.29 421.897 368.295 421.931 368.3C420.887 370.779 419.432 373.081 417.61 375.066C415.837 384.642 408.219 385.551 400.069 382.762H400.065C399.174 386.643 397.872 390.434 396.199 394.047H382.39C382.34 393.894 382.296 393.735 382.251 393.582C383.528 393.661 384.815 393.587 386.072 393.354C385.048 392.097 384.023 390.83 382.999 389.573C382.974 389.548 382.954 389.523 382.934 389.498C382.415 388.855 381.89 388.216 381.37 387.573L381.37 387.572C381.338 385.597 381.575 383.628 382.044 381.718Z" fill="#F2F2F2"/>
<path d="M0 394.088C0 394.594 0.406166 395 0.911952 395H422.603C423.109 395 423.515 394.594 423.515 394.088C423.515 393.582 423.109 393.176 422.603 393.176H0.911952C0.406166 393.176 0 393.582 0 394.088Z" fill="#CCCCCC"/>
</g>
<defs>
<clipPath id="clip0_1243_1864">
<rect width="423.623" height="395" fill="white"/>
</clipPath>
</defs>
</svg>
