<svg width="541" height="281" viewBox="0 0 541 281" fill="none" xmlns="http://www.w3.org/2000/svg">
<rect width="541" height="281" fill="#FCFCFC"/>
<path d="M263.779 164.32V155.751H238.986V141.066H260.08V133.32H228V164.32H263.779Z" fill="#E3E3E3"/>
<path d="M228 119.32H263.742V111H228V119.32Z" fill="#E3E3E3"/>
<path d="M270.188 133.32H281.173V126.32V119.32H270.188V111H281.174V135.429L286.044 128.761L299.631 111H313.107L294.172 134.595L313.62 164.32H300.62L286.897 142.792L281.174 148.945V164.32H270.188V133.32Z" fill="#E3E3E3"/>
<path d="M280.173 133.32H283.173V135.32H280.173V133.32Z" fill="#E3E3E3"/>
<path d="M253.098 95.5469H249.987C249.93 95.1444 249.814 94.7869 249.639 94.4744C249.464 94.1572 249.239 93.8873 248.964 93.6648C248.69 93.4422 248.373 93.2718 248.013 93.1534C247.658 93.035 247.272 92.9759 246.855 92.9759C246.102 92.9759 245.446 93.1629 244.888 93.5369C244.329 93.9062 243.896 94.446 243.588 95.1562C243.28 95.8617 243.126 96.7187 243.126 97.7273C243.126 98.7642 243.28 99.6354 243.588 100.341C243.901 101.046 244.336 101.579 244.895 101.939C245.454 102.299 246.1 102.479 246.834 102.479C247.246 102.479 247.627 102.424 247.977 102.315C248.332 102.206 248.647 102.048 248.922 101.839C249.196 101.626 249.424 101.368 249.604 101.065C249.788 100.762 249.916 100.417 249.987 100.028L253.098 100.043C253.018 100.71 252.816 101.354 252.494 101.974C252.177 102.59 251.749 103.142 251.209 103.629C250.674 104.112 250.035 104.496 249.291 104.78C248.553 105.059 247.717 105.199 246.784 105.199C245.487 105.199 244.327 104.905 243.304 104.318C242.286 103.731 241.481 102.881 240.889 101.768C240.302 100.656 240.009 99.3087 240.009 97.7273C240.009 96.1411 240.307 94.7917 240.903 93.679C241.5 92.5663 242.31 91.7187 243.332 91.1364C244.355 90.5492 245.506 90.2557 246.784 90.2557C247.627 90.2557 248.408 90.3741 249.128 90.6108C249.852 90.8475 250.494 91.1932 251.053 91.6477C251.611 92.0975 252.066 92.6491 252.416 93.3026C252.771 93.956 252.999 94.7041 253.098 95.5469ZM255.303 105V90.4545H258.379V96.8679H258.57L263.805 90.4545H267.491L262.093 96.9673L267.555 105H263.876L259.891 99.0199L258.379 100.866V105H255.303ZM268.936 105V103.175L276.195 92.9901H268.922V90.4545H280.058V92.2798L272.793 102.464H280.072V105H268.936ZM285.507 90.4545V105H282.432V90.4545H285.507ZM297.022 90.4545H300.097V99.9006C300.097 100.961 299.844 101.889 299.337 102.685C298.835 103.48 298.132 104.1 297.228 104.545C296.324 104.986 295.27 105.206 294.067 105.206C292.86 105.206 291.804 104.986 290.9 104.545C289.996 104.1 289.292 103.48 288.79 102.685C288.289 101.889 288.038 100.961 288.038 99.9006V90.4545H291.113V99.6378C291.113 100.192 291.234 100.684 291.475 101.115C291.721 101.546 292.067 101.884 292.512 102.131C292.957 102.377 293.476 102.5 294.067 102.5C294.664 102.5 295.183 102.377 295.623 102.131C296.068 101.884 296.411 101.546 296.653 101.115C296.899 100.684 297.022 100.192 297.022 99.6378V90.4545Z" fill="#E3E3E3"/>
<path d="M212.517 190V172.545H224.278V175.588H216.207V179.747H223.673V182.79H216.207V186.957H224.312V190H212.517ZM230.775 172.545V190H227.144V172.545H230.775ZM239.649 190.256C238.303 190.256 237.143 189.983 236.172 189.438C235.206 188.886 234.462 188.108 233.939 187.102C233.416 186.091 233.155 184.895 233.155 183.514C233.155 182.168 233.416 180.986 233.939 179.969C234.462 178.952 235.197 178.159 236.146 177.591C237.101 177.023 238.22 176.739 239.504 176.739C240.368 176.739 241.172 176.878 241.916 177.156C242.666 177.429 243.32 177.841 243.876 178.392C244.439 178.943 244.876 179.636 245.189 180.472C245.501 181.301 245.658 182.273 245.658 183.386V184.384H234.604V182.134H242.24C242.24 181.611 242.126 181.148 241.899 180.744C241.672 180.341 241.357 180.026 240.953 179.798C240.555 179.565 240.092 179.449 239.564 179.449C239.013 179.449 238.524 179.577 238.098 179.832C237.678 180.082 237.348 180.42 237.109 180.847C236.871 181.267 236.749 181.736 236.743 182.253V184.392C236.743 185.04 236.862 185.599 237.101 186.071C237.345 186.543 237.689 186.906 238.132 187.162C238.575 187.418 239.101 187.545 239.709 187.545C240.112 187.545 240.482 187.489 240.817 187.375C241.152 187.261 241.439 187.091 241.678 186.864C241.916 186.636 242.098 186.358 242.223 186.028L245.581 186.25C245.411 187.057 245.061 187.761 244.533 188.364C244.01 188.96 243.334 189.426 242.504 189.761C241.68 190.091 240.729 190.256 239.649 190.256ZM251.317 186.233L251.325 181.878H251.854L256.047 176.909H260.214L254.581 183.489H253.72L251.317 186.233ZM248.027 190V172.545H251.658V190H248.027ZM256.209 190L252.357 184.298L254.777 181.733L260.462 190H256.209ZM268.959 176.909V179.636H261.075V176.909H268.959ZM262.865 173.773H266.496V185.977C266.496 186.312 266.547 186.574 266.649 186.761C266.751 186.943 266.893 187.071 267.075 187.145C267.263 187.219 267.479 187.256 267.723 187.256C267.893 187.256 268.064 187.241 268.234 187.213C268.405 187.179 268.536 187.153 268.626 187.136L269.197 189.838C269.016 189.895 268.76 189.96 268.43 190.034C268.101 190.114 267.7 190.162 267.229 190.179C266.354 190.213 265.587 190.097 264.928 189.83C264.274 189.562 263.766 189.148 263.402 188.585C263.038 188.023 262.859 187.312 262.865 186.455V173.773ZM271.324 190V176.909H274.844V179.193H274.98C275.219 178.381 275.619 177.767 276.182 177.352C276.744 176.932 277.392 176.722 278.125 176.722C278.307 176.722 278.503 176.733 278.713 176.756C278.923 176.778 279.108 176.81 279.267 176.849V180.071C279.097 180.02 278.861 179.974 278.56 179.935C278.259 179.895 277.983 179.875 277.733 179.875C277.199 179.875 276.722 179.991 276.301 180.224C275.886 180.452 275.557 180.77 275.312 181.179C275.074 181.588 274.955 182.06 274.955 182.594V190H271.324ZM286.45 190.256C285.126 190.256 283.981 189.974 283.015 189.412C282.055 188.844 281.313 188.054 280.79 187.043C280.268 186.026 280.006 184.847 280.006 183.506C280.006 182.153 280.268 180.972 280.79 179.96C281.313 178.943 282.055 178.153 283.015 177.591C283.981 177.023 285.126 176.739 286.45 176.739C287.773 176.739 288.915 177.023 289.876 177.591C290.842 178.153 291.586 178.943 292.109 179.96C292.631 180.972 292.893 182.153 292.893 183.506C292.893 184.847 292.631 186.026 292.109 187.043C291.586 188.054 290.842 188.844 289.876 189.412C288.915 189.974 287.773 190.256 286.45 190.256ZM286.467 187.443C287.069 187.443 287.572 187.273 287.975 186.932C288.379 186.585 288.683 186.114 288.887 185.517C289.097 184.92 289.202 184.241 289.202 183.48C289.202 182.719 289.097 182.04 288.887 181.443C288.683 180.847 288.379 180.375 287.975 180.028C287.572 179.682 287.069 179.509 286.467 179.509C285.859 179.509 285.347 179.682 284.933 180.028C284.523 180.375 284.214 180.847 284.004 181.443C283.799 182.04 283.697 182.719 283.697 183.48C283.697 184.241 283.799 184.92 284.004 185.517C284.214 186.114 284.523 186.585 284.933 186.932C285.347 187.273 285.859 187.443 286.467 187.443ZM298.884 182.432V190H295.254V176.909H298.714V179.219H298.867C299.157 178.457 299.643 177.855 300.325 177.412C301.006 176.963 301.833 176.739 302.805 176.739C303.714 176.739 304.506 176.938 305.183 177.335C305.859 177.733 306.384 178.301 306.759 179.04C307.134 179.773 307.322 180.648 307.322 181.665V190H303.691V182.312C303.697 181.511 303.492 180.886 303.077 180.438C302.663 179.983 302.092 179.756 301.364 179.756C300.876 179.756 300.444 179.861 300.069 180.071C299.7 180.281 299.41 180.588 299.2 180.991C298.995 181.389 298.89 181.869 298.884 182.432ZM310.183 190V176.909H313.814V190H310.183ZM312.007 175.222C311.467 175.222 311.004 175.043 310.618 174.685C310.237 174.321 310.047 173.886 310.047 173.381C310.047 172.881 310.237 172.452 310.618 172.094C311.004 171.73 311.467 171.548 312.007 171.548C312.547 171.548 313.007 171.73 313.388 172.094C313.774 172.452 313.967 172.881 313.967 173.381C313.967 173.886 313.774 174.321 313.388 174.685C313.007 175.043 312.547 175.222 312.007 175.222ZM320.012 186.233L320.021 181.878H320.549L324.742 176.909H328.91L323.276 183.489H322.415L320.012 186.233ZM316.722 190V172.545H320.353V190H316.722ZM324.904 190L321.052 184.298L323.472 181.733L329.157 190H324.904Z" fill="#E3E3E3"/>
</svg>
