<svg width="178" height="242" viewBox="0 0 178 242" fill="none" xmlns="http://www.w3.org/2000/svg">
<rect width="178" height="242" fill="#FCFCFC"/>
<g clip-path="url(#clip0_1704_2016)">
<path d="M90.4675 116.057C105.169 116.057 117.086 104.14 117.086 89.4384C117.086 74.7372 105.169 62.8196 90.4675 62.8196C75.7663 62.8196 63.8486 74.7372 63.8486 89.4384C63.8486 104.14 75.7663 116.057 90.4675 116.057Z" fill="#FFB6B6"/>
<path d="M75.1859 119.994L73.9833 107.837L97.9979 103.347L112.178 137.873L87.5167 166.234L69.9453 131.708L75.1859 119.994Z" fill="#FFB6B6"/>
<path d="M73.5985 113.922L78.8487 115.108C78.8487 115.108 74.7215 102.021 76.1223 100.771C77.5232 99.522 80.956 101.491 80.956 101.491L84.5634 105.535L88.9575 101.062C88.9575 101.062 93.728 95.1297 95.5958 93.4638C97.4636 91.7978 94.4635 85.6141 94.4635 85.6141C94.4635 85.6141 122.174 78.1418 111.863 64.7011C111.863 64.7011 105.818 54.163 103.849 57.5959C101.88 61.0287 99.5327 55.5766 99.5327 55.5766L92.3642 56.9398C92.3642 56.9398 78.2163 48.5979 64.7884 66.4437C51.3604 84.2895 73.5985 113.922 73.5985 113.922Z" fill="#2F2E41"/>
<path d="M140.53 154.797C125.983 166.591 107.986 173 88.9998 173C71.6626 173 55.1486 167.655 41.335 157.747C41.3596 157.488 41.3843 157.232 41.4059 156.976C41.7727 152.969 42.0995 149.072 42.3153 145.841C43.1507 133.298 72.4148 124.937 72.4148 124.937C72.4148 124.937 72.5474 125.07 72.8125 125.301C74.4278 126.719 80.9847 131.861 92.4832 133.298C102.736 134.58 106.112 128.498 107.132 125.585C107.441 124.697 107.533 124.102 107.533 124.102L137.633 138.316C139.596 141.122 140.364 147.164 140.515 153.955C140.521 154.236 140.527 154.513 140.53 154.797Z" fill="#354DFC"/>
</g>
<defs>
<clipPath id="clip0_1704_2016">
<rect width="164" height="164" fill="white" transform="translate(7 9)"/>
</clipPath>
</defs>
</svg>
