<svg width="178" height="242" viewBox="0 0 178 242" fill="none" xmlns="http://www.w3.org/2000/svg">
<rect width="178" height="242" fill="#FCFCFC"/>
<path d="M123.894 125.85H82.8936V70.3613L118.345 89.7824L123.894 125.85Z" fill="#2F2E41"/>
<path d="M90.4675 116.057C105.169 116.057 117.086 104.139 117.086 89.4377C117.086 74.7365 105.169 62.8188 90.4675 62.8188C75.7663 62.8188 63.8486 74.7365 63.8486 89.4377C63.8486 104.139 75.7663 116.057 90.4675 116.057Z" fill="#FFB6B6"/>
<path d="M75.1859 119.993L73.9833 107.837L97.9979 103.346L112.178 137.873L87.5167 166.233L69.9453 131.707L75.1859 119.993Z" fill="#FFB6B6"/>
<path d="M147.892 148.058C147.593 148.369 147.288 148.677 146.982 148.983C146.014 149.951 145.028 150.891 144.02 151.803C128.915 165.503 109.534 173 88.9997 173C70.0688 173 52.1182 166.628 37.5956 154.898C37.5863 154.892 37.5802 154.886 37.5709 154.877C37.1301 154.522 36.6954 154.162 36.2607 153.795C36.3378 153.573 36.421 153.354 36.5043 153.138C41.1746 140.971 50.3981 135.018 55.9962 132.413C58.7707 131.121 60.6542 130.65 60.6542 130.65L67.2265 118.812L71.8537 127.444L75.2632 133.806L89.2525 159.908L101.321 129.857L105.061 120.542L106.019 118.156L110.579 121.704L114.894 125.061L123.585 126.978L130.635 128.535L140.21 130.65C144.082 133.803 146.437 139.802 147.753 147.256C147.802 147.521 147.849 147.79 147.892 148.058Z" fill="#354DFC"/>
<path d="M76.4657 59.1874C79.7081 53.7409 85.6632 50.0039 91.9779 49.4531C98.2925 48.9023 104.805 51.5519 108.941 56.3548C111.406 59.2169 113.022 62.722 115.425 65.6365C120.595 71.9084 129.412 75.5756 131.67 83.3839C132.656 86.7912 132.165 90.4288 131.666 93.9406C131.239 96.9506 130.811 99.9606 130.384 102.971C130.051 105.313 129.732 107.782 130.61 109.979C131.641 112.557 134.107 114.245 135.701 116.517C138.414 120.383 138.216 126.044 135.239 129.71C133.948 131.301 132.236 132.5 130.883 134.037C129.529 135.575 128.525 137.677 129.092 139.645C130.178 143.415 136.091 144.32 136.74 148.189C137.072 150.168 135.705 152.144 133.914 153.049C132.124 153.953 130.016 153.98 128.025 153.738C120.456 152.818 113.447 148.088 109.762 141.413C106.077 134.738 105.809 126.288 109.063 119.392C111.736 113.729 116.704 108.724 116.649 102.462C116.62 99.0504 115.055 95.864 113.525 92.8147C110.393 86.5735 107.261 80.3323 104.13 74.0911C102.452 70.748 100.505 67.1453 97.0513 65.7091C94.3821 64.5991 91.3535 65.0296 88.4986 65.4836C85.6436 65.9376 82.6193 66.3795 79.9422 65.2888C77.265 64.1982 75.2421 60.9577 76.5177 58.3635" fill="#2F2E41"/>
<path d="M81.1307 59.4719C75.988 57.7791 70.2189 60.4967 66.7372 64.643C63.2555 68.7893 61.5666 74.1087 59.9577 79.2784C59.0361 82.2396 58.1145 85.2008 57.193 88.162C56.326 90.9476 55.4591 93.7332 54.5922 96.5188C53.5724 99.7953 52.5444 103.276 53.3813 106.604C53.9863 109.01 55.5431 111.195 55.5766 113.675C55.6116 116.267 53.9888 118.541 52.5667 120.708C51.1446 122.874 49.8097 125.448 50.4873 127.949C51.5178 131.754 56.8074 133.845 56.5175 137.776C56.4207 139.088 55.662 140.302 55.6758 141.617C55.6933 143.291 57.0037 144.737 58.5389 145.404C60.074 146.07 61.8009 146.107 63.4744 146.077C68.6075 145.987 73.7314 145.377 78.7424 144.261C80.6703 143.831 82.6308 143.304 84.2356 142.153C85.8405 141.001 87.0376 139.093 86.8288 137.129C86.5033 134.068 83.2125 132.332 81.5518 129.74C79.9206 127.195 79.9585 123.97 79.2551 121.029C78.2884 116.989 75.901 113.461 74.1088 109.712C67.3709 95.6192 69.7296 77.6559 79.8772 65.7801C80.7745 64.7301 81.7547 63.6738 82.129 62.3443C82.5033 61.0149 82.0208 59.321 80.7203 58.856" fill="#2F2E41"/>
</svg>
