<svg width="640" height="360" viewBox="0 0 640 360" fill="none" xmlns="http://www.w3.org/2000/svg">
<rect width="640" height="360" fill="white"/>
<path d="M279.859 117.891V120.891H263.453L263.328 118.625L273.141 103.25H276.156L272.891 108.844L267.25 117.891H279.859ZM277.016 103.25V126H273.25V103.25H277.016ZM297.203 112.719V116.438C297.203 118.219 297.026 119.74 296.672 121C296.328 122.25 295.828 123.266 295.172 124.047C294.516 124.828 293.729 125.401 292.812 125.766C291.906 126.13 290.891 126.312 289.766 126.312C288.87 126.312 288.036 126.198 287.266 125.969C286.505 125.74 285.818 125.38 285.203 124.891C284.589 124.401 284.062 123.771 283.625 123C283.198 122.219 282.865 121.286 282.625 120.203C282.396 119.12 282.281 117.865 282.281 116.438V112.719C282.281 110.927 282.458 109.417 282.812 108.188C283.167 106.948 283.672 105.943 284.328 105.172C284.984 104.391 285.766 103.823 286.672 103.469C287.589 103.115 288.609 102.938 289.734 102.938C290.641 102.938 291.474 103.052 292.234 103.281C293.005 103.5 293.693 103.849 294.297 104.328C294.911 104.807 295.432 105.432 295.859 106.203C296.297 106.964 296.63 107.885 296.859 108.969C297.089 110.042 297.203 111.292 297.203 112.719ZM293.438 116.969V112.156C293.438 111.25 293.385 110.453 293.281 109.766C293.177 109.068 293.021 108.479 292.812 108C292.615 107.51 292.365 107.115 292.062 106.812C291.76 106.5 291.417 106.276 291.031 106.141C290.646 105.995 290.214 105.922 289.734 105.922C289.151 105.922 288.63 106.036 288.172 106.266C287.714 106.484 287.328 106.839 287.016 107.328C286.703 107.818 286.464 108.464 286.297 109.266C286.141 110.057 286.062 111.021 286.062 112.156V116.969C286.062 117.885 286.115 118.693 286.219 119.391C286.323 120.089 286.479 120.688 286.688 121.188C286.896 121.677 287.146 122.083 287.438 122.406C287.74 122.719 288.083 122.948 288.469 123.094C288.865 123.24 289.297 123.312 289.766 123.312C290.359 123.312 290.885 123.198 291.344 122.969C291.802 122.74 292.188 122.375 292.5 121.875C292.812 121.365 293.047 120.703 293.203 119.891C293.359 119.078 293.438 118.104 293.438 116.969ZM316.234 117.891V120.891H299.828L299.703 118.625L309.516 103.25H312.531L309.266 108.844L303.625 117.891H316.234ZM313.391 103.25V126H309.625V103.25H313.391ZM345.359 103.25V126H341.438L331.234 109.703V126H327.312V103.25H331.234L341.469 119.578V103.25H345.359ZM348.938 117.734V117.375C348.938 116.156 349.115 115.026 349.469 113.984C349.823 112.932 350.333 112.021 351 111.25C351.677 110.469 352.5 109.865 353.469 109.438C354.448 109 355.552 108.781 356.781 108.781C358.021 108.781 359.125 109 360.094 109.438C361.073 109.865 361.901 110.469 362.578 111.25C363.255 112.021 363.771 112.932 364.125 113.984C364.479 115.026 364.656 116.156 364.656 117.375V117.734C364.656 118.953 364.479 120.083 364.125 121.125C363.771 122.167 363.255 123.078 362.578 123.859C361.901 124.63 361.078 125.234 360.109 125.672C359.141 126.099 358.042 126.312 356.812 126.312C355.573 126.312 354.464 126.099 353.484 125.672C352.516 125.234 351.693 124.63 351.016 123.859C350.339 123.078 349.823 122.167 349.469 121.125C349.115 120.083 348.938 118.953 348.938 117.734ZM352.703 117.375V117.734C352.703 118.495 352.781 119.214 352.938 119.891C353.094 120.568 353.339 121.161 353.672 121.672C354.005 122.182 354.432 122.583 354.953 122.875C355.474 123.167 356.094 123.312 356.812 123.312C357.51 123.312 358.115 123.167 358.625 122.875C359.146 122.583 359.573 122.182 359.906 121.672C360.24 121.161 360.484 120.568 360.641 119.891C360.807 119.214 360.891 118.495 360.891 117.734V117.375C360.891 116.625 360.807 115.917 360.641 115.25C360.484 114.573 360.234 113.974 359.891 113.453C359.557 112.932 359.13 112.526 358.609 112.234C358.099 111.932 357.49 111.781 356.781 111.781C356.073 111.781 355.458 111.932 354.938 112.234C354.427 112.526 354.005 112.932 353.672 113.453C353.339 113.974 353.094 114.573 352.938 115.25C352.781 115.917 352.703 116.625 352.703 117.375ZM375.562 109.094V111.844H366.031V109.094H375.562ZM368.781 104.953H372.547V121.328C372.547 121.849 372.62 122.25 372.766 122.531C372.922 122.802 373.135 122.984 373.406 123.078C373.677 123.172 373.995 123.219 374.359 123.219C374.62 123.219 374.87 123.203 375.109 123.172C375.349 123.141 375.542 123.109 375.688 123.078L375.703 125.953C375.391 126.047 375.026 126.13 374.609 126.203C374.203 126.276 373.734 126.312 373.203 126.312C372.339 126.312 371.573 126.161 370.906 125.859C370.24 125.547 369.719 125.042 369.344 124.344C368.969 123.646 368.781 122.719 368.781 121.562V104.953Z" fill="black"/>
<path fill-rule="evenodd" clip-rule="evenodd" d="M308.062 225V210.375H265.75V185.312H301.75V171.68H265.75H259.625H247V225H259.625H265.75H308.062ZM247 148.68H259.625H265.75H308V134H265.75H259.625H247V148.68ZM319 171.68V225H337.75V198.759L347.517 188.259L370.938 225H393.125L359.934 174.269L392.25 134H369.25L346.062 164.312L337.75 175.691V171.68H319ZM337.75 148.68H319V134H337.75V148.68Z" fill="black"/>
<path d="M281.688 232.25V255H277.766V232.25H281.688ZM290.969 242.203V245.312H280.688V242.203H290.969ZM292.266 232.25V235.375H280.688V232.25H292.266ZM293.953 246.734V246.375C293.953 245.156 294.13 244.026 294.484 242.984C294.839 241.932 295.349 241.021 296.016 240.25C296.693 239.469 297.516 238.865 298.484 238.438C299.464 238 300.568 237.781 301.797 237.781C303.036 237.781 304.141 238 305.109 238.438C306.089 238.865 306.917 239.469 307.594 240.25C308.271 241.021 308.786 241.932 309.141 242.984C309.495 244.026 309.672 245.156 309.672 246.375V246.734C309.672 247.953 309.495 249.083 309.141 250.125C308.786 251.167 308.271 252.078 307.594 252.859C306.917 253.63 306.094 254.234 305.125 254.672C304.156 255.099 303.057 255.312 301.828 255.312C300.589 255.312 299.479 255.099 298.5 254.672C297.531 254.234 296.708 253.63 296.031 252.859C295.354 252.078 294.839 251.167 294.484 250.125C294.13 249.083 293.953 247.953 293.953 246.734ZM297.719 246.375V246.734C297.719 247.495 297.797 248.214 297.953 248.891C298.109 249.568 298.354 250.161 298.688 250.672C299.021 251.182 299.448 251.583 299.969 251.875C300.49 252.167 301.109 252.312 301.828 252.312C302.526 252.312 303.13 252.167 303.641 251.875C304.161 251.583 304.589 251.182 304.922 250.672C305.255 250.161 305.5 249.568 305.656 248.891C305.823 248.214 305.906 247.495 305.906 246.734V246.375C305.906 245.625 305.823 244.917 305.656 244.25C305.5 243.573 305.25 242.974 304.906 242.453C304.573 241.932 304.146 241.526 303.625 241.234C303.115 240.932 302.505 240.781 301.797 240.781C301.089 240.781 300.474 240.932 299.953 241.234C299.443 241.526 299.021 241.932 298.688 242.453C298.354 242.974 298.109 243.573 297.953 244.25C297.797 244.917 297.719 245.625 297.719 246.375ZM323 251.016V238.094H326.781V255H323.219L323 251.016ZM323.531 247.5L324.797 247.469C324.797 248.604 324.672 249.651 324.422 250.609C324.172 251.557 323.786 252.385 323.266 253.094C322.745 253.792 322.078 254.339 321.266 254.734C320.453 255.12 319.479 255.312 318.344 255.312C317.521 255.312 316.766 255.193 316.078 254.953C315.391 254.714 314.797 254.344 314.297 253.844C313.807 253.344 313.427 252.693 313.156 251.891C312.885 251.089 312.75 250.13 312.75 249.016V238.094H316.516V249.047C316.516 249.661 316.589 250.177 316.734 250.594C316.88 251 317.078 251.328 317.328 251.578C317.578 251.828 317.87 252.005 318.203 252.109C318.536 252.214 318.891 252.266 319.266 252.266C320.339 252.266 321.182 252.057 321.797 251.641C322.422 251.214 322.865 250.641 323.125 249.922C323.396 249.203 323.531 248.396 323.531 247.5ZM334.375 241.703V255H330.609V238.094H334.156L334.375 241.703ZM333.703 245.922L332.484 245.906C332.495 244.708 332.661 243.609 332.984 242.609C333.318 241.609 333.776 240.75 334.359 240.031C334.953 239.312 335.661 238.76 336.484 238.375C337.307 237.979 338.224 237.781 339.234 237.781C340.047 237.781 340.781 237.896 341.438 238.125C342.104 238.344 342.672 238.703 343.141 239.203C343.62 239.703 343.984 240.354 344.234 241.156C344.484 241.948 344.609 242.922 344.609 244.078V255H340.828V244.062C340.828 243.25 340.708 242.609 340.469 242.141C340.24 241.661 339.901 241.323 339.453 241.125C339.016 240.917 338.469 240.812 337.812 240.812C337.167 240.812 336.589 240.948 336.078 241.219C335.568 241.49 335.135 241.859 334.781 242.328C334.438 242.797 334.172 243.339 333.984 243.953C333.797 244.568 333.703 245.224 333.703 245.922ZM358.766 251.5V231H362.547V255H359.125L358.766 251.5ZM347.766 246.734V246.406C347.766 245.125 347.917 243.958 348.219 242.906C348.521 241.844 348.958 240.932 349.531 240.172C350.104 239.401 350.802 238.812 351.625 238.406C352.448 237.99 353.375 237.781 354.406 237.781C355.427 237.781 356.323 237.979 357.094 238.375C357.865 238.771 358.521 239.339 359.062 240.078C359.604 240.807 360.036 241.682 360.359 242.703C360.682 243.714 360.911 244.839 361.047 246.078V247.125C360.911 248.333 360.682 249.438 360.359 250.438C360.036 251.438 359.604 252.302 359.062 253.031C358.521 253.76 357.859 254.323 357.078 254.719C356.307 255.115 355.406 255.312 354.375 255.312C353.354 255.312 352.432 255.099 351.609 254.672C350.797 254.245 350.104 253.646 349.531 252.875C348.958 252.104 348.521 251.198 348.219 250.156C347.917 249.104 347.766 247.964 347.766 246.734ZM351.531 246.406V246.734C351.531 247.505 351.599 248.224 351.734 248.891C351.88 249.557 352.104 250.146 352.406 250.656C352.708 251.156 353.099 251.552 353.578 251.844C354.068 252.125 354.651 252.266 355.328 252.266C356.182 252.266 356.885 252.078 357.438 251.703C357.99 251.328 358.422 250.823 358.734 250.188C359.057 249.542 359.276 248.823 359.391 248.031V245.203C359.328 244.589 359.198 244.016 359 243.484C358.812 242.953 358.557 242.49 358.234 242.094C357.911 241.688 357.51 241.375 357.031 241.156C356.562 240.927 356.005 240.812 355.359 240.812C354.672 240.812 354.089 240.958 353.609 241.25C353.13 241.542 352.734 241.943 352.422 242.453C352.12 242.964 351.896 243.557 351.75 244.234C351.604 244.911 351.531 245.635 351.531 246.406Z" fill="black"/>
</svg>
