<svg width="32" height="32" viewBox="0 0 32 32" fill="none" xmlns="http://www.w3.org/2000/svg">
<path d="M4 6V25.9904" stroke="#1DC356" strokeWidth="3" strokeLinecap="round"/>
<path d="M28 12V26" stroke="#1DC356" strokeWidth="3" strokeLinecap="round" strokeLinejoin="round"/>
<path d="M8 2H18" stroke="#1DC356" strokeWidth="3" strokeLinecap="round" strokeLinejoin="round"/>
<path d="M8 30H24" stroke="#1DC356" strokeWidth="3" strokeLinecap="round"/>
<path d="M28 26C28.0109 27.9977 26 30 24 30" stroke="#1DC356" strokeWidth="3" strokeLinecap="round" strokeLinejoin="round"/>
<path d="M4 26C4 28 6 30 8 30" stroke="#1DC356" strokeWidth="3" strokeLinecap="round" strokeLinejoin="round"/>
<path d="M4 5.9971C4 4 6 2.04454 8 2" stroke="#1DC356" strokeWidth="3" strokeLinecap="round" strokeLinejoin="round"/>
<path d="M27.9891 12.009L18 2" stroke="#1DC356" strokeWidth="3" strokeLinecap="round" strokeLinejoin="round"/>
<path d="M18 8C18.0061 9.98912 20.0081 12 22 12" stroke="#1DC356" strokeWidth="3" strokeLinecap="round" strokeLinejoin="round"/>
<path d="M18 8V2" stroke="#1DC356" strokeWidth="3" strokeLinecap="round" strokeLinejoin="round"/>
<path d="M22 12H28" stroke="#1DC356" strokeWidth="3" strokeLinecap="round" strokeLinejoin="round"/>
<path d="M8 24H22" stroke="#1DC356" strokeWidth="3" strokeLinecap="round" strokeLinejoin="round"/>
<path d="M8 19H22" stroke="#1DC356" strokeWidth="3" strokeLinecap="round" strokeLinejoin="round"/>
<path d="M10 17V26" stroke="#1DC356" strokeWidth="3" strokeLinecap="round" strokeLinejoin="round"/>
<path d="M15 17V26" stroke="#1DC356" strokeWidth="3" strokeLinecap="round" strokeLinejoin="round"/>
<path d="M20 17V26" stroke="#1DC356" strokeWidth="3" strokeLinecap="round" strokeLinejoin="round"/>
</svg>
