<svg width="32" height="32" viewBox="0 0 32 32" fill="none" xmlns="http://www.w3.org/2000/svg">
<g clip-path="url(#clip0_1599_1761)">
<path fill-rule="evenodd" clip-rule="evenodd" d="M13.3333 1.33333C12.9797 1.33333 12.6406 1.47381 12.3905 1.72385L4.39052 9.72385C4.14048 9.97391 4 10.313 4 10.6667V26.6667C4 28.8759 5.79087 30.6667 8 30.6667H9.33333C10.0697 30.6667 10.6667 30.0697 10.6667 29.3333C10.6667 28.5969 10.0697 28 9.33333 28H8C7.26363 28 6.66667 27.4031 6.66667 26.6667V12H13.3333C14.0697 12 14.6667 11.403 14.6667 10.6667V4H24C24.7364 4 25.3333 4.59696 25.3333 5.33333V14.6667C25.3333 15.4031 25.9303 16 26.6667 16C27.4031 16 28 15.4031 28 14.6667V5.33333C28 3.1242 26.2092 1.33333 24 1.33333H13.3333ZM12 9.33333H8.55228L12 5.88561V9.33333ZM13.7437 31.4171C13.9543 31.6767 14.2603 31.8896 14.6461 31.9683C15.0075 32.0421 15.3231 31.9747 15.5417 31.8949C15.9441 31.7481 16.2608 31.4713 16.4673 31.2675C16.7921 30.9473 17.1321 30.5131 17.4705 30.0225C18.9496 29.5123 21.0281 29.0427 23.0493 28.7469C24.1729 28.5824 25.222 28.4804 26.1052 28.4457C26.4551 28.8576 26.7733 29.2125 27.0384 29.4807C27.2043 29.6484 27.3887 29.8228 27.5691 29.9561C27.6504 30.0163 27.8025 30.1227 27.9987 30.1991C28.1007 30.2388 28.7708 30.4947 29.3899 29.9959C29.7541 29.7024 30.0913 29.3739 30.3259 29.0033C30.5616 28.6311 30.7839 28.0628 30.5988 27.4167C30.4175 26.7841 29.9451 26.4295 29.5973 26.2464C29.2425 26.0597 28.8439 25.9557 28.4781 25.8916C28.1467 25.8335 27.7717 25.7971 27.3644 25.7792C26.5389 24.7487 25.574 23.4669 24.6573 22.1597C23.8533 21.0133 23.1037 19.872 22.5213 18.8783C22.5812 18.6219 22.6312 18.3755 22.67 18.1413C22.7364 17.7403 22.7765 17.3387 22.7677 16.9615C22.7593 16.5996 22.7045 16.1639 22.5067 15.7569C22.2872 15.306 21.888 14.8955 21.2909 14.7347C20.7552 14.5904 20.2444 14.6985 19.8525 14.8435C19.2479 15.0672 18.9164 15.5635 18.8019 16.0481C18.7051 16.4583 18.7575 16.8543 18.8181 17.1372C18.9435 17.722 19.2359 18.3941 19.5727 19.0524C19.6027 19.1109 19.6335 19.1703 19.6649 19.23C19.3471 20.2763 18.8771 21.5104 18.3189 22.7865C17.5008 24.6572 16.5407 26.5115 15.7137 27.8373C15.1492 28.0739 14.6283 28.3445 14.2328 28.6555C13.9635 28.8673 13.6025 29.212 13.4299 29.7157C13.2176 30.3352 13.3681 30.9539 13.7437 31.4171ZM22.6632 26.1083C21.578 26.2671 20.4593 26.4755 19.3997 26.7189C19.8721 25.8031 20.3372 24.8268 20.7621 23.8552C21.0035 23.3033 21.2359 22.7441 21.4513 22.1908C21.7813 22.69 22.1256 23.1941 22.474 23.6908C23.0108 24.4561 23.5645 25.2147 24.1012 25.9249C23.6248 25.9763 23.1423 26.0383 22.6632 26.1083ZM21.4145 16.5123C21.4144 16.5105 21.4143 16.5097 21.4141 16.5097C21.4141 16.5096 21.4143 16.5117 21.4147 16.5163C21.4147 16.5147 21.4145 16.5133 21.4145 16.5123Z" fill="#F10C0C"/>
</g>
<defs>
<clipPath id="clip0_1599_1761">
<rect width="32" height="32" fill="white"/>
</clipPath>
</defs>
</svg>
