<svg width="1440" height="1024" viewBox="0 0 1440 1024" fill="none" xmlns="http://www.w3.org/2000/svg">
<g clip-path="url(#clip0_1225_1812)">
<rect width="1440" height="1024" fill="white"/>
<path d="M1358.88 351.729C1336.45 425.138 1326.07 487.219 1327.73 537.974C1329.4 588.729 1301.25 614.927 1243.27 616.567C1185.3 618.208 1141.97 628.933 1113.28 648.744C1084.58 668.555 1027.3 707.289 941.446 764.945C855.588 822.601 821.37 804.253 838.793 709.899C856.215 615.545 843.579 542.859 800.883 491.841C758.187 440.823 738.792 373.369 742.699 289.478C746.606 205.587 791.699 165.075 877.977 167.944C964.256 170.812 1034.94 180.945 1090.04 198.344C1145.14 215.742 1209.33 227.304 1282.61 233.029C1355.89 238.754 1381.31 278.321 1358.88 351.729Z" fill="#F4F4F4"/>
<path d="M1407.98 437.383C1397.51 507.138 1396.45 564.97 1404.82 610.879C1413.19 656.789 1391.13 684.404 1338.66 693.723C1286.19 703.043 1248.25 718.644 1224.84 740.526C1201.44 762.409 1154.61 805.351 1084.35 869.353C1014.09 933.355 980.513 921.297 983.608 833.18C986.702 745.064 965.401 680.701 919.702 640.094C874.003 599.486 847.265 540.791 839.488 464.01C831.71 387.228 867.227 344.316 946.038 335.272C1024.85 326.227 1090.47 325.892 1142.9 334.266C1195.33 342.64 1255.24 344.481 1322.62 339.789C1390 335.097 1418.46 367.629 1407.98 437.383Z" fill="url(#paint0_linear_1225_1812)"/>
<path d="M232.902 87.3659C265.587 149.872 298.847 197.195 332.682 229.333C366.517 261.472 364.996 296.779 328.121 335.254C291.245 373.73 269.809 408.706 263.814 440.183C257.819 471.659 245.33 533.959 226.346 627.081C207.363 720.203 173.134 730.273 123.659 657.291C74.1846 584.309 19.02 544.899 -41.8345 539.061C-102.689 533.223 -158.9 501.597 -210.469 444.181C-262.037 386.765 -258.668 331.163 -200.36 277.375C-142.051 223.586 -89.2582 184.61 -41.9796 160.448C5.29894 136.285 54.7608 102.437 106.406 58.9049C158.051 15.3726 200.216 24.8596 232.902 87.3659Z" fill="#F4F4F4"/>
<path d="M281.244 110.898C287.718 181.136 300.496 237.549 319.576 280.136C338.656 322.723 323.83 354.802 275.098 376.374C226.365 397.946 193.245 422.15 175.735 448.985C158.226 475.821 122.995 528.698 70.0419 607.616C17.0886 686.534 -18.399 682.839 -36.4211 596.529C-54.4431 510.219 -90.4884 452.8 -144.557 424.27C-198.626 395.741 -238.598 345.122 -264.473 272.415C-290.348 199.708 -266.098 149.559 -191.721 121.97C-117.345 94.3802 -53.6996 78.3957 -0.785302 74.0162C52.129 69.6368 81.6847 131.534 146 110.898C210.315 90.2623 271.076 47.0164 281.244 110.898Z" fill="url(#paint1_linear_1225_1812)"/>
<rect x="1076.46" y="16" width="33.8849" height="33.8849" rx="10" transform="rotate(33.0068 1076.46 16)" fill="#F4F4F4"/>
</g>
<defs>
<linearGradient id="paint0_linear_1225_1812" x1="1261" y1="253.5" x2="1317.5" y2="899.5" gradientUnits="userSpaceOnUse">
<stop stop-color="#FFA6FF"/>
<stop offset="1" stop-color="#FF00FF"/>
</linearGradient>
<linearGradient id="paint1_linear_1225_1812" x1="164.33" y1="22.9999" x2="-154.389" y2="575.036" gradientUnits="userSpaceOnUse">
<stop stop-color="#FF0000"/>
<stop offset="1" stop-color="#FF6D90"/>
</linearGradient>
<clipPath id="clip0_1225_1812">
<rect width="1440" height="1024" fill="white"/>
</clipPath>
</defs>
</svg>
