<svg width="1442" height="245" viewBox="0 0 1442 245" fill="none" xmlns="http://www.w3.org/2000/svg">
<path fill-rule="evenodd" clip-rule="evenodd" d="M1442 209.192L1407.2 213.363C1373.6 217.535 1305.2 225.877 1236.8 209.192C1167.2 192.507 1098.8 150.795 1030.4 146.624C962 142.452 893.6 175.822 825.2 175.822C756.8 175.822 687.2 142.452 618.8 134.11C550.4 125.767 482 142.452 413.6 167.48C345.2 192.507 276.8 225.877 207.2 238.391C138.8 250.905 70.3999 242.562 36.7999 238.391L2 234.22V34H36.7999C70.3999 34 138.8 34 207.2 34C276.8 34 345.2 34 413.6 34C482 34 550.4 34 618.8 34C687.2 34 756.8 34 825.2 34C893.6 34 962 34 1030.4 34C1098.8 34 1167.2 34 1236.8 34C1305.2 34 1373.6 34 1407.2 34H1442V209.192Z" fill="#F4F4F4"/>
<path fill-rule="evenodd" clip-rule="evenodd" d="M1440 175.192L1405.2 179.363C1371.6 183.535 1303.2 191.877 1234.8 175.192C1165.2 158.507 1096.8 116.795 1028.4 112.624C960 108.452 891.6 141.822 823.2 141.822C754.8 141.822 685.2 108.452 616.8 100.11C548.4 91.7673 480 108.452 411.6 133.48C343.2 158.507 274.8 191.877 205.2 204.391C136.8 216.905 68.3999 208.562 34.7999 204.391L0 200.22V0H34.7999C68.3999 0 136.8 0 205.2 0C274.8 0 343.2 0 411.6 0C480 0 548.4 0 616.8 0C685.2 0 754.8 0 823.2 0C891.6 0 960 0 1028.4 0C1096.8 0 1165.2 0 1234.8 0C1303.2 0 1371.6 0 1405.2 0H1440V175.192Z" fill="#354DFC"/>
</svg>
