<svg width="1323" height="319" viewBox="0 0 1323 319" fill="none" xmlns="http://www.w3.org/2000/svg">
<rect x="16.9595" y="252.581" width="15" height="15" rx="5" fill="#F4F4F4"/>
<rect x="88.9595" y="206.581" width="25" height="25" rx="5" fill="#F4F4F4"/>
<rect x="113.863" y="131.699" width="26" height="26" rx="5" transform="rotate(-16.1112 113.863 131.699)" fill="#F4F4F4"/>
<rect x="128.959" y="282.581" width="21" height="21" rx="5" fill="#F4F4F4"/>
<rect x="6.74292" y="114.622" width="28" height="28" rx="5" transform="rotate(13.935 6.74292 114.622)" fill="#F4F4F4"/>
<rect x="239.91" y="184.041" width="25" height="25" rx="5" transform="rotate(-10.3915 239.91 184.041)" fill="#F4F4F4"/>
<rect x="254.959" y="267.581" width="13" height="13" rx="5" fill="#F4F4F4"/>
<rect x="292.925" y="14.8267" width="32" height="32" rx="5" transform="rotate(15.8123 292.925 14.8267)" fill="#F4F4F4"/>
<rect x="103.167" y="21.3701" width="45" height="45" rx="5" transform="rotate(12.0822 103.167 21.3701)" fill="#F4F4F4"/>
<rect x="342.76" y="96.124" width="36" height="36" rx="5" transform="rotate(-15.7017 342.76 96.124)" fill="#F4F4F4"/>
<rect x="414.959" y="236.581" width="24" height="24" rx="5" fill="#F4F4F4"/>
<rect x="526.77" y="170.01" width="24" height="24" rx="5" transform="rotate(8.10127 526.77 170.01)" fill="#F4F4F4"/>
<rect x="610.333" y="114.581" width="30" height="30" rx="5" transform="rotate(16.2074 610.333 114.581)" fill="#F4F4F4"/>
<rect x="615.959" y="270.581" width="22" height="22" rx="5" fill="#F4F4F4"/>
<rect x="465.783" y="79.5083" width="34" height="34" rx="5" transform="rotate(-12.0606 465.783 79.5083)" fill="#F4F4F4"/>
<rect x="698.385" y="154.556" width="25" height="25" rx="5" transform="rotate(10.2552 698.385 154.556)" fill="#F4F4F4"/>
<rect x="719.696" y="226.029" width="20" height="20" rx="5" transform="rotate(-7.79236 719.696 226.029)" fill="#F4F4F4"/>
<rect x="695.959" y="45.5811" width="35" height="35" rx="5" fill="#F4F4F4"/>
<rect x="567.046" width="32" height="32" rx="5" transform="rotate(10.2022 567.046 0)" fill="#F4F4F4"/>
<rect x="793.401" y="134.677" width="30" height="30" rx="5" transform="rotate(-10.8638 793.401 134.677)" fill="#F4F4F4"/>
<rect x="889.057" y="235.237" width="20" height="20" rx="5" transform="rotate(15.7869 889.057 235.237)" fill="#F4F4F4"/>
<rect x="1136.2" y="234.164" width="25" height="25" rx="5" transform="rotate(-14.7074 1136.2 234.164)" fill="#F4F4F4"/>
<rect x="1062.91" y="123.193" width="28" height="28" rx="5" transform="rotate(-29.2095 1062.91 123.193)" fill="#F4F4F4"/>
<rect x="987.959" y="299.581" width="19" height="19" rx="5" fill="#F4F4F4"/>
<rect x="891.762" y="103.604" width="32" height="32" rx="5" transform="rotate(-13.0408 891.762 103.604)" fill="#F4F4F4"/>
<rect x="1187.17" y="149.041" width="25" height="25" rx="5" transform="rotate(13.3016 1187.17 149.041)" fill="#F4F4F4"/>
<rect x="1263.96" y="252.581" width="18" height="18" rx="5" fill="#F4F4F4"/>
<rect x="1135.51" y="29.9395" width="34" height="34" rx="5" transform="rotate(-13.2763 1135.51 29.9395)" fill="#F4F4F4"/>
<rect x="976.959" y="163.581" width="32" height="32" rx="5" fill="#F4F4F4"/>
<rect x="1287.16" y="46.6714" width="42" height="42" rx="5" transform="rotate(31.7651 1287.16 46.6714)" fill="#F4F4F4"/>
</svg>
