<svg width="861" height="426" viewBox="0 0 861 426" fill="none" xmlns="http://www.w3.org/2000/svg">
<path d="M16.5762 51.4539L154.076 19.9539L300.576 64.9539V207.454L248.576 330.454L160.076 417.954L68.0762 336.954L16.5762 218.954V51.4539Z" fill="white"/>
<path d="M158.815 0C143.161 0 117.001 7.05407 92.385 14.9067C70.3958 22.0066 48.5559 29.7284 26.8844 38.0652C20.6429 40.4837 15.1095 44.9188 10.9198 50.8611C6.73004 56.8035 4.054 64.012 3.199 71.6585C-10.3225 190.831 21.0539 279.158 59.1236 337.586C75.2683 362.58 94.5181 384.59 116.23 402.882C123.738 409.212 131.692 414.778 140.007 419.52C146.382 423.033 153.188 425.908 158.815 425.908C164.441 425.908 171.27 423.033 177.623 419.52C185.938 414.778 193.892 409.212 201.4 402.882C223.112 384.591 242.362 362.581 258.506 337.586C296.576 279.158 327.952 190.831 314.431 71.6585C313.576 64.012 310.9 56.8036 306.71 50.8613C302.52 44.9189 296.987 40.4837 290.745 38.0652C275.817 32.3421 250.428 22.8924 225.245 14.9067C200.629 7.05407 174.469 0 158.815 0ZM158.813 34.0103C170.71 34.0103 180.427 43.7292 180.427 55.6261C180.427 66.0541 172.96 74.8047 163.104 76.8074V131.908H212.962V117.472C203.107 115.47 195.646 106.718 195.646 96.2895C195.646 84.3929 205.357 74.6754 217.253 74.6754C229.15 74.6754 238.869 84.3929 238.869 96.2895C238.869 106.716 231.404 115.468 221.551 117.472V131.908H254.518C256.521 122.052 265.272 114.585 275.7 114.585C287.596 114.585 297.309 124.304 297.309 136.201C297.309 148.098 287.596 157.815 275.7 157.815C265.272 157.815 256.521 150.348 254.518 140.492H221.551H212.962H158.813H104.664H96.0803H63.1163C61.1139 150.348 52.3596 157.815 41.9316 157.815C30.0347 157.815 20.3174 148.098 20.3174 136.201C20.3174 124.304 30.0347 114.585 41.9316 114.585C52.3596 114.585 61.1139 122.052 63.1163 131.908H96.0803V117.472C86.2246 115.47 78.7575 106.718 78.7575 96.2895C78.7575 84.3929 88.4749 74.6754 100.372 74.6754C112.269 74.6754 121.987 84.3929 121.987 96.2895C121.987 106.718 114.52 115.47 104.664 117.472V131.908H154.522V76.8074C144.666 74.8054 137.197 66.0546 137.197 55.6261C137.197 43.7292 146.916 34.0103 158.813 34.0103ZM158.813 40.7704C150.569 40.7704 143.958 47.3816 143.958 55.6261C143.958 63.8705 150.569 70.48 158.813 70.48C167.058 70.48 173.667 63.8705 173.667 55.6261C173.667 47.3816 167.058 40.7704 158.813 40.7704ZM100.372 81.4356C92.1274 81.4356 85.5178 88.0453 85.5178 96.2895C85.5178 104.534 92.1274 111.145 100.372 111.145C108.616 111.145 115.227 104.534 115.227 96.2895C115.227 88.0453 108.616 81.4356 100.372 81.4356ZM217.253 81.4356C209.009 81.4356 202.399 88.0453 202.399 96.2895C202.399 104.534 209.009 111.145 217.253 111.145C225.498 111.145 232.114 104.534 232.114 96.2895C232.114 88.0453 225.498 81.4356 217.253 81.4356ZM41.9316 121.345C33.6872 121.345 27.0777 127.956 27.0777 136.201C27.0777 144.445 33.6872 151.055 41.9316 151.055C50.1758 151.055 56.7855 144.445 56.7855 136.201C56.7855 127.956 50.1758 121.345 41.9316 121.345ZM275.7 121.345C267.455 121.345 260.839 127.956 260.839 136.201C260.839 144.445 267.455 151.055 275.7 151.055C283.944 151.055 290.555 144.445 290.555 136.201C290.555 127.956 283.944 121.345 275.7 121.345ZM93.434 177.765C113.06 177.765 125.473 188.287 127.01 201.588H110.577C108.33 194.143 101.356 189.677 93.5524 189.677C79.9564 189.677 73.5703 198.512 73.5703 212.904C73.5703 227.496 79.9546 236.132 92.7235 236.132C102.418 236.132 108.33 231.466 110.577 223.228H127.01C123.7 238.216 111.404 248.143 93.1961 248.143C72.6245 248.143 56.9006 236.33 56.9006 213.698C56.9006 191.364 70.9708 177.765 93.434 177.765ZM163.071 177.765C182.934 177.765 194.048 186.799 194.639 199.405H179.032C178.204 192.655 173.357 189.379 163.426 189.379C154.204 189.379 149.356 192.158 149.356 197.121C149.356 201.29 152.786 203.672 161.534 205.459C170.402 207.246 179.032 209.033 184.825 211.216C191.682 213.797 197.121 217.867 197.121 227.198C197.121 241.69 184.116 248.143 165.791 248.143C146.401 248.143 132.922 240.897 132.568 226.107H148.41C148.648 232.857 155.387 237.026 165.909 237.026C175.604 237.026 181.16 233.551 181.16 227.694C181.16 223.823 178.796 221.143 168.983 219.356C159.289 217.57 153.022 216.378 147.465 214.294C139.07 211.117 134.34 206.353 134.34 198.015C134.34 186.203 143.918 177.765 163.071 177.765ZM205.397 179.95H221.832V233.849H260.729V245.861H205.397V179.95ZM203.112 287.094V309.577C212.298 311.444 219.257 319.602 219.257 329.323C219.257 340.413 210.2 349.471 199.109 349.471C188.019 349.471 178.961 340.413 178.961 329.323C178.961 319.602 185.921 311.444 195.107 309.577V295.097L162.815 295.114V349.875C172.002 351.743 178.961 359.906 178.961 369.627C178.961 380.717 169.903 389.775 158.813 389.775C147.723 389.775 138.665 380.717 138.665 369.627C138.665 359.906 145.624 351.743 154.811 349.875V295.117L122.519 295.134V309.581C131.706 311.448 138.665 319.607 138.665 329.328C138.665 340.418 129.607 349.476 118.517 349.476C107.427 349.476 98.3691 340.418 98.3691 329.328C98.3691 319.607 105.328 311.448 114.515 309.581V287.136L203.112 287.094ZM118.257 315.481C110.693 315.619 104.669 321.725 104.669 329.323C104.669 337.008 110.831 343.175 118.517 343.175C126.202 343.175 132.363 337.008 132.363 329.323C132.363 321.725 126.341 315.619 118.777 315.481H118.257ZM198.983 315.481C191.357 315.549 185.263 321.68 185.263 329.323C185.263 337.008 191.424 343.175 199.109 343.175C206.795 343.175 212.962 337.008 212.962 329.323C212.962 321.68 206.862 315.549 199.236 315.481H198.983ZM158.716 355.778C151.076 355.832 144.967 361.973 144.967 369.625C144.967 377.311 151.128 383.472 158.813 383.472C166.499 383.472 172.666 377.311 172.666 369.625C172.666 361.973 166.55 355.83 158.911 355.778H158.716Z" fill="url(#paint0_linear_1577_2506)"/>
<path d="M468.666 106.775H451.02C449.932 118.016 442.801 123.092 431.561 123.092C417.541 123.092 409.322 112.335 409.322 93.1177C409.322 73.6586 417.903 62.7807 432.165 62.7807C441.955 62.7807 448.361 67.2529 451.02 78.6141H468.303C466.732 58.3089 451.383 47.3103 431.561 47.3103C406.663 47.3103 391.192 64.3521 391.192 92.8759C391.192 121.158 406.542 138.321 431.077 138.321C452.954 138.321 467.578 126.959 468.666 106.775Z" fill="white"/>
<path d="M538.163 71.604H520.758L507.221 119.103L492.839 71.604H474.226L498.519 139.65V140.013C498.519 146.177 493.926 150.89 488.004 150.89C486.675 150.89 485.708 150.769 483.532 150.165V162.856C486.07 163.219 487.521 163.34 489.575 163.34C500.937 163.34 506.859 161.285 511.331 148.836L538.163 71.604Z" fill="white"/>
<path d="M609.836 105.083C609.836 86.5911 599.562 70.5161 582.399 70.5161C574.301 70.5161 568.5 73.5379 564.391 80.0646V48.7607H547.47V136.87H564.391V129.377C568.5 134.937 574.181 137.958 582.399 137.958C597.991 137.958 609.836 124.784 609.836 105.083ZM592.915 104.358C592.915 116.203 586.992 123.817 578.653 123.817C570.071 123.817 564.391 116.444 564.391 103.995C564.391 92.1507 570.192 84.6573 578.653 84.6573C586.992 84.6573 592.915 92.2716 592.915 104.358Z" fill="white"/>
<path d="M677.639 106.654C677.639 84.1737 666.278 70.5161 647.061 70.5161C628.327 70.5161 616.845 83.2069 616.845 105.083C616.845 125.993 628.206 137.958 646.698 137.958C661.323 137.958 673.167 131.311 676.914 118.499H660.235C658.784 123.213 653.467 125.026 647.302 125.026C639.325 125.026 634.249 121.4 633.766 108.709H677.518L677.639 106.654ZM659.993 97.4689H634.007C635.095 88.4041 639.325 83.4486 646.819 83.4486C654.071 83.4486 659.147 88.1623 659.993 97.4689Z" fill="white"/>
<path d="M726.106 87.7996V70.6369C725.139 70.5155 724.535 70.5156 724.052 70.5156C716.316 70.5156 709.548 75.5919 705.922 84.415V71.6034H689.001V136.87H705.922V102.182C705.922 92.2712 710.877 87.3157 720.788 87.3157C722.601 87.3157 723.81 87.4376 726.106 87.7996Z" fill="white"/>
<path d="M462.381 231.265C462.381 217.366 455.371 210.839 439.055 207.696L425.276 205.037C412.344 202.499 408.597 199.961 408.597 193.555C408.597 186.908 414.519 182.678 423.826 182.678C435.308 182.678 442.318 187.512 442.318 196.456H459.239C459.239 177.843 446.186 168.174 424.672 168.174C403.521 168.174 391.313 178.085 391.313 195.248C391.313 209.026 398.203 215.432 416.09 218.937L428.419 221.354C440.505 223.771 444.977 226.309 444.977 233.44C444.977 240.813 438.209 244.681 427.21 244.681C414.882 244.681 407.388 239.484 407.388 230.056H389.742C389.742 248.911 403.762 259.184 426.243 259.184C448.965 259.184 462.381 249.153 462.381 231.265Z" fill="white"/>
<path d="M529.944 227.518C529.944 205.038 518.583 191.38 499.365 191.38C480.631 191.38 469.149 204.071 469.149 225.947C469.149 246.856 480.511 258.822 499.003 258.822C513.627 258.822 525.472 252.174 529.219 239.363H512.54C511.089 244.077 505.771 245.889 499.607 245.889C491.63 245.889 486.554 242.264 486.07 229.573H529.823L529.944 227.518ZM512.298 218.333H486.312C487.4 209.268 491.63 204.312 499.124 204.312C506.375 204.312 511.452 209.026 512.298 218.333Z" fill="white"/>
<path d="M596.781 235.133H580.586C578.41 241.901 575.026 245.164 568.499 245.164C559.918 245.164 554.721 238.275 554.721 225.584C554.721 213.619 557.863 205.038 568.499 205.038C575.388 205.038 578.652 208.301 580.586 216.882H596.781C595.573 200.928 584.937 191.38 568.62 191.38C549.161 191.38 537.8 203.345 537.8 225.584C537.8 247.098 549.04 258.822 568.378 258.822C584.212 258.822 595.21 249.032 596.781 235.133Z" fill="white"/>
<path d="M666.279 257.734V192.468H649.358V231.628C649.358 239.363 643.919 244.439 635.7 244.439C628.448 244.439 624.822 240.572 624.822 232.715V192.468H607.901V236.221C607.901 250.603 615.878 258.822 629.778 258.822C638.601 258.822 644.523 255.559 649.358 249.153V257.734H666.279Z" fill="white"/>
<path d="M719.459 208.664V191.501C718.492 191.38 717.888 191.38 717.404 191.38C709.669 191.38 702.9 196.456 699.274 205.279V192.467H682.354V257.734H699.274V223.046C699.274 213.135 704.23 208.18 714.141 208.18C715.954 208.18 717.162 208.301 719.459 208.664Z" fill="white"/>
<path d="M746.773 257.734V192.468H729.853V257.734H746.773ZM747.015 184.612V167.691H730.094V184.612H747.015Z" fill="white"/>
<path d="M791.735 257.734V245.889C790.043 246.131 789.076 246.252 787.867 246.252C783.395 246.252 782.307 244.923 782.307 239.121V205.037H791.735V193.797H782.307V176.272H765.386V193.797H757.047V205.037H765.386V243.714C765.386 253.987 770.825 258.218 781.945 258.218C785.692 258.218 788.713 257.855 791.735 257.734Z" fill="white"/>
<path d="M860.627 192.468H843.223L829.686 239.967L815.304 192.468H796.69L820.984 260.514V260.877C820.984 267.041 816.391 271.755 810.469 271.755C809.139 271.755 808.172 271.633 805.997 271.029V283.72C808.535 284.083 809.985 284.204 812.04 284.204C823.401 284.204 829.324 282.149 833.796 269.7L860.627 192.468Z" fill="white"/>
<path d="M455.855 378.598V363.49H413.674V290.488H395.544V378.598H455.855Z" fill="white"/>
<path d="M523.055 378.598V376.543C520.033 373.763 519.187 371.95 519.187 368.566V332.307C519.187 319.012 510.122 312.244 492.476 312.244C474.83 312.244 465.645 319.737 464.557 334.845H480.873C481.719 328.077 484.499 325.901 492.839 325.901C499.366 325.901 502.629 328.077 502.629 332.428C502.629 339.317 497.553 338.592 489.092 340.042L482.324 341.251C469.391 343.548 463.106 349.107 463.106 360.952C463.106 373.643 472.05 379.686 482.928 379.686C490.18 379.686 496.827 376.543 502.75 370.379C502.75 373.763 503.112 376.664 504.684 378.598H523.055ZM502.629 350.678C502.629 360.468 497.794 366.028 489.213 366.028C483.532 366.028 480.027 363.853 480.027 359.018C480.027 354.063 482.686 352.25 489.696 350.92L495.498 349.832C499.97 348.986 500.695 348.745 502.629 347.778V350.678Z" fill="white"/>
<path d="M596.418 346.811C596.418 328.319 586.145 312.244 568.982 312.244C560.884 312.244 555.083 315.265 550.974 321.792V290.488H534.053V378.598H550.974V371.104C555.083 376.664 560.764 379.686 568.982 379.686C584.574 379.686 596.418 366.511 596.418 346.811ZM579.497 346.086C579.497 357.93 573.575 365.545 565.236 365.545C556.654 365.545 550.974 358.172 550.974 345.723C550.974 333.878 556.775 326.385 565.236 326.385C573.575 326.385 579.497 333.999 579.497 346.086Z" fill="white"/>
<defs>
<linearGradient id="paint0_linear_1577_2506" x1="317.629" y1="425.908" x2="-0.000199905" y2="-4.84422e-05" gradientUnits="userSpaceOnUse">
<stop stop-color="#0064FA"/>
<stop offset="0.694444" stop-color="#00E2FF"/>
</linearGradient>
</defs>
</svg>
