<svg width="94" height="47" viewBox="0 0 94 47" fill="none" xmlns="http://www.w3.org/2000/svg">
<g clip-path="url(#clip0_5_8)">
<path d="M17.3387 0C15.6297 0 12.7736 0.778266 10.0862 1.64464C7.68549 2.42796 5.30111 3.27989 2.93511 4.19968C2.25369 4.46651 1.64958 4.95583 1.19217 5.61144C0.734753 6.26705 0.442595 7.06236 0.34925 7.90598C-1.12696 21.0541 2.29857 30.7991 6.45484 37.2454C8.21744 40.003 10.319 42.4313 12.6895 44.4494C13.5091 45.1478 14.3775 45.7619 15.2853 46.2851C15.9813 46.6727 16.7244 46.9898 17.3387 46.9898C17.9529 46.9898 18.6985 46.6727 19.3921 46.2851C20.2999 45.7619 21.1682 45.1478 21.9879 44.4494C24.3583 42.4314 26.46 40.0031 28.2225 37.2454C32.3788 30.7991 35.8043 21.0541 34.3281 7.90598C34.2348 7.06236 33.9426 6.26706 33.4852 5.61146C33.0277 4.95584 32.4237 4.46651 31.7422 4.19968C30.1124 3.56826 27.3406 2.52569 24.5912 1.64464C21.9037 0.778266 19.0477 0 17.3387 0ZM17.3385 3.75231C18.6373 3.75231 19.6982 4.82458 19.6982 6.13715C19.6982 7.28766 18.883 8.2531 17.8069 8.47406V14.5532H23.2502V12.9605C22.1743 12.7396 21.3597 11.7741 21.3597 10.6235C21.3597 9.31095 22.4199 8.23884 23.7187 8.23884C25.0175 8.23884 26.0786 9.31095 26.0786 10.6235C26.0786 11.7738 25.2636 12.7394 24.1879 12.9605V14.5532H27.7871C28.0058 13.4658 28.9612 12.642 30.0997 12.642C31.3984 12.642 32.4588 13.7143 32.4588 15.0269C32.4588 16.3395 31.3984 17.4115 30.0997 17.4115C28.9612 17.4115 28.0058 16.5877 27.7871 15.5003H24.1879H23.2502H17.3385H11.4267H10.4896H6.89074C6.67213 16.5877 5.71638 17.4115 4.5779 17.4115C3.27905 17.4115 2.21816 16.3395 2.21816 15.0269C2.21816 13.7143 3.27905 12.642 4.5779 12.642C5.71638 12.642 6.67213 13.4658 6.89074 14.5532H10.4896V12.9605C9.4136 12.7396 8.59838 11.7741 8.59838 10.6235C8.59838 9.31095 9.65928 8.23884 10.9581 8.23884C12.257 8.23884 13.318 9.31095 13.318 10.6235C13.318 11.7741 12.5028 12.7396 11.4267 12.9605V14.5532H16.87V8.47406C15.794 8.25318 14.9785 7.28771 14.9785 6.13715C14.9785 4.82458 16.0396 3.75231 17.3385 3.75231ZM17.3385 4.49814C16.4384 4.49814 15.7167 5.22755 15.7167 6.13715C15.7167 7.04675 16.4384 7.77596 17.3385 7.77596C18.2386 7.77596 18.9602 7.04675 18.9602 6.13715C18.9602 5.22755 18.2386 4.49814 17.3385 4.49814ZM10.9581 8.98468C10.058 8.98468 9.33644 9.71392 9.33644 10.6235C9.33644 11.5331 10.058 12.2625 10.9581 12.2625C11.8582 12.2625 12.5799 11.5331 12.5799 10.6235C12.5799 9.71392 11.8582 8.98468 10.9581 8.98468ZM23.7187 8.98468C22.8186 8.98468 22.097 9.71392 22.097 10.6235C22.097 11.5331 22.8186 12.2625 23.7187 12.2625C24.6188 12.2625 25.3411 11.5331 25.3411 10.6235C25.3411 9.71392 24.6188 8.98468 23.7187 8.98468ZM4.5779 13.3878C3.67781 13.3878 2.95622 14.1172 2.95622 15.0269C2.95622 15.9364 3.67781 16.6657 4.5779 16.6657C5.47796 16.6657 6.19958 15.9364 6.19958 15.0269C6.19958 14.1172 5.47796 13.3878 4.5779 13.3878ZM30.0997 13.3878C29.1995 13.3878 28.4772 14.1172 28.4772 15.0269C28.4772 15.9364 29.1995 16.6657 30.0997 16.6657C30.9997 16.6657 31.7215 15.9364 31.7215 15.0269C31.7215 14.1172 30.9997 13.3878 30.0997 13.3878ZM10.2007 19.6126C12.3434 19.6126 13.6986 20.7734 13.8664 22.2409H12.0723C11.827 21.4195 11.0656 20.9268 10.2136 20.9268C8.72927 20.9268 8.03206 21.9016 8.03206 23.4894C8.03206 25.0993 8.72907 26.0521 10.1231 26.0521C11.1815 26.0521 11.827 25.5373 12.0723 24.6284H13.8664C13.505 26.282 12.1626 27.3773 10.1747 27.3773C7.92881 27.3773 6.21214 26.074 6.21214 23.577C6.21214 21.1129 7.74826 19.6126 10.2007 19.6126ZM17.8033 19.6126C19.9719 19.6126 21.1853 20.6093 21.2498 22.0001H19.5459C19.4555 21.2554 18.9263 20.8939 17.8421 20.8939C16.8353 20.8939 16.306 21.2005 16.306 21.7481C16.306 22.2081 16.6805 22.4709 17.6355 22.668C18.6037 22.8652 19.5459 23.0623 20.1783 23.3032C20.927 23.5879 21.5208 24.037 21.5208 25.0664C21.5208 26.6653 20.1009 27.3773 18.1003 27.3773C15.9834 27.3773 14.5118 26.5778 14.4732 24.9461H16.2027C16.2287 25.6908 16.9644 26.1508 18.1132 26.1508C19.1716 26.1508 19.7782 25.7674 19.7782 25.1212C19.7782 24.6941 19.5201 24.3984 18.4488 24.2012C17.3904 24.0042 16.7062 23.8727 16.0995 23.6428C15.183 23.2923 14.6666 22.7666 14.6666 21.8467C14.6666 20.5435 15.7123 19.6126 17.8033 19.6126ZM22.4243 19.8536H24.2186V25.8002H28.4652V27.1255H22.4243V19.8536ZM22.1748 31.6747V34.1552C23.1777 34.3612 23.9375 35.2613 23.9375 36.3338C23.9375 37.5573 22.9487 38.5567 21.7378 38.5567C20.527 38.5567 19.5381 37.5573 19.5381 36.3338C19.5381 35.2613 20.298 34.3612 21.3009 34.1552V32.5576L17.7754 32.5595V38.6012C18.7784 38.8073 19.5381 39.7079 19.5381 40.7804C19.5381 42.004 18.5492 43.0033 17.3385 43.0033C16.1277 43.0033 15.1388 42.004 15.1388 40.7804C15.1388 39.7079 15.8986 38.8073 16.9015 38.6012V32.5599L13.3761 32.5617V34.1556C14.3791 34.3616 15.1388 35.2618 15.1388 36.3343C15.1388 37.5579 14.1499 38.5572 12.9391 38.5572C11.7284 38.5572 10.7395 37.5579 10.7395 36.3343C10.7395 35.2618 11.4992 34.3616 12.5022 34.1556V31.6793L22.1748 31.6747ZM12.9108 34.8066C12.0849 34.8218 11.4273 35.4955 11.4273 36.3338C11.4273 37.1816 12.1 37.862 12.9391 37.862C13.7781 37.862 14.4508 37.1816 14.4508 36.3338C14.4508 35.4955 13.7933 34.8218 12.9675 34.8066H12.9108ZM21.724 34.8066C20.8915 34.8141 20.2262 35.4905 20.2262 36.3338C20.2262 37.1816 20.8988 37.862 21.7378 37.862C22.5769 37.862 23.2502 37.1816 23.2502 36.3338C23.2502 35.4905 22.5842 34.8141 21.7517 34.8066H21.724ZM17.3279 39.2525C16.4938 39.2585 15.8268 39.936 15.8268 40.7802C15.8268 41.6282 16.4995 42.3079 17.3385 42.3079C18.1776 42.3079 18.8509 41.6282 18.8509 40.7802C18.8509 39.936 18.1832 39.2582 17.3492 39.2525H17.3279Z" fill="#808080"/>
<path d="M51.1667 11.7803H49.2402C49.1215 13.0205 48.3429 13.5806 47.1158 13.5806C45.5852 13.5806 44.6878 12.3938 44.6878 10.2735C44.6878 8.12664 45.6247 6.92649 47.1817 6.92649C48.2506 6.92649 48.9499 7.41991 49.2402 8.67337H51.1271C50.9556 6.43313 49.2799 5.21967 47.1158 5.21967C44.3976 5.21967 42.7085 7.09986 42.7085 10.2469C42.7085 13.3672 44.3843 15.2608 47.063 15.2608C49.4514 15.2608 51.048 14.0072 51.1667 11.7803Z" fill="#808080"/>
<path d="M58.7543 7.89996H56.8541L55.3762 13.1405L53.806 7.89996H51.7739L54.4261 15.4074V15.4474C54.4261 16.1275 53.9247 16.6475 53.2781 16.6475C53.133 16.6475 53.0275 16.6341 52.7899 16.5675V17.9677C53.067 18.0077 53.2254 18.0211 53.4497 18.0211C54.6901 18.0211 55.3366 17.7943 55.8249 16.4209L58.7543 7.89996Z" fill="#808080"/>
<path d="M66.5791 11.5937C66.5791 9.55348 65.4574 7.77994 63.5837 7.77994C62.6996 7.77994 62.0662 8.11333 61.6176 8.83342V5.3797H59.7703V15.1007H61.6176V14.274C62.0662 14.8874 62.6864 15.2207 63.5837 15.2207C65.2859 15.2207 66.5791 13.7672 66.5791 11.5937ZM64.7317 11.5137C64.7317 12.8205 64.0851 13.6606 63.1747 13.6606C62.2377 13.6606 61.6176 12.8471 61.6176 11.4736C61.6176 10.1669 62.251 9.34012 63.1747 9.34012C64.0851 9.34012 64.7317 10.1802 64.7317 11.5137Z" fill="#808080"/>
<path d="M73.9814 11.767C73.9814 9.28676 72.7411 7.77994 70.6431 7.77994C68.5978 7.77994 67.3442 9.1801 67.3442 11.5937C67.3442 13.9006 68.5846 15.2207 70.6035 15.2207C72.2001 15.2207 73.4932 14.4874 73.9023 13.0738H72.0814C71.9229 13.5939 71.3425 13.7939 70.6694 13.7939C69.7985 13.7939 69.2443 13.3939 69.1916 11.9937H73.9682L73.9814 11.767ZM72.0549 10.7536H69.2179C69.3367 9.7535 69.7985 9.20676 70.6167 9.20676C71.4084 9.20676 71.9626 9.72682 72.0549 10.7536Z" fill="#808080"/>
<path d="M79.2729 9.6868V7.79326C79.1673 7.77987 79.1014 7.77988 79.0486 7.77988C78.2041 7.77988 77.4652 8.33994 77.0693 9.31338V7.89989H75.2219V15.1007H77.0693V11.2736C77.0693 10.1801 77.6102 9.63341 78.6923 9.63341C78.8902 9.63341 79.0222 9.64686 79.2729 9.6868Z" fill="#808080"/>
<path d="M50.4807 25.5152C50.4807 23.9817 49.7154 23.2616 47.9341 22.9148L46.4297 22.6215C45.0179 22.3414 44.6088 22.0614 44.6088 21.3547C44.6088 20.6213 45.2553 20.1546 46.2714 20.1546C47.525 20.1546 48.2903 20.6879 48.2903 21.6747H50.1377C50.1377 19.6212 48.7126 18.5544 46.3638 18.5544C44.0546 18.5544 42.7218 19.6479 42.7218 21.5415C42.7218 23.0616 43.474 23.7683 45.4268 24.155L46.7729 24.4217C48.0924 24.6884 48.5806 24.9684 48.5806 25.7551C48.5806 26.5686 47.8417 26.9953 46.6409 26.9953C45.295 26.9953 44.4768 26.4219 44.4768 25.3818H42.5503C42.5503 27.462 44.0809 28.5954 46.5353 28.5954C49.016 28.5954 50.4807 27.4887 50.4807 25.5152Z" fill="#808080"/>
<path d="M57.8568 25.1017C57.8568 22.6216 56.6165 21.1147 54.5183 21.1147C52.473 21.1147 51.2195 22.5149 51.2195 24.9284C51.2195 27.2353 52.4599 28.5555 54.4788 28.5555C56.0754 28.5555 57.3686 27.822 57.7776 26.4086H55.9567C55.7983 26.9287 55.2177 27.1286 54.5447 27.1286C53.6739 27.1286 53.1197 26.7286 53.0668 25.3285H57.8436L57.8568 25.1017ZM55.9303 24.0884H53.0933C53.212 23.0882 53.6739 22.5415 54.492 22.5415C55.2836 22.5415 55.8379 23.0615 55.9303 24.0884Z" fill="#808080"/>
<path d="M65.1539 25.9419H63.3858C63.1482 26.6886 62.7788 27.0486 62.0662 27.0486C61.1293 27.0486 60.562 26.2885 60.562 24.8884C60.562 23.5683 60.905 22.6216 62.0662 22.6216C62.8183 22.6216 63.1746 22.9816 63.3858 23.9283H65.1539C65.022 22.1681 63.8608 21.1147 62.0794 21.1147C59.9549 21.1147 58.7146 22.4348 58.7146 24.8884C58.7146 27.262 59.9417 28.5555 62.053 28.5555C63.7816 28.5555 64.9824 27.4754 65.1539 25.9419Z" fill="#808080"/>
<path d="M72.7414 28.4355V21.2347H70.894V25.5552C70.894 26.4086 70.3002 26.9686 69.4029 26.9686C68.6111 26.9686 68.2153 26.542 68.2153 25.6751V21.2347H66.3679V26.0619C66.3679 27.6487 67.2388 28.5555 68.7564 28.5555C69.7196 28.5555 70.3661 28.1955 70.894 27.4887V28.4355H72.7414Z" fill="#808080"/>
<path d="M78.5473 23.0216V21.128C78.4417 21.1147 78.3758 21.1147 78.3229 21.1147C77.4785 21.1147 76.7395 21.6747 76.3436 22.6481V21.2346H74.4963V28.4354H76.3436V24.6084C76.3436 23.5149 76.8847 22.9682 77.9667 22.9682C78.1646 22.9682 78.2965 22.9816 78.5473 23.0216Z" fill="#808080"/>
<path d="M81.5291 28.4355V21.2347H79.6819V28.4355H81.5291ZM81.5556 20.368V18.5011H79.7082V20.368H81.5556Z" fill="#808080"/>
<path d="M86.438 28.4354V27.1286C86.2532 27.1553 86.1477 27.1686 86.0157 27.1686C85.5274 27.1686 85.4087 27.022 85.4087 26.3819V22.6214H86.438V21.3814H85.4087V19.4478H83.5613V21.3814H82.6509V22.6214H83.5613V26.8886C83.5613 28.022 84.1551 28.4888 85.3691 28.4888C85.7782 28.4888 86.108 28.4488 86.438 28.4354Z" fill="#808080"/>
<path d="M93.9594 21.2347H92.0593L90.5814 26.4752L89.0112 21.2347H86.979L89.6313 28.7422V28.7822C89.6313 29.4623 89.1299 29.9824 88.4833 29.9824C88.3381 29.9824 88.2326 29.9689 87.9951 29.9023V31.3024C88.2722 31.3425 88.4305 31.3558 88.6548 31.3558C89.8952 31.3558 90.5418 31.1291 91.0301 29.7556L93.9594 21.2347Z" fill="#808080"/>
<path d="M49.7681 41.7702V40.1033H45.1629V32.0491H43.1836V41.7702H49.7681Z" fill="#808080"/>
<path d="M57.1048 41.7702V41.5435C56.7748 41.2368 56.6825 41.0367 56.6825 40.6634V36.663C56.6825 35.1962 55.6928 34.4495 53.7663 34.4495C51.8398 34.4495 50.837 35.2762 50.7182 36.943H52.4995C52.5919 36.1963 52.8954 35.9562 53.8059 35.9562C54.5185 35.9562 54.8748 36.1963 54.8748 36.6763C54.8748 37.4364 54.3206 37.3564 53.3968 37.5164L52.6579 37.6498C51.246 37.9032 50.5598 38.5165 50.5598 39.8234C50.5598 41.2235 51.5363 41.8902 52.7239 41.8902C53.5156 41.8902 54.2413 41.5435 54.888 40.8634C54.888 41.2368 54.9275 41.5568 55.0991 41.7702H57.1048ZM54.8748 38.6898C54.8748 39.77 54.3469 40.3834 53.4101 40.3834C52.7898 40.3834 52.4072 40.1434 52.4072 39.61C52.4072 39.0633 52.6975 38.8633 53.4628 38.7165L54.0962 38.5965C54.5845 38.5032 54.6636 38.4766 54.8748 38.3699V38.6898Z" fill="#808080"/>
<path d="M65.1141 38.2632C65.1141 36.223 63.9926 34.4494 62.1188 34.4494C61.2347 34.4494 60.6014 34.7827 60.1528 35.5029V32.0491H58.3054V41.7702H60.1528V40.9434C60.6014 41.5568 61.2216 41.8902 62.1188 41.8902C63.8211 41.8902 65.1141 40.4366 65.1141 38.2632ZM63.2668 38.1832C63.2668 39.4899 62.6203 40.3301 61.7098 40.3301C60.7729 40.3301 60.1528 39.5166 60.1528 38.1431C60.1528 36.8363 60.7861 36.0096 61.7098 36.0096C62.6203 36.0096 63.2668 36.8496 63.2668 38.1832Z" fill="#808080"/>
</g>
<defs>
<clipPath id="clip0_5_8">
<rect width="94" height="47" fill="white"/>
</clipPath>
</defs>
</svg>
