<svg width="625" height="420" viewBox="0 0 625 420" fill="none" xmlns="http://www.w3.org/2000/svg">
<path fill-rule="evenodd" clip-rule="evenodd" d="M0 0H423V0.0205078C423.168 0.0134277 423.336 0.00805664 423.504 0.00463867C423.596 0.00268555 423.687 0.00146484 423.779 0.000732422L423.962 0C436.916 0 447.476 11.1006 447.981 25H448L448 75C448 88.8071 459.193 100 473 100H600V100.021C600.319 100.007 600.64 100 600.962 100C613.916 100 624.476 111.101 624.981 125H625V420H202V419.979C201.681 419.993 201.36 420 201.038 420C188.084 420 177.524 408.9 177.019 395H177L177 345C177 331.193 165.807 320 152 320H25V319.979C24.681 319.993 24.3605 320 24.0385 320C11.0844 320 0.523605 308.9 0.0188904 295H0V0Z" fill="#D9D9D9"/>
</svg>
