<svg width="625" height="420" viewBox="0 0 625 420" fill="none" xmlns="http://www.w3.org/2000/svg">
<g clip-path="url(#clip0_1937_2386)">
<path d="M625 0H202V0.0205078C201.832 0.0134277 201.664 0.00805664 201.496 0.00463867C201.404 0.00268555 201.313 0.00146484 201.221 0.000732422L201.038 0C188.084 0 177.524 11.1006 177.019 25H177V75C177 88.8071 165.807 100 152 100H25V100.021C24.681 100.007 24.36 100 24.038 100C11.084 100 0.523982 111.101 0.0189819 125H0V420H423V419.979C423.319 419.993 423.64 420 423.962 420C436.916 420 447.476 408.9 447.981 395H448V345C448 331.193 459.193 320 473 320H600V319.979C600.319 319.993 600.64 320 600.962 320C613.916 320 624.476 308.9 624.981 295H625V0Z" fill="#D9D9D9"/>
</g>
<defs>
<clipPath id="clip0_1937_2386">
<rect width="625" height="420" fill="white" transform="matrix(-1 0 0 1 625 0)"/>
</clipPath>
</defs>
</svg>
