<svg width="625" height="420" viewBox="0 0 625 420" fill="none" xmlns="http://www.w3.org/2000/svg" shape-rendering="crispEdges">
<path d="M625 100L473 100C459.193 100 448 88.8071 448 75L448 0L625 1.54738e-05V100Z" fill="white"/>
<path d="M423 0.020461C423.319 0.00686926 423.64 8.54853e-06 423.962 8.56443e-06C436.916 9.20428e-06 447.476 11.1005 447.981 25H448V0L423.962 8.56443e-06L423 6.60959e-06V0.020461Z" fill="white"/>
<path d="M600 100.02C600.319 100.007 600.64 100 600.962 100C613.916 100 624.476 111.1 624.981 125H625V100H600.962H600V100.02Z" fill="white"/>
<path d="M0 320H152C165.807 320 177 331.193 177 345V420L0 420V320Z" fill="white"/>
<path d="M202 419.98C201.681 419.993 201.36 420 201.038 420C188.084 420 177.524 408.9 177.019 395H177L177 420H201.038H202V419.98Z" fill="white"/>
<path d="M25 319.98C24.681 319.993 24.3605 320 24.0385 320C11.0844 320 0.523605 308.9 0.0188904 295H0V320H24.0385H25V319.98Z" fill="white"/>
</svg>
