<svg width="625" height="420" viewBox="0 0 625 420" fill="none" xmlns="http://www.w3.org/2000/svg" shape-rendering="crispEdges">
<path d="M0 100L152 100C165.807 100 177 88.8071 177 75L177 0L0 1.54738e-05V100Z" fill="white"/>
<path d="M202 0.020461C201.681 0.00686926 201.36 8.54853e-06 201.038 8.56443e-06C188.084 9.20428e-06 177.524 11.1005 177.019 25H177V0L201.038 8.56443e-06L202 6.60959e-06V0.020461Z" fill="white"/>
<path d="M25 100.02C24.681 100.007 24.3605 100 24.0385 100C11.0844 100 0.523635 111.1 0.0189209 125H0V100H24.0385H25V100.02Z" fill="white"/>
<path d="M625 320H473C459.193 320 448 331.193 448 345V420L625 420V320Z" fill="white"/>
<path d="M423 419.98C423.319 419.993 423.64 420 423.962 420C436.916 420 447.476 408.9 447.981 395H448L448 420H423.962H423V419.98Z" fill="white"/>
<path d="M600 319.98C600.319 319.993 600.64 320 600.962 320C613.916 320 624.476 308.9 624.981 295H625V320H600.962H600V319.98Z" fill="white"/>
</svg>
