<svg width="2835" height="2097" viewBox="0 0 2835 2097" fill="none" xmlns="http://www.w3.org/2000/svg">
<mask id="mask0_1530_1738" style="mask-type:luminance" maskUnits="userSpaceOnUse" x="136" y="144" width="2562" height="1670">
<path d="M136 144H2698V1814H136V144Z" fill="white"/>
</mask>
<g mask="url(#mask0_1530_1738)">
<mask id="mask1_1530_1738" style="mask-type:luminance" maskUnits="userSpaceOnUse" x="136" y="144" width="2562" height="1670">
<path d="M1913.6 1813.15C1326.95 1813.15 483.406 1798.42 483.406 1798.42C271.762 1777.97 104.492 1649.37 142.039 1406.46C179.594 1163.56 370.754 1099.26 421.961 963.512C473.164 827.77 363.93 634.871 483.406 474.121C602.883 313.379 879.391 402.68 1046.66 345.531C1205.2 291.352 1311.62 144.109 1490.88 144.109C1500.75 144.109 1510.82 144.551 1521.15 145.48C1719.15 163.34 1831.8 431.262 1971.76 449.121C1982.58 450.5 1993.49 451.109 2004.47 451.109C2047.32 451.109 2091.41 441.801 2136.75 432.488C2182.08 423.18 2228.67 413.871 2276.48 413.871C2327.13 413.871 2379.16 424.309 2432.6 456.262C2599.87 556.281 2497.46 995.148 2552.07 1115.08C2606.69 1235 2733 1370.4 2688.62 1536.68C2644.24 1702.96 2545.25 1765.3 2463.32 1798.42C2436.01 1809.47 2206.89 1813.15 1913.6 1813.15ZM1917.77 1312.67L1880.93 1150.57L1822.84 960.57L1684.77 985.449L1494.9 945.488L1562 1150.57L1542.4 1312.67H1917.77Z" fill="white"/>
</mask>
<g mask="url(#mask1_1530_1738)">
<mask id="mask2_1530_1738" style="mask-type:luminance" maskUnits="userSpaceOnUse" x="136" y="144" width="2562" height="1670">
<path d="M1913.6 1813.15C1326.95 1813.15 483.406 1798.42 483.406 1798.42C271.762 1777.97 104.492 1649.37 142.039 1406.46C179.594 1163.56 370.754 1099.26 421.961 963.512C473.164 827.77 363.93 634.871 483.406 474.121C602.883 313.379 879.391 402.68 1046.66 345.531C1205.2 291.352 1311.62 144.109 1490.88 144.109C1500.75 144.109 1510.82 144.551 1521.15 145.48C1719.15 163.34 1831.8 431.262 1971.76 449.121C1982.58 450.5 1993.49 451.109 2004.47 451.109C2047.32 451.109 2091.41 441.801 2136.75 432.488C2182.08 423.18 2228.67 413.871 2276.48 413.871C2327.13 413.871 2379.16 424.309 2432.6 456.262C2599.87 556.281 2497.46 995.148 2552.07 1115.08C2606.69 1235 2733 1370.4 2688.62 1536.68C2644.24 1702.96 2545.25 1765.3 2463.32 1798.42C2436.01 1809.47 2206.89 1813.15 1913.6 1813.15ZM1917.77 1312.67L1880.93 1150.57L1822.84 960.57L1684.77 985.449L1494.9 945.488L1562 1150.57L1542.4 1312.67H1917.77Z" fill="white"/>
</mask>
<g mask="url(#mask2_1530_1738)">
<path d="M104.492 1813.15H2733V144.109H104.492V1813.15Z" fill="url(#paint0_linear_1530_1738)"/>
</g>
</g>
</g>
<path d="M1983.25 1589.81C1986.79 1597.57 1989.32 1606.71 1989.25 1615.83C1989.14 1633.19 1979.78 1646.2 1969.63 1651.51C1961.27 1655.89 1952.27 1656.46 1943.46 1657.62C1941.23 1657.91 1938.99 1658.22 1936.77 1658.66C1936.3 1658.75 1935.84 1658.89 1935.36 1659.04C1934.85 1659.19 1934.34 1659.36 1933.83 1659.46C1933.04 1659.64 1932.26 1659.71 1931.48 1659.52C1928.8 1658.85 1927.53 1655.16 1927 1651.49C1926.54 1648.31 1926.5 1645.08 1925.94 1641.91C1925.31 1638.47 1924.35 1635.14 1923.06 1632.09C1919.44 1623.5 1913.66 1617.5 1908.33 1611.16C1902.98 1604.81 1897.68 1597.33 1895.77 1587.89C1893.38 1576 1897.06 1563.85 1902.66 1555.79C1905.47 1551.76 1908.82 1548.38 1910.76 1543.31C1914 1534.88 1912.6 1523.34 1909.28 1513.63C1905.97 1503.9 1900.99 1495.36 1896.71 1486.31C1894.01 1480.58 1891.44 1473.7 1892.6 1467.88C1893.46 1463.61 1896.13 1461.05 1898.58 1458.55C1903.27 1453.74 1907.87 1447.18 1907.35 1437.99C1906.94 1430.73 1903.44 1423.8 1900.57 1417.03C1897.71 1410.23 1895.28 1401.98 1897.29 1396.17C1898.91 1391.52 1902.9 1389.99 1906.6 1388.77C1913.26 1386.59 1920.92 1384.63 1927.87 1390.91C1931.3 1394.04 1934.02 1398.8 1936.42 1403.61C1939.71 1410.15 1942.73 1417.61 1942.72 1424.76C1942.71 1428.13 1942.03 1431.17 1941.68 1434.37C1940.76 1442.55 1941.96 1451.9 1944.99 1460.24C1952.75 1481.77 1970.96 1493.06 1978.32 1515.26C1982.35 1527.47 1982.11 1541.85 1977.81 1551.86C1976.74 1554.37 1975.43 1556.66 1974.79 1559.56C1973.69 1564.58 1974.81 1570.6 1976.67 1575.65C1978.52 1580.69 1981.08 1585.05 1983.25 1589.81Z" fill="#646EDC"/>
<path d="M1920.48 1419.4C1934.44 1499.3 1939.3 1579.69 1935.36 1659.04C1934.85 1659.19 1934.34 1659.36 1933.83 1659.46C1937.8 1579.99 1932.95 1499.48 1918.96 1419.46C1919.46 1419.44 1919.97 1419.42 1920.48 1419.4Z" fill="#A6BEFF"/>
<path d="M1231.96 1449.46L1232.06 1450.13C1235.23 1471.46 1236.22 1492 1235.31 1510.73C1235.27 1511.58 1235.23 1512.42 1235.18 1513.25C1232.33 1562.16 1216.38 1598.13 1192.25 1602.55C1191.95 1602.59 1191.66 1602.65 1191.38 1602.69C1191.09 1602.73 1190.8 1602.77 1190.51 1602.81C1166.81 1605.61 1141.7 1577.58 1124.62 1533.8C1124.32 1533.04 1124.02 1532.26 1123.73 1531.49C1117.08 1513.96 1111.71 1493.99 1108.2 1472.53C1108.08 1471.84 1107.97 1471.15 1107.87 1470.46C1107.75 1469.69 1107.63 1468.94 1107.52 1468.17C1104.81 1450.21 1103.65 1432.8 1103.87 1416.55C1103.88 1415.91 1103.89 1415.27 1103.9 1414.64C1104.21 1398.9 1105.83 1384.3 1108.6 1371.37C1108.72 1370.79 1108.85 1370.23 1108.99 1369.65C1115.85 1339.12 1129.29 1318.37 1147.23 1315.08C1147.53 1315.04 1147.82 1314.98 1148.1 1314.94C1148.39 1314.9 1148.68 1314.86 1148.97 1314.82C1166.69 1312.73 1185.18 1327.85 1200.52 1353.92C1200.83 1354.42 1201.13 1354.94 1201.42 1355.46C1207.84 1366.61 1213.68 1379.69 1218.66 1394.21C1218.87 1394.82 1219.08 1395.43 1219.28 1396.05C1224.58 1411.9 1228.87 1429.42 1231.74 1448.02V1448.03C1231.82 1448.5 1231.89 1448.97 1231.96 1449.46Z" fill="#788CFA"/>
<path d="M1148.97 1314.82L1192.25 1602.55C1191.95 1602.59 1191.66 1602.65 1191.38 1602.69C1191.09 1602.73 1190.8 1602.77 1190.51 1602.81L1147.23 1315.08C1147.53 1315.04 1147.82 1314.98 1148.1 1314.94C1148.39 1314.9 1148.68 1314.86 1148.97 1314.82Z" fill="#9BABFE"/>
<path d="M1201.42 1355.46L1160.1 1388.79L1159.32 1389.41L1158.36 1389.07L1108.6 1371.37C1108.72 1370.79 1108.85 1370.23 1108.99 1369.65L1158.07 1387.1L1158.99 1387.43L1159.79 1386.77L1200.52 1353.92C1200.83 1354.42 1201.13 1354.94 1201.42 1355.46Z" fill="#9BABFE"/>
<path d="M1219.28 1396.05L1168.36 1443.74L1167.6 1444.46L1166.63 1444.04L1103.87 1416.55C1103.88 1415.91 1103.89 1415.27 1103.9 1414.64L1166.32 1441.98L1167.24 1442.38L1168.04 1441.63L1218.66 1394.21C1218.87 1394.82 1219.08 1395.43 1219.28 1396.05Z" fill="#9BABFE"/>
<path d="M1231.96 1449.46L1232.06 1450.13L1177.07 1501.64L1176.31 1502.36L1175.34 1501.93L1108.2 1472.53C1108.08 1471.84 1107.97 1471.15 1107.87 1470.46L1175.03 1499.88L1175.95 1500.28L1176.75 1499.53L1231.74 1448.03C1231.82 1448.5 1231.89 1448.97 1231.96 1449.46Z" fill="#9BABFE"/>
<path d="M1235.31 1510.73C1235.27 1511.58 1235.23 1512.42 1235.18 1513.25L1185.77 1559.53L1185.01 1560.25L1184.04 1559.82L1124.62 1533.8C1124.32 1533.04 1124.02 1532.26 1123.73 1531.49L1183.73 1557.77L1184.66 1558.18L1185.46 1557.42L1235.31 1510.73Z" fill="#9BABFE"/>
<path d="M1320.39 1530.3L1320.2 1530.86C1314.12 1548.84 1306.65 1565.33 1298.41 1579.62C1298.05 1580.27 1297.68 1580.91 1297.3 1581.55C1275.44 1618.7 1248.5 1640.46 1227.83 1634.24C1227.58 1634.15 1227.34 1634.08 1227.09 1634C1226.85 1633.92 1226.61 1633.83 1226.36 1633.74C1206.68 1626.42 1198.27 1594.39 1202.47 1553.25C1202.54 1552.53 1202.62 1551.81 1202.7 1551.08C1204.53 1534.68 1208.35 1516.89 1214.21 1498.68C1214.4 1498.09 1214.59 1497.51 1214.79 1496.92C1215 1496.27 1215.21 1495.64 1215.43 1494.99C1220.52 1479.84 1226.6 1465.74 1233.29 1453.1C1233.56 1452.6 1233.82 1452.11 1234.09 1451.62C1240.65 1439.42 1247.78 1428.63 1255.14 1419.62C1255.46 1419.22 1255.79 1418.82 1256.13 1418.43C1273.77 1397.27 1292.62 1386.42 1307.99 1391.05C1308.24 1391.13 1308.49 1391.21 1308.73 1391.29C1308.97 1391.37 1309.21 1391.46 1309.46 1391.54C1324.17 1397.02 1332.58 1416.29 1334.13 1442.85C1334.17 1443.37 1334.19 1443.9 1334.21 1444.42C1334.76 1455.74 1334.09 1468.32 1332.16 1481.7C1332.07 1482.26 1331.99 1482.82 1331.9 1483.38C1329.69 1497.92 1326.02 1513.36 1320.8 1529.08H1320.79C1320.67 1529.49 1320.53 1529.89 1320.39 1530.3Z" fill="#8C9EFE"/>
<path d="M1309.46 1391.54L1227.83 1634.24C1227.58 1634.15 1227.34 1634.08 1227.09 1634C1226.85 1633.92 1226.61 1633.83 1226.36 1633.74L1307.99 1391.05C1308.24 1391.13 1308.49 1391.21 1308.73 1391.29C1308.97 1391.37 1309.21 1391.46 1309.46 1391.54Z" fill="#9BABFE"/>
<path d="M1334.21 1444.42L1288.47 1453.94L1287.61 1454.11L1287 1453.46L1255.14 1419.62C1255.46 1419.22 1255.79 1418.82 1256.13 1418.43L1287.56 1451.8L1288.15 1452.42L1289.04 1452.24L1334.13 1442.85C1334.17 1443.37 1334.19 1443.9 1334.21 1444.42Z" fill="#9BABFE"/>
<path d="M1331.9 1483.38L1272.88 1500.29L1272 1500.54L1271.41 1499.82L1233.29 1453.1C1233.56 1452.6 1233.82 1452.11 1234.09 1451.62L1271.99 1498.09L1272.55 1498.77L1273.48 1498.51L1332.16 1481.7C1332.07 1482.26 1331.99 1482.82 1331.9 1483.38Z" fill="#9BABFE"/>
<path d="M1320.39 1530.3L1320.2 1530.86L1256.46 1549.12L1255.57 1549.38L1254.98 1548.66L1214.21 1498.68C1214.4 1498.09 1214.59 1497.51 1214.79 1496.92L1255.57 1546.92L1256.13 1547.61L1257.06 1547.34L1320.79 1529.08C1320.67 1529.49 1320.53 1529.89 1320.39 1530.3Z" fill="#9BABFE"/>
<path d="M1298.41 1579.62C1298.05 1580.27 1297.68 1580.91 1297.3 1581.55L1240.03 1597.95L1239.15 1598.21L1238.56 1597.48L1202.47 1553.25C1202.54 1552.53 1202.62 1551.81 1202.7 1551.08L1239.14 1595.75L1239.7 1596.44L1240.63 1596.17L1298.41 1579.62Z" fill="#9BABFE"/>
<path d="M2063.73 1622.12C2065.36 1636.24 2064.68 1652.04 2059.87 1666.48C2050.76 1693.94 2029.22 1709.76 2010.38 1712.95C1994.88 1715.61 1980.3 1711.88 1965.74 1709.18C1962.05 1708.5 1958.34 1707.84 1954.6 1707.4C1953.8 1707.3 1952.99 1707.28 1952.17 1707.27C1951.28 1707.25 1950.38 1707.24 1949.51 1707.15C1948.18 1707.02 1946.9 1706.73 1945.77 1706.03C1941.86 1703.59 1941.74 1697.08 1942.78 1690.99C1943.69 1685.71 1945.29 1680.57 1946.03 1675.25C1946.81 1669.48 1947.01 1663.7 1946.53 1658.2C1945.2 1642.71 1939.12 1630.21 1933.93 1617.42C1928.72 1604.61 1924.15 1590 1926 1574.05C1928.32 1553.96 1940.4 1536.6 1953.44 1526.69C1959.96 1521.75 1967.02 1518.1 1972.71 1511.06C1982.18 1499.36 1985.9 1480.34 1985.64 1463.23C1985.38 1446.1 1981.88 1430 1979.75 1413.44C1978.41 1402.96 1977.89 1390.72 1982.72 1382.1C1986.27 1375.76 1991.83 1373.08 1997 1370.37C2006.91 1365.16 2017.58 1357.11 2021.49 1342.27C2024.57 1330.56 2022.58 1317.76 2021.53 1305.54C2020.48 1293.29 2020.87 1278.95 2027.06 1270.78C2032.02 1264.24 2039.13 1263.85 2045.63 1263.83C2057.31 1263.81 2070.48 1264.63 2078.25 1278.17C2082.1 1284.9 2083.96 1293.85 2085.29 1302.71C2087.13 1314.78 2088.09 1328.16 2084.39 1339.5C2082.64 1344.83 2080.01 1349.3 2077.8 1354.19C2072.13 1366.7 2069.22 1382.15 2069.74 1396.93C2070.97 1435.08 2094.04 1462.34 2094.29 1501.35C2094.39 1522.78 2086.62 1545.46 2074.65 1559.13C2071.65 1562.56 2068.4 1565.51 2065.89 1569.79C2061.57 1577.19 2060.24 1587.31 2060.59 1596.26C2060.93 1605.21 2062.75 1613.45 2063.73 1622.12Z" fill="#6E82E6"/>
<path d="M2051.89 1319.56C2032.91 1453.46 1999.24 1583.45 1952.17 1707.27C1951.28 1707.25 1950.38 1707.24 1949.51 1707.15C1996.72 1583.16 2030.45 1452.97 2049.43 1318.87C2050.25 1319.1 2051.07 1319.33 2051.89 1319.56Z" fill="#A6BEFF"/>
<path d="M421.629 1849.54C429.367 1710.4 516.207 1656.24 629.699 1575.42C743.191 1494.59 779.305 1381.1 901.395 1381.1C1032.08 1381.1 1085.87 1525.45 1209.68 1570.15C1333.49 1614.86 1375.99 1647.61 1404.37 1736.2C1440.69 1849.54 421.629 1849.54 421.629 1849.54Z" fill="#96B4FF"/>
<path d="M1445.37 1783.48C1485.55 1642.36 1759.18 1703.05 1841.22 1680.96C1952.28 1651.06 1997.85 1440.2 2114.61 1438.13C2231.37 1436.05 2268.39 1643.94 2325.35 1712.29C2382.3 1780.64 2419.33 1879.56 2348.13 1884.21C2276.93 1888.85 1445.37 1783.48 1445.37 1783.48Z" fill="#96B4FF"/>
<path d="M408.039 1784.7C450.254 1812.28 468.809 1860.19 471.832 1868.64C472.129 1869.49 472.277 1869.94 472.277 1869.94C472.277 1869.94 471.809 1869.98 470.914 1870.05C461.961 1870.68 410.633 1872.93 368.418 1845.35C326.195 1817.77 307.637 1769.86 304.617 1761.41C304.32 1760.56 304.172 1760.11 304.172 1760.11C304.172 1760.11 304.641 1760.07 305.535 1760C314.488 1759.37 365.816 1757.12 408.039 1784.7Z" fill="#788CFA"/>
<path d="M305.535 1760L471.832 1868.64C472.129 1869.49 472.277 1869.94 472.277 1869.94C472.277 1869.94 471.809 1869.98 470.914 1870.05L304.617 1761.41C304.32 1760.56 304.172 1760.11 304.172 1760.11C304.172 1760.11 304.641 1760.07 305.535 1760Z" fill="#B4C0FF"/>
<path d="M595.555 1747.34C582.191 1806.4 536.039 1847.35 527.789 1854.29C526.965 1854.98 526.523 1855.34 526.523 1855.34C526.523 1855.34 526.277 1854.83 525.828 1853.85C521.367 1844.03 497.34 1787.21 510.703 1728.14C524.066 1669.07 570.219 1628.13 578.469 1621.19C579.293 1620.5 579.734 1620.14 579.734 1620.14C579.734 1620.14 579.98 1620.65 580.43 1621.63C584.891 1631.45 608.918 1688.27 595.555 1747.34Z" fill="#788CFA"/>
<path d="M580.43 1621.63L527.789 1854.29C526.965 1854.98 526.523 1855.34 526.523 1855.34C526.523 1855.34 526.277 1854.83 525.828 1853.85L578.469 1621.19C579.293 1620.5 579.734 1620.14 579.734 1620.14C579.734 1620.14 579.98 1620.65 580.43 1621.63Z" fill="#B4C0FF"/>
<path d="M486.055 1724.68C507.695 1788.62 476.688 1856.81 472.875 1868.21C472.492 1869.34 472.277 1869.94 472.277 1869.94C472.277 1869.94 471.746 1869.59 470.75 1868.92C460.801 1862.18 404.902 1822.12 383.262 1758.18C361.617 1694.23 381.691 1628.45 385.504 1617.05C385.887 1615.91 386.102 1615.32 386.102 1615.32C386.102 1615.32 386.633 1615.66 387.629 1616.33C397.574 1623.07 464.41 1660.73 486.055 1724.68Z" fill="#788CFA"/>
<path d="M387.629 1616.33L472.875 1868.21C472.492 1869.34 472.277 1869.94 472.277 1869.94C472.277 1869.94 471.746 1869.59 470.75 1868.92L385.504 1617.05C385.887 1615.91 386.102 1615.32 386.102 1615.32C386.102 1615.32 386.633 1615.66 387.629 1616.33Z" fill="#B4C0FF"/>
<path d="M2221.08 1702.6C2243.47 1773.52 2219.87 1845.53 2215.42 1857.99C2214.96 1859.24 2214.72 1859.89 2214.72 1859.89C2214.72 1859.89 2214.14 1859.5 2213.06 1858.74C2202.25 1851.09 2141.58 1805.69 2119.2 1734.77C2096.8 1663.84 2120.4 1591.84 2124.86 1579.37C2125.31 1578.13 2125.56 1577.48 2125.56 1577.48C2125.56 1577.48 2126.13 1577.86 2127.22 1578.63C2138.02 1586.27 2198.69 1631.67 2221.08 1702.6Z" fill="#646EDC"/>
<path d="M2127.22 1578.63L2215.42 1857.99C2214.96 1859.24 2214.72 1859.89 2214.72 1859.89C2214.72 1859.89 2214.14 1859.5 2213.06 1858.74L2124.86 1579.37C2125.31 1578.13 2125.56 1577.48 2125.56 1577.48C2125.56 1577.48 2126.13 1577.86 2127.22 1578.63Z" fill="#B4C0FF"/>
<path d="M2469.94 1835.23C2399.5 1890.12 2308.57 1893.71 2292.68 1893.92C2291.09 1893.93 2290.25 1893.93 2290.25 1893.93C2290.25 1893.93 2290.45 1893.11 2290.85 1891.58C2294.94 1876.21 2320.63 1788.92 2391.08 1734.02C2461.53 1679.12 2552.46 1675.53 2568.35 1675.32C2569.94 1675.31 2570.78 1675.32 2570.78 1675.32C2570.78 1675.32 2570.58 1676.13 2570.18 1677.67C2566.09 1693.03 2540.4 1780.32 2469.94 1835.23Z" fill="#788CFA"/>
<path d="M2570.18 1677.67L2292.68 1893.92C2291.09 1893.93 2290.25 1893.93 2290.25 1893.93C2290.25 1893.93 2290.45 1893.11 2290.85 1891.58L2568.35 1675.32C2569.94 1675.31 2570.78 1675.32 2570.78 1675.32C2570.78 1675.32 2570.58 1676.13 2570.18 1677.67Z" fill="#B4C0FF"/>
<path d="M2366.19 1707.04C2331.12 1800.21 2232.02 1849.03 2217.02 1858.47C2215.51 1859.41 2214.72 1859.89 2214.72 1859.89C2214.72 1859.89 2214.43 1859 2213.92 1857.31C2208.87 1840.32 2182.54 1742.36 2217.6 1649.19C2252.68 1556 2337.06 1499.71 2352.06 1490.26C2353.56 1489.32 2354.36 1488.85 2354.36 1488.85C2354.36 1488.85 2354.64 1489.73 2355.16 1491.43C2360.21 1508.42 2401.26 1613.85 2366.19 1707.04Z" fill="#788CFA"/>
<path d="M2355.16 1491.43L2217.02 1858.47C2215.51 1859.41 2214.72 1859.89 2214.72 1859.89C2214.72 1859.89 2214.43 1859 2213.92 1857.31L2352.06 1490.26C2353.56 1489.32 2354.36 1488.85 2354.36 1488.85C2354.36 1488.85 2354.64 1489.73 2355.16 1491.43Z" fill="#B4C0FF"/>
<path d="M2530.48 1866.25L2498.58 1858.32C1777.37 1678.96 1022.54 1684.75 304.172 1875.14C508.539 1921.05 922.184 1952.44 1399.21 1952.44C1906.41 1952.44 2341.95 1916.95 2530.48 1866.25Z" fill="#BFD2FA"/>
<path d="M1915.8 661.18C1912.58 659.34 1908.74 658.91 1905.03 659C1895.63 659.238 1886.61 662.539 1877.79 665.801C1885.81 657.301 1885.88 644.262 1885.46 632.578C1885.41 630.981 1885.34 629.352 1884.79 627.84C1884.07 625.871 1882.56 624.27 1880.85 623.059C1872.19 616.941 1859.42 620.82 1852.35 628.731C1845.28 636.629 1842.51 647.371 1840 657.672C1840.44 650.059 1840.58 642.262 1838.21 635.012C1835.84 627.77 1830.51 621.09 1823.18 618.988C1816.19 616.988 1808.09 619.762 1803.79 625.629C1800.75 629.781 1799.63 635.078 1799.61 640.231C1799.6 643.012 1799.92 645.789 1800.52 648.512C1801.58 653.301 1803.55 657.879 1806.26 661.969C1807.62 664.02 1809.16 665.941 1810.87 667.699C1812.07 668.941 1814.83 670.481 1815.34 672.141C1812.79 671.359 1810.26 668.891 1808.2 667.238C1805.86 665.371 1803.56 663.441 1801 661.871C1795.71 658.621 1789.4 657.031 1783.2 657.391C1777.3 657.731 1770.61 660.84 1769.74 666.68C1769.1 670.941 1771.96 675.121 1775.66 677.328C1779.36 679.539 1783.75 680.191 1788.03 680.75C1792.79 681.371 1797.56 681.941 1802.34 682.449L1749.95 685.231H1845.44L1845.38 685.219C1864.07 685.602 1882.76 684.828 1901.32 682.609C1907.07 681.922 1913.17 680.941 1917.5 677.09C1919.49 675.32 1921.03 672.891 1921.21 670.231C1921.47 666.531 1919.01 663.02 1915.8 661.18Z" fill="white"/>
<path d="M2328.21 809.391C2323.21 792.078 2291.07 785.43 2285.04 800.449C2299.52 764.371 2259.9 750.41 2239.89 751.231C2215.14 752.238 2198.46 774.852 2193.73 791.16C2201.2 765.422 2200.13 727.738 2173.26 711.051C2120.17 691.789 2085.47 746.07 2116.14 792.41C2101.42 774.871 2056.39 745.57 2040.88 773.34C2032.95 793.879 2037.41 820.559 2057.1 832.398L1990.77 839.41C2025.79 828.238 2345.74 868.691 2328.21 809.391Z" fill="white"/>
<path d="M2007.35 1463.64C2009.28 1463.64 2009.28 1460.64 2007.35 1460.64C2005.42 1460.64 2005.42 1463.64 2007.35 1463.64Z" fill="#FAA590"/>
<path d="M1575.84 1149.21L1575.47 1152.2L1557.71 1299.1H1900.77L1867.8 1154.06L1813.38 976.07L1687.18 998.809L1684.57 999.281L1681.98 998.73L1515.11 963.609L1574.9 1146.35L1575.84 1149.21Z" fill="#CCDBFB"/>
<path d="M1681.98 998.73L1684.57 999.281L1687.18 998.809L1813.38 976.07L1867.8 1154.06L1900.77 1299.1H1557.71L1575.47 1152.2L1575.84 1149.21L1574.9 1146.35L1515.11 963.609L1681.98 998.73ZM1917.77 1312.67L1880.93 1150.57L1822.84 960.57L1684.77 985.449L1494.9 945.488L1562 1150.57L1542.4 1312.67H1917.77Z" fill="white"/>
<path d="M1716.41 1165.7L1575.84 1149.21L1574.9 1146.35L1515.11 963.609L1681.98 998.73L1684.57 999.281L1687.18 998.809L1716.41 1165.7Z" fill="#BDCFF9"/>
<path d="M1562 1150.57L1494.9 945.488L1684.77 985.449L1687.18 998.809L1684.57 999.281L1681.98 998.73L1515.11 963.609L1574.9 1146.35L1575.84 1149.21L1562 1150.57Z" fill="#ECF1FD"/>
<path d="M1900.77 1299.1H1739.78L1716.41 1165.7L1867.8 1154.06L1900.77 1299.1Z" fill="#BDCFF9"/>
<path d="M1917.77 1312.67H1742.16L1739.78 1299.1H1900.77L1867.8 1154.06L1880.93 1150.57L1917.77 1312.67Z" fill="#ECF1FD"/>
<path d="M1739.78 1299.1H1557.71L1575.47 1152.2L1575.84 1149.21L1716.41 1165.7L1739.78 1299.1Z" fill="#AFC4F7"/>
<path d="M1742.16 1312.67H1542.4L1562 1150.57L1575.84 1149.21L1575.47 1152.2L1557.71 1299.1H1739.78L1742.16 1312.67Z" fill="#DAE4FB"/>
<path d="M1712.87 1319.51C1692.35 1347.92 1726.7 1799.4 1726.7 1799.4H1746.97C1746.97 1799.4 1766.43 1654.29 1761.38 1622.54C1756.32 1590.79 1777.67 1389.76 1777.67 1389.76L1785.33 1261.29L1712.87 1319.51Z" fill="#FAA590"/>
<path d="M1788.66 1346.07C1770.27 1375.9 1842.34 1799.4 1842.34 1799.4H1862.05C1862.05 1799.4 1870.36 1652.45 1863 1621.15C1855.64 1589.85 1857.66 1375.23 1857.66 1375.23L1834.89 1346.61L1788.66 1346.07Z" fill="#FAA590"/>
<path d="M1742.14 979.41C1735.69 1011.68 1734.62 1063.29 1750.75 1064.91C1766.88 1066.52 1784.08 1069.21 1796.99 1046.09C1809.89 1022.97 1826.02 942.309 1786.23 956.828C1746.44 971.352 1742.14 979.41 1742.14 979.41Z" fill="#FAA590"/>
<path d="M1768.96 1053.72V1084.54H1800.81L1794.95 1044.44L1768.96 1053.72Z" fill="#FAA590"/>
<path d="M1840.85 998.941V998.961C1840.89 1006.27 1839.79 1015.12 1835.87 1021.3C1822.43 1042.51 1795.43 1057.04 1795.43 1057.04C1793.84 1056.43 1792.4 1055.62 1791.1 1054.61C1783.41 1048.61 1765.85 1039.58 1771.6 1023.23C1774.27 1015.64 1772.17 1004.96 1765.93 1011.19C1760.63 1016.48 1737.92 1002.38 1735.04 999.422C1726.6 990.84 1720.75 977.648 1732.16 963.441C1747.48 944.359 1782.46 939.539 1801.11 947.328C1804.28 948.66 1807.44 950.211 1810.51 952.02C1811.29 952.469 1812.06 952.941 1812.82 953.422C1813.43 953.809 1814.04 954.211 1814.64 954.621C1815.21 955 1815.78 955.391 1816.33 955.789C1816.71 956.059 1817.09 956.352 1817.46 956.648L1817.47 956.66C1829.29 966.18 1840.25 990.371 1840.29 990.66C1840.32 990.828 1840.33 991 1840.35 991.18C1840.53 992.559 1840.67 994.148 1840.76 995.879C1840.81 996.859 1840.84 997.879 1840.85 998.941Z" fill="#EF7773"/>
<path d="M1819.73 1261.29H1725.05C1725.05 1261.29 1725.81 1150.42 1725.81 1124.87C1725.81 1116.54 1720.09 1101.91 1737.39 1094.32C1742.42 1092.12 1749.61 1089.84 1755.86 1088.04C1759.4 1087.02 1762.64 1086.16 1765.01 1085.54C1767.44 1084.91 1768.95 1084.54 1768.95 1084.54H1800.8C1800.8 1084.54 1840.95 1097.97 1845.5 1111.61C1850.04 1125.25 1819.73 1261.29 1819.73 1261.29Z" fill="#82AAF2"/>
<path d="M1840.86 998.942C1840.67 999 1837.88 999.422 1836.67 999.422H1836.66C1827.65 999.352 1818.5 992.449 1814.06 981.328C1811.14 974.031 1810.79 966.328 1812.61 959.801C1813.12 957.969 1813.8 956.219 1814.65 954.609L1814.75 954.43C1816.8 950.57 1819.79 947.481 1823.58 945.641C1825.58 944.66 1827.5 943.91 1829.35 943.449C1837.72 941.328 1851.94 948.66 1851.37 972.352C1865.31 991.512 1841.14 998.879 1840.86 998.942Z" fill="#EF7773"/>
<path d="M1725.05 1261.29C1699.99 1303.91 1695.88 1403.56 1694.55 1425.38C1694.52 1426.01 1777.42 1429.67 1777.42 1429.67C1779.21 1417.83 1782.59 1382.21 1782.59 1382.21C1782.59 1382.21 1783.96 1410.69 1786.12 1429.17C1786.29 1430.6 1863.56 1430.84 1864.26 1429.55C1866.83 1424.77 1855.38 1335.01 1842.85 1304.33C1829.21 1270.9 1819.73 1261.29 1819.73 1261.29H1725.05Z" fill="#382B72"/>
<path d="M1714.51 1783.11H1757.71L1753.38 1809.02L1753.61 1833.13H1672.45C1672.45 1833.13 1666.03 1831.13 1679.47 1821.71C1692.91 1812.28 1722.28 1808.12 1722.28 1808.12L1714.51 1783.11Z" fill="#382B72"/>
<path d="M1828.92 1783.11H1872.13L1867.79 1809.02L1868.81 1833.13H1786.86C1786.86 1833.13 1780.44 1831.13 1793.88 1821.71C1807.32 1812.28 1836.69 1808.12 1836.69 1808.12L1828.92 1783.11Z" fill="#382B72"/>
<path d="M1591.58 1160.71C1591.08 1156.45 1590.09 1152.26 1588.32 1148.36C1586.86 1145.14 1585.14 1141.89 1583.78 1140.87C1580.8 1138.63 1575.76 1135.46 1572.59 1132.11C1569.43 1128.75 1568.12 1128 1568.31 1130.8C1568.49 1133.6 1575.02 1142.36 1573.71 1142.36C1572.41 1142.36 1547.99 1137.88 1547.43 1141.8C1546.87 1145.71 1554.89 1148.32 1557.5 1153.92C1560.11 1159.51 1562 1162.56 1572.25 1166.47C1572.95 1166.74 1578.98 1169.94 1580.51 1170.93L1591.62 1160.86C1591.61 1160.85 1591.59 1160.8 1591.58 1160.71Z" fill="#FAA590"/>
<path d="M1737.39 1094.32C1691.65 1105.55 1692.03 1206.35 1672.7 1207.86C1653.82 1209.34 1594.98 1162.63 1591.62 1160.86L1580.51 1170.93C1593.52 1187.65 1646.02 1247.29 1678.51 1247.53C1713.37 1247.78 1727.9 1165.55 1734.97 1148.62C1742.05 1131.69 1737.39 1094.32 1737.39 1094.32Z" fill="#FAA590"/>
<path d="M1786.41 1096.41C1786.41 1096.41 1749.67 1160.89 1749.67 1232.13C1749.67 1303.37 1897.85 1302.33 1897.85 1232.13C1897.85 1161.93 1869.68 1096.41 1869.68 1096.41H1786.41Z" fill="#5064BE"/>
<path d="M1753.48 1190.79C1753.48 1190.79 1720.89 1259.28 1768.65 1259.28C1816.41 1259.28 1794.98 1190.79 1794.98 1190.79H1753.48Z" fill="#6E82E6"/>
<path d="M1824.1 1190.79C1824.1 1190.79 1794.71 1259.28 1847.1 1259.28C1899.49 1259.28 1909.07 1256.9 1909.07 1225.72C1909.07 1194.53 1895.66 1190.79 1895.66 1190.79H1824.1Z" fill="#6E82E6"/>
<path d="M1878.16 1118.14H1781.47C1769.47 1118.14 1759.75 1108.41 1759.75 1096.41C1759.75 1084.41 1769.47 1074.68 1781.47 1074.68H1878.16C1890.16 1074.68 1899.89 1084.41 1899.89 1096.41C1899.89 1108.41 1890.16 1118.14 1878.16 1118.14Z" fill="#6E82E6"/>
<path d="M1793.56 1096.41C1793.56 1104.43 1787.67 1110.94 1780.4 1110.94C1773.14 1110.94 1767.25 1104.43 1767.25 1096.41C1767.25 1088.39 1773.14 1081.88 1780.4 1081.88C1787.67 1081.88 1793.56 1088.39 1793.56 1096.41Z" fill="#5064BE"/>
<path d="M1822.23 1096.41C1822.23 1108.41 1812.5 1118.13 1800.51 1118.13C1799.2 1118.13 1797.91 1118.02 1796.66 1117.79C1806.82 1115.98 1814.53 1107.08 1814.53 1096.41C1814.53 1085.73 1806.82 1076.84 1796.66 1075.04C1797.91 1074.81 1799.2 1074.69 1800.51 1074.69C1812.5 1074.69 1822.23 1084.41 1822.23 1096.41Z" fill="#5064BE"/>
<path d="M1874.14 1096.41C1874.14 1108.41 1864.41 1118.13 1852.42 1118.13C1851.11 1118.13 1849.82 1118.02 1848.57 1117.79C1858.73 1115.98 1866.44 1107.08 1866.44 1096.41C1866.44 1085.73 1858.73 1076.84 1848.57 1075.04C1849.82 1074.81 1851.11 1074.69 1852.42 1074.69C1864.41 1074.69 1874.14 1084.41 1874.14 1096.41Z" fill="#5064BE"/>
<path d="M1818.02 985.172C1817.88 985.172 1817.73 985.141 1817.59 985.07C1810.86 981.828 1806.99 977.66 1806.1 972.68C1804.71 964.922 1811.08 958.211 1811.35 957.93C1811.73 957.531 1812.37 957.52 1812.76 957.91C1813.16 958.289 1813.17 958.922 1812.79 959.32C1812.73 959.379 1806.86 965.59 1808.07 972.34C1808.85 976.641 1812.34 980.32 1818.46 983.27C1818.96 983.512 1819.16 984.109 1818.92 984.609C1818.75 984.961 1818.39 985.172 1818.02 985.172Z" fill="#382B72"/>
<path d="M1833.07 1003.64C1827.71 1003.64 1823.6 1002.14 1820.79 999.172C1815.37 993.422 1816.97 984.371 1817.04 983.988C1817.14 983.449 1817.66 983.09 1818.2 983.191C1818.75 983.289 1819.11 983.809 1819.01 984.352C1818.99 984.441 1817.53 992.801 1822.25 997.809C1825.29 1001.02 1830.25 1002.22 1837.01 1001.38C1837.56 1001.31 1838.06 1001.7 1838.12 1002.25C1838.19 1002.8 1837.8 1003.3 1837.25 1003.37C1835.79 1003.55 1834.39 1003.64 1833.07 1003.64Z" fill="#382B72"/>
<path d="M859.828 883.969V951.25C859.828 962.711 850.359 971.18 839.895 971.18C829.43 971.18 819.961 962.711 819.961 951.25V883.969H679.922C668.461 883.969 658.492 875 658.492 863.539C658.492 859.051 659.988 854.07 662.98 849.578L796.539 633.789C801.023 626.32 806.504 621.328 815.973 621.328C826.938 621.328 834.414 629.809 834.414 639.77C834.414 643.262 833.414 647.75 830.926 651.73L711.32 844.102H819.961V766.859C819.961 755.391 829.43 746.922 839.895 746.922C850.359 746.922 859.828 755.391 859.828 766.859V844.102H887.238C898.699 844.102 908.168 853.57 908.168 864.031C908.168 874.5 898.699 883.969 887.238 883.969H859.828Z" fill="#EF7773"/>
<path d="M979.844 796.762C979.844 886.461 1002.27 937.789 1051.61 937.789C1102.44 937.789 1121.38 886.961 1121.38 796.762C1121.38 706.551 1101.44 655.719 1050.61 655.719C999.777 655.719 979.844 707.551 979.844 796.762ZM937.484 796.762C937.484 692.102 971.871 618.352 1050.61 618.352C1129.35 618.352 1163.74 692.102 1163.74 796.762C1163.74 901.91 1130.35 975.172 1051.61 975.172C972.867 975.172 937.484 901.91 937.484 796.762Z" fill="#EF7773"/>
<path d="M1386.41 883.969V951.25C1386.41 962.711 1376.95 971.18 1366.48 971.18C1356.01 971.18 1346.55 962.711 1346.55 951.25V883.969H1206.51C1195.05 883.969 1185.08 875 1185.08 863.539C1185.08 859.051 1186.57 854.07 1189.56 849.578L1323.12 633.789C1327.61 626.32 1333.09 621.328 1342.56 621.328C1353.52 621.328 1361 629.809 1361 639.77C1361 643.262 1360 647.75 1357.51 651.73L1237.9 844.102H1346.55V766.859C1346.55 755.391 1356.01 746.922 1366.48 746.922C1376.95 746.922 1386.41 755.391 1386.41 766.859V844.102H1413.82C1425.29 844.102 1434.75 853.57 1434.75 864.031C1434.75 874.5 1425.29 883.969 1413.82 883.969H1386.41Z" fill="#EF7773"/>
<path d="M827.586 1081H820.812V1047.18H826.719L842.516 1069.21H842.703V1047.18H849.477V1081H843.617L827.797 1058.85H827.586V1081ZM854.656 1081V1055.88H861.5V1081H854.656ZM858.078 1053.11C856.016 1053.11 854.422 1051.54 854.422 1049.57C854.422 1047.58 856.016 1046.03 858.078 1046.03C860.141 1046.03 861.734 1047.58 861.734 1049.57C861.734 1051.54 860.141 1053.11 858.078 1053.11ZM877.344 1060.4C874.344 1060.4 872.188 1062.67 871.953 1065.81H882.617C882.477 1062.6 880.391 1060.4 877.344 1060.4ZM882.711 1073.31H888.992C888.242 1078.23 883.742 1081.54 877.531 1081.54C869.797 1081.54 865.156 1076.59 865.156 1068.55C865.156 1060.54 869.844 1055.34 877.273 1055.34C884.586 1055.34 889.203 1060.28 889.203 1067.92V1070.01H871.883V1070.43C871.883 1074.02 874.156 1076.48 877.648 1076.48C880.156 1076.48 882.078 1075.23 882.711 1073.31ZM901.789 1081V1077.11L914.305 1061.24V1061.1H901.977V1055.88H922.25V1060.21L910.484 1075.63V1075.75H922.531V1081H901.789ZM926.398 1081V1055.88H933.008V1060.35H933.148C934.484 1057.23 937.133 1055.41 941 1055.41C946.578 1055.41 949.719 1058.92 949.719 1064.8V1081H942.875V1066.23C942.875 1062.95 941.328 1061.08 938.258 1061.08C935.188 1061.08 933.242 1063.33 933.242 1066.59V1081H926.398ZM963.758 1076.45C966.734 1076.45 969.195 1074.51 969.195 1071.79V1069.96L963.898 1070.29C961.344 1070.48 959.891 1071.62 959.891 1073.41C959.891 1075.28 961.438 1076.45 963.758 1076.45ZM961.508 1081.4C956.727 1081.4 953.094 1078.3 953.094 1073.78C953.094 1069.21 956.609 1066.56 962.867 1066.19L969.195 1065.81V1064.15C969.195 1061.8 967.555 1060.45 964.977 1060.45C962.422 1060.45 960.805 1061.71 960.477 1063.56H954.219C954.477 1058.69 958.625 1055.34 965.281 1055.34C971.727 1055.34 975.922 1058.66 975.922 1063.73V1081H969.312V1077.16H969.172C967.766 1079.83 964.648 1081.4 961.508 1081.4ZM980.516 1081V1047.18H987.359V1081H980.516ZM1003.25 1060.4C1000.25 1060.4 998.094 1062.67 997.859 1065.81H1008.52C1008.38 1062.6 1006.3 1060.4 1003.25 1060.4ZM1008.62 1073.31H1014.9C1014.15 1078.23 1009.65 1081.54 1003.44 1081.54C995.703 1081.54 991.062 1076.59 991.062 1068.55C991.062 1060.54 995.75 1055.34 1003.18 1055.34C1010.49 1055.34 1015.11 1060.28 1015.11 1067.92V1070.01H997.789V1070.43C997.789 1074.02 1000.06 1076.48 1003.55 1076.48C1006.06 1076.48 1007.98 1075.23 1008.62 1073.31ZM1018.18 1081V1077.11L1030.7 1061.24V1061.1H1018.37V1055.88H1038.64V1060.21L1026.88 1075.63V1075.75H1038.92V1081H1018.18ZM1043.05 1081V1055.88H1049.89V1081H1043.05ZM1046.47 1053.11C1044.41 1053.11 1042.81 1051.54 1042.81 1049.57C1042.81 1047.58 1044.41 1046.03 1046.47 1046.03C1048.53 1046.03 1050.12 1047.58 1050.12 1049.57C1050.12 1051.54 1048.53 1053.11 1046.47 1053.11ZM1065.99 1081.54C1058.4 1081.54 1053.55 1076.66 1053.55 1068.41C1053.55 1060.28 1058.47 1055.34 1065.99 1055.34C1073.52 1055.34 1078.44 1060.26 1078.44 1068.41C1078.44 1076.69 1073.59 1081.54 1065.99 1081.54ZM1065.99 1076.31C1069.34 1076.31 1071.48 1073.48 1071.48 1068.44C1071.48 1063.45 1069.32 1060.56 1065.99 1060.56C1062.66 1060.56 1060.48 1063.45 1060.48 1068.44C1060.48 1073.48 1062.62 1076.31 1065.99 1076.31ZM1081.98 1081V1055.88H1088.59V1060.35H1088.73C1090.06 1057.23 1092.71 1055.41 1096.58 1055.41C1102.16 1055.41 1105.3 1058.92 1105.3 1064.8V1081H1098.45V1066.23C1098.45 1062.95 1096.91 1061.08 1093.84 1061.08C1090.77 1061.08 1088.82 1063.33 1088.82 1066.59V1081H1081.98ZM1121.16 1081.54C1113.57 1081.54 1108.72 1076.66 1108.72 1068.41C1108.72 1060.28 1113.64 1055.34 1121.16 1055.34C1128.69 1055.34 1133.61 1060.26 1133.61 1068.41C1133.61 1076.69 1128.76 1081.54 1121.16 1081.54ZM1121.16 1076.31C1124.52 1076.31 1126.65 1073.48 1126.65 1068.44C1126.65 1063.45 1124.49 1060.56 1121.16 1060.56C1117.84 1060.56 1115.66 1063.45 1115.66 1068.44C1115.66 1073.48 1117.79 1076.31 1121.16 1076.31ZM1146.24 1063.26C1146.24 1058.48 1150.39 1055.34 1156.84 1055.34C1163.14 1055.34 1167.24 1058.52 1167.34 1063.4H1161.03C1160.89 1061.38 1159.27 1060.14 1156.74 1060.14C1154.38 1060.14 1152.83 1061.22 1152.83 1062.84C1152.83 1064.08 1153.91 1064.92 1156.11 1065.44L1160.91 1066.47C1165.95 1067.59 1167.99 1069.59 1167.99 1073.34C1167.99 1078.28 1163.45 1081.54 1156.81 1081.54C1150.11 1081.54 1145.98 1078.3 1145.61 1073.41H1152.29C1152.62 1075.52 1154.28 1076.73 1157 1076.73C1159.6 1076.73 1161.17 1075.7 1161.17 1074.06C1161.17 1072.8 1160.33 1072.09 1158.08 1071.55L1153.44 1070.52C1148.68 1069.45 1146.24 1066.96 1146.24 1063.26ZM1173.24 1050.09H1180.09V1055.88H1184.73V1061.03H1180.09V1073.05C1180.09 1074.98 1181.02 1075.89 1183.04 1075.89C1183.65 1075.89 1184.28 1075.84 1184.7 1075.77V1080.81C1184 1080.98 1182.83 1081.09 1181.45 1081.09C1175.54 1081.09 1173.24 1079.12 1173.24 1074.23V1061.03H1169.7V1055.88H1173.24V1050.09ZM1188.48 1081V1055.88H1195.09V1060.4H1195.23C1196.12 1057.21 1198.25 1055.48 1201.2 1055.48C1202 1055.48 1202.68 1055.59 1203.15 1055.73V1061.76C1202.59 1061.52 1201.65 1061.36 1200.66 1061.36C1197.29 1061.36 1195.32 1063.42 1195.32 1066.96V1081H1188.48ZM1216.65 1081.54C1209.05 1081.54 1204.2 1076.66 1204.2 1068.41C1204.2 1060.28 1209.12 1055.34 1216.65 1055.34C1224.17 1055.34 1229.09 1060.26 1229.09 1068.41C1229.09 1076.69 1224.24 1081.54 1216.65 1081.54ZM1216.65 1076.31C1220 1076.31 1222.13 1073.48 1222.13 1068.44C1222.13 1063.45 1219.98 1060.56 1216.65 1060.56C1213.32 1060.56 1211.14 1063.45 1211.14 1068.44C1211.14 1073.48 1213.27 1076.31 1216.65 1076.31ZM1232.63 1081V1055.88H1239.24V1060.35H1239.38C1240.72 1057.23 1243.37 1055.41 1247.23 1055.41C1252.81 1055.41 1255.95 1058.92 1255.95 1064.8V1081H1249.11V1066.23C1249.11 1062.95 1247.56 1061.08 1244.49 1061.08C1241.42 1061.08 1239.48 1063.33 1239.48 1066.59V1081H1232.63ZM1263.36 1090.3C1263.12 1090.3 1260.99 1090.28 1260.78 1090.23V1084.96C1260.99 1085.01 1262.23 1085.01 1262.49 1085.01C1265 1085.01 1266.24 1084.21 1266.71 1082.22C1266.71 1082.12 1266.97 1081.12 1266.92 1081.02L1258.18 1055.88H1265.7L1271.05 1075.52H1271.16L1276.51 1055.88H1283.73L1275.08 1081.56C1272.92 1088.01 1269.78 1090.3 1263.36 1090.3Z" fill="#382B72"/>
<defs>
<linearGradient id="paint0_linear_1530_1738" x1="1417.32" y1="1813.15" x2="1417.32" y2="144.11" gradientUnits="userSpaceOnUse">
<stop stop-color="#EEE3F2"/>
<stop offset="0.03125" stop-color="#EEE3F2"/>
<stop offset="0.0625" stop-color="#EDE3F2"/>
<stop offset="0.09375" stop-color="#ECE3F3"/>
<stop offset="0.125" stop-color="#EBE3F3"/>
<stop offset="0.15625" stop-color="#EAE3F3"/>
<stop offset="0.1875" stop-color="#EAE3F4"/>
<stop offset="0.21875" stop-color="#E9E3F4"/>
<stop offset="0.25" stop-color="#E8E3F4"/>
<stop offset="0.28125" stop-color="#E7E4F5"/>
<stop offset="0.3125" stop-color="#E6E4F5"/>
<stop offset="0.34375" stop-color="#E5E4F5"/>
<stop offset="0.375" stop-color="#E5E4F5"/>
<stop offset="0.40625" stop-color="#E4E4F6"/>
<stop offset="0.4375" stop-color="#E3E4F6"/>
<stop offset="0.46875" stop-color="#E2E4F6"/>
<stop offset="0.5" stop-color="#E1E4F7"/>
<stop offset="0.53125" stop-color="#E0E4F7"/>
<stop offset="0.5625" stop-color="#E0E4F7"/>
<stop offset="0.59375" stop-color="#DFE4F8"/>
<stop offset="0.625" stop-color="#DEE4F8"/>
<stop offset="0.65625" stop-color="#DDE4F8"/>
<stop offset="0.6875" stop-color="#DCE4F9"/>
<stop offset="0.71875" stop-color="#DBE4F9"/>
<stop offset="0.75" stop-color="#DBE4F9"/>
<stop offset="0.78125" stop-color="#DAE5FA"/>
<stop offset="0.8125" stop-color="#D9E5FA"/>
<stop offset="0.84375" stop-color="#D8E5FA"/>
<stop offset="0.875" stop-color="#D7E5FA"/>
<stop offset="0.90625" stop-color="#D6E5FB"/>
<stop offset="0.9375" stop-color="#D5E5FB"/>
<stop offset="0.96875" stop-color="#D5E5FB"/>
<stop offset="1" stop-color="#D4E5FC"/>
</linearGradient>
</defs>
</svg>
