<svg width="167" height="194" viewBox="0 0 167 194" fill="none" xmlns="http://www.w3.org/2000/svg">
<g clip-path="url(#clip0_1818_1827)">
<path d="M86.4567 144.248C83.7095 141.729 80.135 139.237 77.4049 135.821C71.7154 128.612 66.3075 121.095 60.8995 113.578C50.7 99.2501 40.4651 84.7098 29.3848 69.0858C40.6149 70.6075 50.3538 80.1653 62.2478 73.6773C60.7152 71.462 60.0452 69.4328 59.1826 69.2467C45.6987 66.1734 33.2333 59.223 21.2246 51.019C11.3115 44.4144 7.45928 48.2538 8.64719 62.399C9.9411 77.1815 10.1264 92.2984 10.9452 107.224C11.0171 109.657 12.0745 112.016 12.7276 114.942C18.8311 108.639 18.8311 108.639 19.2682 75.2608C20.9945 77.6409 22.4565 79.4312 23.7601 81.2693C36.7434 100.336 49.5683 119.45 62.833 138.208C67.1665 144.265 72.0628 149.705 77.2929 154.152C86.5908 162.058 94.9141 159.101 100.239 146.115C102.963 139.492 104.525 131.881 105.77 124.365C107.19 115.904 107.555 107.092 108.623 98.5145C109.447 92.4647 110.78 86.4841 111.885 80.1264C117.219 81.1953 119.932 85.5089 122.891 89.3021C135.38 105.394 145.705 123.477 154.535 143.573C155.593 145.932 156.369 148.598 157.866 150.601C158.712 151.685 160.63 152.222 161.897 151.84C162.531 151.648 163.409 148.929 163.356 147.606C162.913 143.947 162.084 139.957 160.885 136.749C152.387 113.652 141.163 93.1626 127.125 75.7531C124.359 72.1247 121.031 69.1122 117.65 66.7849C111.47 62.6245 106.279 64.4133 103.169 72.7147C100.638 79.5023 99.2349 87.0658 98.1482 94.5337C96.4829 105.523 95.8385 116.651 94.1732 127.64C93.1559 133.525 91.8573 139.718 86.4567 144.248Z" fill="#F4F4F4"/>
</g>
<g clip-path="url(#clip1_1818_1827)">
<path d="M88.1051 135.302C85.3579 132.784 81.7835 130.292 79.0533 126.876C73.3639 119.667 67.9559 112.149 62.5479 104.632C52.3484 90.3044 42.1136 75.7641 31.0332 60.1401C42.2633 61.6618 52.0023 71.2197 63.8963 64.7316C62.3637 62.5163 61.6936 60.4871 60.8311 60.301C47.3472 57.2278 34.8817 50.2773 22.8731 42.0734C12.9599 35.4688 9.10772 39.3082 10.2956 53.4533C11.5895 68.2359 11.7748 83.3528 12.5936 98.2786C12.6655 100.711 13.723 103.07 14.376 105.997C20.4795 99.6933 20.4795 99.6933 20.9167 66.3152C22.643 68.6952 24.1049 70.4856 25.4085 72.3237C38.3918 91.3901 51.2168 110.504 64.4815 129.263C68.8149 135.319 73.7112 140.759 78.9413 145.206C88.2393 153.112 96.5625 150.155 101.888 137.17C104.612 130.547 106.173 122.936 107.418 115.42C108.839 106.959 109.203 98.1468 110.271 89.5688C111.095 83.5191 112.429 77.5385 113.534 71.1807C118.867 72.2496 121.581 76.5633 124.54 80.3564C137.029 96.4482 147.354 114.531 156.184 134.627C157.241 136.986 158.017 139.653 159.515 141.655C160.36 142.739 162.279 143.276 163.546 142.894C164.179 142.703 165.058 139.983 165.004 138.661C164.562 135.001 163.732 131.012 162.533 127.803C154.036 104.706 142.812 84.2169 128.773 66.8075C126.008 63.179 122.679 60.1665 119.299 57.8393C113.118 53.6788 107.927 55.4677 104.817 63.769C102.287 70.5567 100.883 78.1201 99.7966 85.588C98.1313 96.5774 97.4869 107.705 95.8216 118.694C94.8044 124.579 93.5057 130.773 88.1051 135.302Z" fill="#354DFC"/>
</g>
<defs>
<clipPath id="clip0_1818_1827">
<rect width="145.061" height="143.738" fill="white" transform="matrix(-0.9574 0.288764 0.164034 0.986455 140.436 9.41071)"/>
</clipPath>
<clipPath id="clip1_1818_1827">
<rect width="145.061" height="143.738" fill="white" transform="matrix(-0.9574 0.288764 0.164034 0.986455 142.084 0.465057)"/>
</clipPath>
</defs>
</svg>
